<?xml version="1.0" encoding="UTF-8"?>
<svg version="1.1" xmlns="http://www.w3.org/2000/svg" width="270" height="105">
<path d="M0 0 C10.7401857 6.32809632 16.10835505 16.12914399 19.5625 27.9375 C19.63772969 30.26962027 19.65575876 32.6060311 19.5625 34.9375 C15.9325 34.9375 12.3025 34.9375 8.5625 34.9375 C7.92634766 33.52597656 7.92634766 33.52597656 7.27734375 32.0859375 C2.77294933 21.99593029 2.77294933 21.99593029 -5.4375 14.9375 C-8.35416667 13.9375 -8.35416667 13.9375 -11.4375 13.9375 C-12.71625 13.834375 -13.995 13.73125 -15.3125 13.625 C-21.05892924 13.75634695 -25.30391014 15.80391014 -29.35546875 19.85546875 C-38.32558382 30.66168413 -40.1796441 42.24284087 -39.4375 55.9375 C-37.81872422 69.51145473 -32.90850276 80.9417799 -22.16015625 89.64453125 C-21.30744141 90.28455078 -21.30744141 90.28455078 -20.4375 90.9375 C-21.4275 91.9275 -21.4275 91.9275 -22.4375 92.9375 C-34.22719106 89.31318268 -40.17152028 84.4897731 -46.4375 73.9375 C-46.83066406 73.32261719 -47.22382812 72.70773438 -47.62890625 72.07421875 C-51.24481335 65.84311685 -51.78672812 59.00302326 -52.4375 51.9375 C-52.54578125 50.968125 -52.6540625 49.99875 -52.765625 49 C-53.63285889 34.80889993 -46.903712 19.85765854 -37.953125 9.1640625 C-36.625 7.75 -36.625 7.75 -34.4375 5.9375 C-33.7775 5.9375 -33.1175 5.9375 -32.4375 5.9375 C-32.4375 5.2775 -32.4375 4.6175 -32.4375 3.9375 C-30.8345947 3.12251438 -29.23012722 2.31060073 -27.625 1.5 C-26.73167969 1.04753906 -25.83835937 0.59507812 -24.91796875 0.12890625 C-17.29529183 -3.53237952 -7.67073277 -3.59934384 0 0 Z " fill="#2B2098" transform="translate(53.4375,7.0625)"/>
<path d="M0 0 C-1.2979671 2.85552763 -2.69873873 4.88108294 -4.875 7.125 C-12.6916744 15.97370477 -13.84022939 27.6417341 -13.21777344 38.95654297 C-12.43684199 46.28434139 -9.27234728 52.26814658 -3.875 57.1875 C0.84405138 60.9609049 5.08077697 61.45732529 11 61.41796875 C16.05981093 60.71302113 20.14222716 58.29156351 24 55 C25.28087886 52.91141119 25.28087886 52.91141119 26 51 C26.66 51 27.32 51 28 51 C28.268125 50.29875 28.53625 49.5975 28.8125 48.875 C30.0681449 45.8350176 31.50235123 42.9272226 33 40 C36.96 40 40.92 40 45 40 C41.47566337 53.50995709 35.46497753 65.08701747 23.4296875 72.64453125 C17.25487214 76.08932374 11.19416048 79.02773721 4 78 C-6.11311505 75.03437483 -13.61711301 69.79878099 -19.390625 60.953125 C-26.08640042 48.66670215 -28.08176634 35.92250525 -24.875 22.1875 C-21.89889429 12.97117263 -18.01790067 6.82830796 -9.46484375 2.05859375 C-6.33244112 0.7132988 -3.41228899 0 0 0 Z " fill="#0F74A4" transform="translate(41,22)"/>
<path d="M0 0 C5.16816654 4.44702702 7.96706058 9.51820207 8.6875 16.3125 C8.79821229 25.91986632 7.08400702 34.10452257 1.8125 42.1875 C-2.64181996 46.64181996 -6.81376679 49.14864864 -13.125 49.5625 C-18.65128482 49.46147103 -22.4183858 47.297773 -26.5 43.6875 C-31.02175353 38.78496722 -32.46229703 33.78664328 -32.265625 27.17578125 C-32.06231381 23.20879783 -31.71490972 19.26387256 -31.3125 15.3125 C-30.6525 15.3125 -29.9925 15.3125 -29.3125 15.3125 C-29.27125 14.6525 -29.23 13.9925 -29.1875 13.3125 C-27.52601968 7.61599603 -23.8074002 3.47852216 -19.1875 -0.125 C-12.77846453 -3.60817145 -6.46938075 -3.29572227 0 0 Z M-19.3125 11.3125 C-23.33282733 17.66593533 -24.25472918 23.90106316 -23.3125 31.3125 C-22.05410052 35.02146688 -21.00586939 36.71543191 -18.0625 39.25 C-14.31003045 40.69981778 -12.16654289 40.41365511 -8.3125 39.3125 C-4.17752045 36.11728853 -1.47939223 32.41989752 -0.3125 27.3125 C0.64832015 18.59668627 0.64832015 18.59668627 -2.1875 10.5625 C-5.08883641 7.49049674 -5.80937102 7.35374008 -10.125 7 C-14.42212756 7.09324689 -16.40087218 7.99647943 -19.3125 11.3125 Z " fill="#2D282A" transform="translate(169.3125,29.6875)"/>
<path d="M0 0 C1.47906892 -0.02689216 2.95827483 -0.04634621 4.4375 -0.0625 C5.26121094 -0.07410156 6.08492188 -0.08570312 6.93359375 -0.09765625 C9 0 9 0 10 1 C10.26763881 2.3855052 10.47836096 3.78209464 10.66430664 5.1809082 C10.78435562 6.06885574 10.9044046 6.95680328 11.02809143 7.87165833 C11.15417282 8.83826889 11.28025421 9.80487946 11.41015625 10.80078125 C11.54191757 11.78870163 11.67367889 12.77662201 11.80943298 13.79447937 C12.08796013 15.88997943 12.36439224 17.98575883 12.63891602 20.08178711 C13.05941382 23.28896144 13.48717532 26.49510358 13.91601562 29.70117188 C14.18533012 31.73431752 14.45422408 33.76751892 14.72265625 35.80078125 C14.85076187 36.76131912 14.97886749 37.72185699 15.1108551 38.71150208 C15.22775192 39.6089061 15.34464874 40.50631012 15.46508789 41.4309082 C15.56866104 42.21842972 15.67223419 43.00595123 15.77894592 43.81733704 C16 46 16 46 16 50 C13.03 50 10.06 50 7 50 C6 43.25 6 43.25 6 41 C0.72 41 -4.56 41 -10 41 C-10.99 43.97 -11.98 46.94 -13 50 C-16.3 50 -19.6 50 -23 50 C-19.60237003 40.98889442 -15.45287284 32.37436292 -11.29248047 23.69824219 C-9.4542193 19.86060289 -7.62717341 16.01765175 -5.79931641 12.17504883 C-3.86817062 8.11576515 -1.9341879 4.05783483 0 0 Z M2 14 C0.82625827 16.43431639 -0.33915763 18.87204182 -1.5 21.3125 C-1.83386719 22.00279297 -2.16773438 22.69308594 -2.51171875 23.40429688 C-4.47293477 27.51988772 -4.47293477 27.51988772 -5 32 C-1.37 32 2.26 32 6 32 C5.76411556 29.84334222 5.52682197 27.68682617 5.28125 25.53125 C5.10085738 23.90771642 4.93305255 22.28270589 4.78125 20.65625 C4.58914598 18.76265319 4.3020146 16.87920197 4 15 C3.34 14.67 2.68 14.34 2 14 Z " fill="#2D2829" transform="translate(254,28)"/>
<path d="M0 0 C2.97 0 5.94 0 9 0 C10.32 11.22 11.64 22.44 13 34 C18.69846731 22.80658206 23.98840456 11.51600653 29 0 C32.3 0 35.6 0 39 0 C34.02088089 11.41176988 28.83399461 22.72102373 23.5625 34 C23.24609558 34.67710022 22.92969116 35.35420044 22.60369873 36.05181885 C17.27316434 47.45367133 17.27316434 47.45367133 16 50 C12.7 50 9.4 50 6 50 C4.64712794 45.94138383 4.56986751 41.96679819 4.28125 37.71484375 C4.16503263 35.03617684 4.16503263 35.03617684 3 33 C2.81227017 31.02436705 2.67578299 29.0437963 2.5625 27.0625 C1.97861613 18.01230001 0.98975403 9.01348815 0 0 Z " fill="#2F2A2C" transform="translate(181,28)"/>
<path d="M0 0 C3.35068945 2.85022217 6.05920428 5.36316943 7.70703125 9.51171875 C7.70703125 10.50171875 7.70703125 11.49171875 7.70703125 12.51171875 C1.95703125 15.51171875 1.95703125 15.51171875 -0.29296875 15.51171875 C-0.74671875 14.54234375 -1.20046875 13.57296875 -1.66796875 12.57421875 C-2.95083096 9.44092293 -2.95083096 9.44092293 -5.29296875 8.51171875 C-11.10862535 7.88494759 -11.10862535 7.88494759 -16.10546875 10.51171875 C-20.86473961 17.03871879 -22.27425467 23.47323953 -21.29296875 31.51171875 C-20.03814998 35.21013196 -19.2940621 36.88941748 -15.98046875 38.94921875 C-12.67322792 39.64143195 -10.52753164 39.49615093 -7.29296875 38.51171875 C-5.60758274 36.51506561 -5.60758274 36.51506561 -4.29296875 34.51171875 C-3.30296875 34.51171875 -2.31296875 34.51171875 -1.29296875 34.51171875 C0.89453125 37.01171875 0.89453125 37.01171875 2.70703125 39.51171875 C1.20876114 43.32549721 -1.05784268 45.0853742 -4.29296875 47.51171875 C-4.95296875 48.17171875 -5.61296875 48.83171875 -6.29296875 49.51171875 C-12.38323601 50.36903242 -18.05302245 49.83706928 -23.29296875 46.51171875 C-28.95779438 40.54599014 -31.14324244 33.64684806 -31.29296875 25.51171875 C-30.33592867 16.31768199 -27.47116981 8.17434135 -20.48828125 1.88671875 C-14.29110279 -2.79441176 -6.84254223 -4.44124121 0 0 Z " fill="#2B2728" transform="translate(130.29296875,29.48828125)"/>
<path d="M0 0 C2.64 0 5.28 0 8 0 C7.41186846 9.11603889 5.94225808 18.05119466 4.41601562 27.04589844 C3.99627566 29.52197013 3.58363821 31.99915306 3.171875 34.4765625 C2.90666238 36.05736091 2.64105206 37.63809266 2.375 39.21875 C2.1905835 40.3249469 2.1905835 40.3249469 2.00244141 41.45349121 C1.50008441 44.39920868 0.94678551 47.15964347 0 50 C-2.64 50 -5.28 50 -8 50 C-9.28347494 46.14957518 -8.29387832 44.80076755 -7 41 C-6.61074508 38.36712297 -6.27192911 35.7687552 -6 33.125 C-5.49886844 28.30856892 -4.7498661 23.74558685 -3.51269531 19.06201172 C-2.60505491 15.41156847 -2.00456119 11.70670213 -1.375 8 C-1.2409375 7.22527344 -1.106875 6.45054688 -0.96875 5.65234375 C-0.64317951 3.76868593 -0.32120574 1.88440702 0 0 Z " fill="#2B2627" transform="translate(225,28)"/>
<path d="M0 0 C9.78377141 2.32849674 17.82956258 6.19751161 23.65234375 14.6640625 C27.73071152 21.7332333 30.52869783 28.83076241 31 37 C25.06 37.495 25.06 37.495 19 38 C18.86464844 37.06800781 18.72929688 36.13601562 18.58984375 35.17578125 C16.68111265 23.87197852 13.70751055 13.104204 4 6 C1.6875 3.875 1.6875 3.875 0 2 C0 1.34 0 0.68 0 0 Z " fill="#1074A3" transform="translate(56,4)"/>
<path d="M0 0 C3.63 0 7.26 0 11 0 C9.61064133 6.94679337 6.16856994 11.61727414 0.5 15.875 C-3.45419543 18.47322133 -7.22375921 20 -12 20 C-12 19.01 -12 18.02 -12 17 C-11.25363281 16.41734375 -10.50726563 15.8346875 -9.73828125 15.234375 C-6.47063037 12.56804646 -5.09573437 9.99163603 -3.1875 6.25 C-2.28064453 4.49429688 -2.28064453 4.49429688 -1.35546875 2.703125 C-0.90816406 1.81109375 -0.46085937 0.9190625 0 0 Z " fill="#32299B" transform="translate(60,62)"/>
<path d="M0 0 C-1.39332574 3.36720387 -2.9789286 4.9859524 -6 7 C-6.33 6.34 -6.66 5.68 -7 5 C-10.1857029 6.39330742 -12.19822217 8.02896738 -14.5625 10.5625 C-16.8343494 12.99626295 -17.76779382 13.92259794 -21 15 C-19.18189056 9.21510633 -15.60040515 5.82802228 -10.5 2.75 C-6.8677303 0.93386515 -4.034352 0 0 0 Z " fill="#2F7FAA" transform="translate(41,22)"/>
<path d="M0 0 C2.56616632 3.84924948 2.55097676 6.4349304 3 11 C-2.94 11.495 -2.94 11.495 -9 12 C-9 9.69 -9 7.38 -9 5 C-8.67 5 -8.34 5 -8 5 C-8 6.65 -8 8.3 -8 10 C-5.36 9.67 -2.72 9.34 0 9 C0 6.03 0 3.06 0 0 Z " fill="#3987B0" transform="translate(84,30)"/>
<path d="M0 0 C1.58624235 0.42683239 3.1689098 0.86696158 4.75 1.3125 C6.07257812 1.67794922 6.07257812 1.67794922 7.421875 2.05078125 C10.05772505 3.02125331 11.85407326 4.21005644 14 6 C13.21625 5.95875 12.4325 5.9175 11.625 5.875 C8.83883881 5.71271266 8.83883881 5.71271266 7 8 C5.8274869 7.04882866 4.66212985 6.08882991 3.5 5.125 C2.8503125 4.59132813 2.200625 4.05765625 1.53125 3.5078125 C1.0259375 3.01023437 0.520625 2.51265625 0 2 C0 1.34 0 0.68 0 0 Z " fill="#3F86AE" transform="translate(56,4)"/>
<path d="M0 0 C0.33 0 0.66 0 1 0 C1 6.6 1 13.2 1 20 C0.67 19.34 0.34 18.68 0 18 C-0.66 18 -1.32 18 -2 18 C-2.75612577 12.76528314 -3.2063366 8.22745859 -2 3 C-1.34 3 -0.68 3 0 3 C0 2.01 0 1.02 0 0 Z " fill="#393639" transform="translate(102,46)"/>
<path d="M0 0 C3.63 0 7.26 0 11 0 C11 0.99 11 1.98 11 3 C7.30581799 4.231394 4.7943739 3.64432764 1 3 C1 3.66 1 4.32 1 5 C0.34 4.67 -0.32 4.34 -1 4 C-0.67 2.68 -0.34 1.36 0 0 Z " fill="#443D9A" transform="translate(60,62)"/>
<path d="M0 0 C0.33 0 0.66 0 1 0 C1.15177529 8.19586555 1.04652075 16.28214743 -2 24 C-2.33 24 -2.66 24 -3 24 C-3.23752204 17.56051369 -2.75544608 12.19569205 -1 6 C-0.6435691 4.00398694 -0.30077325 2.005155 0 0 Z " fill="#5C595C" transform="translate(223,39)"/>
<path d="M0 0 C2.64 1.98 5.28 3.96 8 6 C7.34 6.66 6.68 7.32 6 8 C1.05 6.02 1.05 6.02 -4 4 C-3.34 3.67 -2.68 3.34 -2 3 C-1.34 3.33 -0.68 3.66 0 4 C0 2.68 0 1.36 0 0 Z " fill="#544FA9" transform="translate(25,92)"/>
<path d="M0 0 C-1.38188453 3.21043882 -2.92421903 5.04936365 -5.625 7.25 C-6.57246094 8.03117187 -6.57246094 8.03117187 -7.5390625 8.828125 C-8.02117188 9.21484375 -8.50328125 9.6015625 -9 10 C-8.75 7.625 -8.75 7.625 -8 5 C-5.9375 3.6875 -5.9375 3.6875 -4 3 C-4 2.34 -4 1.68 -4 1 C-2 0 -2 0 0 0 Z " fill="#34309C" transform="translate(25,10)"/>
<path d="M0 0 C0.103125 0.639375 0.20625 1.27875 0.3125 1.9375 C0.539375 2.618125 0.76625 3.29875 1 4 C1.99 4.33 2.98 4.66 4 5 C-1.625 7 -1.625 7 -5 7 C-5 6.01 -5 5.02 -5 4 C-2.5 1.8125 -2.5 1.8125 0 0 Z " fill="#544EA8" transform="translate(53,75)"/>
<path d="M0 0 C2.4294516 3.6441774 2.16179575 5.71241272 2 10 C2.66 10 3.32 10 4 10 C3.67 13.3 3.34 16.6 3 20 C1.07567559 16.15135118 0.65670907 14.17346771 0.375 10 C0.30023438 8.96875 0.22546875 7.9375 0.1484375 6.875 C0.0302476 4.58584831 0 2.29220075 0 0 Z " fill="#6C6A6F" transform="translate(257,39)"/>
<path d="M0 0 C1.30062431 3.81516464 0.89369853 7.27561763 0.5625 11.25 C0.46066406 12.51328125 0.35882812 13.7765625 0.25390625 15.078125 C0.17011719 16.04234375 0.08632813 17.0065625 0 18 C-0.33 18 -0.66 18 -1 18 C-1.22119939 15.37549914 -1.42746669 12.75129514 -1.625 10.125 C-1.68945312 9.37863281 -1.75390625 8.63226563 -1.8203125 7.86328125 C-1.96087365 5.9129953 -1.98759849 3.95530533 -2 2 C-1.34 1.34 -0.68 0.68 0 0 Z " fill="#4890B6" transform="translate(27,43)"/>
<path d="M0 0 C1.79378179 2.69067269 2.97313958 5.08578257 4.1875 8.0625 C4.55230469 8.94035156 4.91710937 9.81820312 5.29296875 10.72265625 C6 13 6 13 5 15 C1.28836791 12.3006312 0.70152875 8.2999586 0 4 C0 2.68 0 1.36 0 0 Z " fill="#5654AC" transform="translate(14,70)"/>
<path d="M0 0 C2.475 0.99 2.475 0.99 5 2 C5 2.66 5 3.32 5 4 C8.3 4.33 11.6 4.66 15 5 C15 5.33 15 5.66 15 6 C9.01006953 6.3152595 5.36439644 5.68219822 0 3 C0 2.01 0 1.02 0 0 Z " fill="#58555A" transform="translate(107,73)"/>
<path d="M0 0 C0.33 0 0.66 0 1 0 C0.03644647 11.52164009 0.03644647 11.52164009 -1 17 C-1.33 17 -1.66 17 -2 17 C-2.05398987 14.72942623 -2.09278742 12.45848712 -2.125 10.1875 C-2.14820313 8.92292969 -2.17140625 7.65835938 -2.1953125 6.35546875 C-2 3 -2 3 0 0 Z " fill="#5F5B5F" transform="translate(229,46)"/>
<path d="M0 0 C0.33 0 0.66 0 1 0 C0.67 5.28 0.34 10.56 0 16 C-0.33 16 -0.66 16 -1 16 C-1.22384382 14.27277272 -1.42839969 12.54303993 -1.625 10.8125 C-1.74101562 9.84957031 -1.85703125 8.88664062 -1.9765625 7.89453125 C-2.00194942 4.75924677 -1.34359283 2.80513465 0 0 Z " fill="#474344" transform="translate(146,44)"/>
<path d="M0 0 C1.44207941 2.88415883 1.09394887 5.41721528 1.0625 8.625 C1.05347656 9.81351563 1.04445313 11.00203125 1.03515625 12.2265625 C1.02355469 13.14179687 1.01195313 14.05703125 1 15 C0.34 15 -0.32 15 -1 15 C-2.09318411 11.72044768 -1.95793255 9.78530914 -1.625 6.375 C-1.53476563 5.39273438 -1.44453125 4.41046875 -1.3515625 3.3984375 C-1 1 -1 1 0 0 Z " fill="#585556" transform="translate(108,49)"/>
<path d="M0 0 C0.75 1.75 0.75 1.75 1 4 C-0.9375 6.25 -0.9375 6.25 -3 8 C-3.66 7.67 -4.32 7.34 -5 7 C-4.34 5.68 -3.68 4.36 -3 3 C-2.34 3 -1.68 3 -1 3 C-0.67 2.01 -0.34 1.02 0 0 Z " fill="#3D82AC" transform="translate(70,70)"/>
<path d="M0 0 C2.07384637 2.28176413 2.98397191 3.44323483 3.07421875 6.578125 C2.94660156 7.45984375 2.81898438 8.3415625 2.6875 9.25 C2.50767578 10.58804688 2.50767578 10.58804688 2.32421875 11.953125 C2.21722656 12.62859375 2.11023438 13.3040625 2 14 C-0.28062828 10.57905758 -0.21925007 9.31812778 -0.125 5.3125 C-0.10695312 4.31863281 -0.08890625 3.32476562 -0.0703125 2.30078125 C-0.04710937 1.54152344 -0.02390625 0.78226563 0 0 Z " fill="#6F6D72" transform="translate(183,42)"/>
<path d="M0 0 C0.66 0 1.32 0 2 0 C1.25 6.75 1.25 6.75 -1 9 C-2.25541557 5.23375329 -1.37061958 3.62811066 0 0 Z " fill="#3F3B3C" transform="translate(174,58)"/>
<path d="" fill="#A5B3C6" transform="translate(0,0)"/>
</svg>
