<?xml version="1.0" encoding="UTF-8"?>
<svg version="1.1" xmlns="http://www.w3.org/2000/svg" width="333" height="161">
<path d="M0 0 C1.30194305 -0.00422974 1.30194305 -0.00422974 2.63018799 -0.00854492 C4.0617347 -0.00550858 4.0617347 -0.00550858 5.52220154 -0.00241089 C6.52550507 -0.00416321 7.52880859 -0.00591553 8.56251526 -0.00772095 C11.89081025 -0.01213524 15.21905245 -0.00920316 18.54734802 -0.00582886 C20.8513795 -0.00650196 23.15541091 -0.00747205 25.45944214 -0.00872803 C30.29238052 -0.01020438 35.12530045 -0.00805223 39.95823669 -0.00338745 C46.16845193 0.00231298 52.37862397 -0.00097156 58.58883762 -0.00695992 C63.34729338 -0.01056448 68.10573881 -0.00942748 72.86419487 -0.00683212 C75.15485069 -0.00616273 77.44550744 -0.00699171 79.73616219 -0.00931168 C82.93049243 -0.01183683 86.12475161 -0.0079997 89.31907654 -0.00241089 C90.75365959 -0.00544724 90.75365959 -0.00544724 92.21722412 -0.00854492 C93.51493744 -0.00431519 93.51493744 -0.00431519 94.83886719 0 C95.59490518 0.00037703 96.35094316 0.00075405 97.1298914 0.0011425 C98.85594177 0.12698364 98.85594177 0.12698364 99.85594177 1.12698364 C99.96730793 4.28229747 100.01334917 7.41592297 100.01707458 10.572052 C100.02452194 12.05974846 100.02452194 12.05974846 100.03211975 13.57749939 C100.04678195 16.87394899 100.05354968 20.17035048 100.05906677 23.46682739 C100.06481434 25.74747215 100.07057212 28.02811689 100.07633972 30.3087616 C100.08686091 35.09639716 100.09269643 39.88401587 100.09617615 44.67166138 C100.10166694 50.82023342 100.12570289 56.96858468 100.1541481 63.11708736 C100.17272794 67.82926596 100.17797756 72.54139084 100.17951202 77.25360298 C100.18254901 79.52111584 100.19061241 81.78862752 100.2036972 84.05610466 C100.22066256 87.22174999 100.21890091 90.38684901 100.21238708 93.55252075 C100.22160187 94.49753448 100.23081665 95.44254822 100.24031067 96.41619873 C100.23474152 97.27574661 100.22917236 98.13529449 100.22343445 99.02088928 C100.22563429 100.14445029 100.22563429 100.14445029 100.22787857 101.2907095 C99.85594177 103.12698364 99.85594177 103.12698364 96.85594177 105.12698364 C94.93344116 105.37866592 94.93344116 105.37866592 92.71897888 105.38095093 C91.457173 105.3894104 91.457173 105.3894104 90.1698761 105.39804077 C89.25030121 105.39399231 88.33072632 105.38994385 87.38328552 105.38577271 C85.92682114 105.39102966 85.92682114 105.39102966 84.44093323 105.39639282 C81.22503044 105.40520951 78.00934688 105.39936114 74.79344177 105.39260864 C72.56289121 105.39395531 70.33234094 105.39589585 68.10179138 105.39840698 C63.42443551 105.40135816 58.74715597 105.39706075 54.06980896 105.38772583 C48.06715825 105.37633135 42.06468638 105.38289085 36.06204224 105.39487076 C31.45533393 105.40208948 26.84866819 105.39980136 22.24195862 105.39461517 C20.02831501 105.39327871 17.81466757 105.39492626 15.60102844 105.39957428 C12.5101138 105.40463966 9.41949088 105.39692896 6.32859802 105.38577271 C5.40902313 105.38982117 4.48944824 105.39386963 3.54200745 105.39804077 C2.70080353 105.39240112 1.85959961 105.38676147 0.99290466 105.38095093 C0.26213211 105.38019688 -0.46864044 105.37944283 -1.22155762 105.37866592 C-3.14405823 105.12698364 -3.14405823 105.12698364 -6.14405823 103.12698364 C-6.51320171 101.28791618 -6.51320171 101.28791618 -6.50482178 99.01416016 C-6.50894577 98.15316711 -6.51306976 97.29217407 -6.51731873 96.40509033 C-6.50113998 94.98521317 -6.50113998 94.98521317 -6.4846344 93.53665161 C-6.48507248 92.54149536 -6.48551056 91.54633911 -6.48596191 90.52102661 C-6.48386606 87.22021093 -6.46049722 83.91989847 -6.43702698 80.61917114 C-6.43143387 78.33516721 -6.42716243 76.05115969 -6.42416382 73.76715088 C-6.41269267 67.74677649 -6.38320588 61.72661818 -6.35005188 55.70632935 C-6.31939991 49.56662927 -6.30566891 43.42689438 -6.2905426 37.28713989 C-6.25833843 25.23365938 -6.20711465 13.18033946 -6.14405823 1.12698364 C-3.8445301 -0.02278042 -2.55687007 0.00127444 0 0 Z " fill="#D51601" transform="translate(119.14405822753906,7.873016357421875)"/>
<path d="M0 0 C1.15628906 -0.02126953 1.15628906 -0.02126953 2.3359375 -0.04296875 C4.625 0.1875 4.625 0.1875 6.53125 1.23828125 C9.471062 2.57106915 11.58025706 2.01313815 14.75 1.5625 C24.81325865 0.6394718 31.12176349 4.33758359 38.8125 10.50390625 C41.18218889 12.70506123 42.513886 14.42298736 42.984375 17.66015625 C42.5165175 20.95041494 41.48288724 21.64053106 38.875 23.625 C36.13356844 25.83738336 34.48680977 27.39478535 32.5 30.375 C30.20744308 33.81383538 28.30942714 35.31052768 24.625 37.1875 C21.62867458 37.77107238 18.67250745 38.05205522 15.625 38.1875 C15.23835192 43.82969785 16.19336919 47.05739908 19 51.9375 C19.62648438 53.04609375 20.25296875 54.1546875 20.8984375 55.296875 C22.0898879 57.29161097 23.3361692 59.25425381 24.625 61.1875 C20.19459974 60.67233718 17.36797622 59.56591589 13.625 57.1875 C13.51430176 57.81317871 13.40360352 58.43885742 13.28955078 59.08349609 C12.78451919 61.91135769 12.26741875 64.73687986 11.75 67.5625 C11.57597656 68.54734375 11.40195313 69.5321875 11.22265625 70.546875 C11.04863281 71.48789063 10.87460938 72.42890625 10.6953125 73.3984375 C10.53820801 74.26774902 10.38110352 75.13706055 10.21923828 76.03271484 C9.625 78.1875 9.625 78.1875 7.625 80.1875 C6.635 80.1875 5.645 80.1875 4.625 80.1875 C3.965 81.8375 3.305 83.4875 2.625 85.1875 C0.975 85.1875 -0.675 85.1875 -2.375 85.1875 C-2.375 84.1975 -2.375 83.2075 -2.375 82.1875 C-3.365 82.6825 -3.365 82.6825 -4.375 83.1875 C-8.34788453 83.62893161 -9.91456856 83.50780013 -13.25 81.1875 C-13.95125 80.5275 -14.6525 79.8675 -15.375 79.1875 C-15.21 78.671875 -15.045 78.15625 -14.875 77.625 C-13.56000601 71.21440429 -14.62773349 66.90776543 -17.5 61.203125 C-18.375 59.1875 -18.375 59.1875 -18.375 56.1875 C-19.674375 56.27 -20.97375 56.3525 -22.3125 56.4375 C-27.68424641 56.47160633 -31.6925455 54.66709766 -36.375 52.1875 C-36.375 53.1775 -36.375 54.1675 -36.375 55.1875 C-35.446875 55.125625 -34.51875 55.06375 -33.5625 55 C-30.375 55.1875 -30.375 55.1875 -28.5 56.25 C-26.30887715 60.02360047 -27.01606655 63.77239456 -28.0546875 67.8671875 C-28.78542568 70.32385967 -29.55428659 72.75955615 -30.375 75.1875 C-29.715 75.1875 -29.055 75.1875 -28.375 75.1875 C-27.88 73.7025 -27.88 73.7025 -27.375 72.1875 C-26.055 72.5175 -24.735 72.8475 -23.375 73.1875 C-23.375 77.4775 -23.375 81.7675 -23.375 86.1875 C-26.675 86.1875 -29.975 86.1875 -33.375 86.1875 C-33.50777344 85.22328125 -33.64054688 84.2590625 -33.77734375 83.265625 C-33.95394531 82.00234375 -34.13054687 80.7390625 -34.3125 79.4375 C-34.48652344 78.18453125 -34.66054687 76.9315625 -34.83984375 75.640625 C-35.23549338 73.08767407 -35.67946422 70.6688709 -36.375 68.1875 C-37.365 68.1875 -38.355 68.1875 -39.375 68.1875 C-41.025 63.2375 -42.675 58.2875 -44.375 53.1875 C-44.49875 55.29125 -44.6225 57.395 -44.75 59.5625 C-45.125 65.9375 -45.125 65.9375 -47.375 68.1875 C-48.375 67.1875 -48.375 67.1875 -48.4296875 64.109375 C-47.97206661 50.7481573 -45.08840989 38.01789136 -41.17578125 25.26171875 C-40.13781428 22.20215823 -40.13781428 22.20215823 -41 19.125 C-41.375 16.1875 -41.375 16.1875 -39.9375 13.25 C-35.72435561 8.21477866 -30.15254282 1.65319467 -23.20849609 0.97631836 C-22.44617676 0.99315674 -21.68385742 1.00999512 -20.8984375 1.02734375 C-19.64546875 1.0437793 -19.64546875 1.0437793 -18.3671875 1.06054688 C-17.07167969 1.09245117 -17.07167969 1.09245117 -15.75 1.125 C-14.02872854 1.1593745 -12.30736603 1.18952862 -10.5859375 1.21484375 C-9.44584229 1.24179321 -9.44584229 1.24179321 -8.28271484 1.26928711 C-5.37090054 1.14445248 -3.07026527 0.02550054 0 0 Z " fill="#14100F" transform="translate(169.375,19.8125)"/>
<path d="M0 0 C3.37345312 1.84910299 5.09746249 3.7349156 6.6875 7.3125 C7.0175 4.6725 7.3475 2.0325 7.6875 -0.6875 C11.60402632 -0.77464316 15.52030311 -0.82793985 19.4375 -0.875 C20.54867187 -0.90013672 21.65984375 -0.92527344 22.8046875 -0.95117188 C23.87460938 -0.96083984 24.94453125 -0.97050781 26.046875 -0.98046875 C27.03139648 -0.9961792 28.01591797 -1.01188965 29.03027344 -1.02807617 C32.08032409 -0.63715182 33.42863723 0.28092944 35.6875 2.3125 C36.0175 1.3225 36.3475 0.3325 36.6875 -0.6875 C46.2575 -0.6875 55.8275 -0.6875 65.6875 -0.6875 C65.6875 2.6125 65.6875 5.9125 65.6875 9.3125 C63.0475 9.3125 60.4075 9.3125 57.6875 9.3125 C57.6875 16.5725 57.6875 23.8325 57.6875 31.3125 C53.3975 31.3125 49.1075 31.3125 44.6875 31.3125 C44.6875 24.0525 44.6875 16.7925 44.6875 9.3125 C38.025 9.55 38.025 9.55 35.5625 12.4375 C34.51374718 15.88340214 35.24189016 17.21009118 36.84765625 20.33203125 C38.34539834 23.86391608 38.39529674 27.51385759 38.6875 31.3125 C34.3975 31.3125 30.1075 31.3125 25.6875 31.3125 C24.49462589 27.43565913 23.6875 24.39628077 23.6875 20.3125 C22.6975 20.3125 21.7075 20.3125 20.6875 20.3125 C20.6875 23.9425 20.6875 27.5725 20.6875 31.3125 C16.3975 31.3125 12.1075 31.3125 7.6875 31.3125 C7.1925 27.3525 7.1925 27.3525 6.6875 23.3125 C6.28917969 23.80621094 5.89085937 24.29992187 5.48046875 24.80859375 C4.95066406 25.44925781 4.42085937 26.08992188 3.875 26.75 C3.35292969 27.38808594 2.83085938 28.02617187 2.29296875 28.68359375 C-0.67134149 31.69117859 -4.05233569 31.52830822 -8.0625 31.625 C-13.81397885 31.5555377 -16.83621368 30.94948264 -21.3125 27.3125 C-22.94602898 25.03531183 -24.0894566 22.85643027 -25.3125 20.3125 C-30.2625 20.8075 -30.2625 20.8075 -35.3125 21.3125 C-35.3125 24.6125 -35.3125 27.9125 -35.3125 31.3125 C-39.6025 31.3125 -43.8925 31.3125 -48.3125 31.3125 C-48.3125 20.7525 -48.3125 10.1925 -48.3125 -0.6875 C-40.3925 -0.6875 -32.4725 -0.6875 -24.3125 -0.6875 C-23.9825 1.6225 -23.6525 3.9325 -23.3125 6.3125 C-22.61125 5.549375 -21.91 4.78625 -21.1875 4 C-14.770574 -1.99843082 -8.03946983 -3.62882491 0 0 Z M-10.3125 8.3125 C-10.3125 12.9325 -10.3125 17.5525 -10.3125 22.3125 C-9.3225 22.8075 -9.3225 22.8075 -8.3125 23.3125 C-7.6525 22.9825 -6.9925 22.6525 -6.3125 22.3125 C-6.3125 17.6925 -6.3125 13.0725 -6.3125 8.3125 C-7.6325 8.3125 -8.9525 8.3125 -10.3125 8.3125 Z M20.6875 8.3125 C20.6875 9.6325 20.6875 10.9525 20.6875 12.3125 C22.0075 11.9825 23.3275 11.6525 24.6875 11.3125 C24.3575 10.3225 24.0275 9.3325 23.6875 8.3125 C22.6975 8.3125 21.7075 8.3125 20.6875 8.3125 Z M-36.3125 9.3125 C-36.3125 9.6425 -36.3125 9.9725 -36.3125 10.3125 C-32.6825 10.3125 -29.0525 10.3125 -25.3125 10.3125 C-24.9825 11.3025 -24.6525 12.2925 -24.3125 13.3125 C-24.3125 11.9925 -24.3125 10.6725 -24.3125 9.3125 C-28.2725 9.3125 -32.2325 9.3125 -36.3125 9.3125 Z " fill="#FEFEFE" transform="translate(84.3125,122.6875)"/>
<path d="M0 0 C1.30194305 -0.00422974 1.30194305 -0.00422974 2.63018799 -0.00854492 C4.0617347 -0.00550858 4.0617347 -0.00550858 5.52220154 -0.00241089 C6.52550507 -0.00416321 7.52880859 -0.00591553 8.56251526 -0.00772095 C11.89081025 -0.01213524 15.21905245 -0.00920316 18.54734802 -0.00582886 C20.8513795 -0.00650196 23.15541091 -0.00747205 25.45944214 -0.00872803 C30.29238052 -0.01020438 35.12530045 -0.00805223 39.95823669 -0.00338745 C46.16845193 0.00231298 52.37862397 -0.00097156 58.58883762 -0.00695992 C63.34729338 -0.01056448 68.10573881 -0.00942748 72.86419487 -0.00683212 C75.15485069 -0.00616273 77.44550744 -0.00699171 79.73616219 -0.00931168 C82.93049243 -0.01183683 86.12475161 -0.0079997 89.31907654 -0.00241089 C90.75365959 -0.00544724 90.75365959 -0.00544724 92.21722412 -0.00854492 C93.51493744 -0.00431519 93.51493744 -0.00431519 94.83886719 0 C95.59490518 0.00037703 96.35094316 0.00075405 97.1298914 0.0011425 C98.85594177 0.12698364 98.85594177 0.12698364 99.85594177 1.12698364 C99.96730793 4.28229747 100.01334917 7.41592297 100.01707458 10.572052 C100.02452194 12.05974846 100.02452194 12.05974846 100.03211975 13.57749939 C100.04678195 16.87394899 100.05354968 20.17035048 100.05906677 23.46682739 C100.06481434 25.74747215 100.07057212 28.02811689 100.07633972 30.3087616 C100.08686091 35.09639716 100.09269643 39.88401587 100.09617615 44.67166138 C100.10166694 50.82023342 100.12570289 56.96858468 100.1541481 63.11708736 C100.17272794 67.82926596 100.17797756 72.54139084 100.17951202 77.25360298 C100.18254901 79.52111584 100.19061241 81.78862752 100.2036972 84.05610466 C100.22066256 87.22174999 100.21890091 90.38684901 100.21238708 93.55252075 C100.22160187 94.49753448 100.23081665 95.44254822 100.24031067 96.41619873 C100.23474152 97.27574661 100.22917236 98.13529449 100.22343445 99.02088928 C100.22563429 100.14445029 100.22563429 100.14445029 100.22787857 101.2907095 C99.85594177 103.12698364 99.85594177 103.12698364 96.85594177 105.12698364 C94.93344116 105.37866592 94.93344116 105.37866592 92.71897888 105.38095093 C91.457173 105.3894104 91.457173 105.3894104 90.1698761 105.39804077 C89.25030121 105.39399231 88.33072632 105.38994385 87.38328552 105.38577271 C85.92682114 105.39102966 85.92682114 105.39102966 84.44093323 105.39639282 C81.22503044 105.40520951 78.00934688 105.39936114 74.79344177 105.39260864 C72.56289121 105.39395531 70.33234094 105.39589585 68.10179138 105.39840698 C63.42443551 105.40135816 58.74715597 105.39706075 54.06980896 105.38772583 C48.06715825 105.37633135 42.06468638 105.38289085 36.06204224 105.39487076 C31.45533393 105.40208948 26.84866819 105.39980136 22.24195862 105.39461517 C20.02831501 105.39327871 17.81466757 105.39492626 15.60102844 105.39957428 C12.5101138 105.40463966 9.41949088 105.39692896 6.32859802 105.38577271 C5.40902313 105.38982117 4.48944824 105.39386963 3.54200745 105.39804077 C2.70080353 105.39240112 1.85959961 105.38676147 0.99290466 105.38095093 C0.26213211 105.38019688 -0.46864044 105.37944283 -1.22155762 105.37866592 C-3.14405823 105.12698364 -3.14405823 105.12698364 -6.14405823 103.12698364 C-6.51320171 101.28791618 -6.51320171 101.28791618 -6.50482178 99.01416016 C-6.50894577 98.15316711 -6.51306976 97.29217407 -6.51731873 96.40509033 C-6.50113998 94.98521317 -6.50113998 94.98521317 -6.4846344 93.53665161 C-6.48507248 92.54149536 -6.48551056 91.54633911 -6.48596191 90.52102661 C-6.48386606 87.22021093 -6.46049722 83.91989847 -6.43702698 80.61917114 C-6.43143387 78.33516721 -6.42716243 76.05115969 -6.42416382 73.76715088 C-6.41269267 67.74677649 -6.38320588 61.72661818 -6.35005188 55.70632935 C-6.31939991 49.56662927 -6.30566891 43.42689438 -6.2905426 37.28713989 C-6.25833843 25.23365938 -6.20711465 13.18033946 -6.14405823 1.12698364 C-3.8445301 -0.02278042 -2.55687007 0.00127444 0 0 Z M-1.14405823 7.12698364 C-1.34276876 9.97798548 -1.41673846 12.73186789 -1.40284729 15.58401489 C-1.40635193 16.45891571 -1.40985657 17.33381653 -1.41346741 18.23522949 C-1.42229359 21.13672748 -1.41643245 24.03798304 -1.40968323 26.93948364 C-1.41102962 28.94965665 -1.41296994 30.95982933 -1.41548157 32.97000122 C-1.41843403 37.1867482 -1.41413124 41.40341055 -1.40480042 45.62014771 C-1.39340583 51.03440588 -1.39996465 56.44846578 -1.41194534 61.86271667 C-1.41916063 66.01473494 -1.41687754 70.16670593 -1.41168976 74.31872559 C-1.41035234 76.31549096 -1.41200417 78.31226058 -1.41664886 80.309021 C-1.42170866 83.09611434 -1.41401161 85.8828833 -1.40284729 88.66995239 C-1.40689575 89.50118622 -1.41094421 90.33242004 -1.41511536 91.18884277 C-1.56614608 95.62881918 -1.56614608 95.62881918 0.85594177 99.12698364 C3.75477261 99.37037916 3.75477261 99.37037916 6.98094177 99.25198364 C8.0766449 99.23393677 9.17234802 99.21588989 10.30125427 99.19729614 C11.14430115 99.17409302 11.98734802 99.15088989 12.85594177 99.12698364 C12.88320337 97.08539269 12.90245523 95.04369401 12.91844177 93.00198364 C12.93004333 91.86503052 12.9416449 90.72807739 12.95359802 89.55667114 C12.86126878 86.31406804 12.46984083 83.30765752 11.85594177 80.12698364 C12.51594177 80.12698364 13.17594177 80.12698364 13.85594177 80.12698364 C15.53005944 86.15380724 16.33626481 91.89086012 16.85594177 98.12698364 C20.15594177 98.12698364 23.45594177 98.12698364 26.85594177 98.12698364 C26.85594177 93.83698364 26.85594177 89.54698364 26.85594177 85.12698364 C25.53594177 84.79698364 24.21594177 84.46698364 22.85594177 84.12698364 C22.52594177 85.11698364 22.19594177 86.10698364 21.85594177 87.12698364 C21.19594177 87.12698364 20.53594177 87.12698364 19.85594177 87.12698364 C20.07250427 86.48631958 20.28906677 85.84565552 20.51219177 85.18557739 C22.1581609 80.07240479 23.52122124 75.56009933 22.85594177 70.12698364 C21.87545239 68.0629568 21.87545239 68.0629568 19.85594177 67.12698364 C16.7304516 66.87649728 16.7304516 66.87649728 13.85594177 67.12698364 C13.85594177 66.13698364 13.85594177 65.14698364 13.85594177 64.12698364 C14.40121521 64.41573364 14.94648865 64.70448364 15.50828552 65.00198364 C21.28816546 67.847463 25.4316168 68.53487729 31.85594177 68.12698364 C32.01062927 69.42635864 32.01062927 69.42635864 32.16844177 70.75198364 C32.69704715 74.16354457 32.69704715 74.16354457 34.41844177 77.06448364 C36.61164103 81.73695163 36.41776562 86.24628411 34.85594177 91.12698364 C37.65122132 93.75783498 39.16166089 95.05891689 43.04344177 95.43948364 C45.80449752 95.29674967 45.80449752 95.29674967 47.85594177 94.12698364 C47.85594177 95.11698364 47.85594177 96.10698364 47.85594177 97.12698364 C49.50594177 97.12698364 51.15594177 97.12698364 52.85594177 97.12698364 C53.51594177 95.47698364 54.17594177 93.82698364 54.85594177 92.12698364 C55.51594177 92.12698364 56.17594177 92.12698364 56.85594177 92.12698364 C56.52594177 94.43698364 56.19594177 96.74698364 55.85594177 99.12698364 C61.08867508 99.17634189 66.32127353 99.21268313 71.55418396 99.23684692 C73.33513244 99.24691796 75.11606434 99.26057549 76.8969574 99.27786255 C79.4536396 99.30206277 82.01010362 99.31345548 84.56687927 99.32229614 C85.36588654 99.33261871 86.1648938 99.34294128 86.9881134 99.35357666 C88.94551397 99.35397591 90.90237254 99.24939433 92.85594177 99.12698364 C95.45543846 96.52748696 95.10062079 94.73015139 95.1269989 91.18884277 C95.12295044 90.35760895 95.11890198 89.52637512 95.11473083 88.66995239 C95.11823547 87.79505157 95.12174011 86.92015076 95.12535095 86.01873779 C95.13417714 83.11723981 95.128316 80.21598425 95.12156677 77.31448364 C95.12291317 75.30431064 95.12485348 73.29413795 95.12736511 71.28396606 C95.13031758 67.06721909 95.12601479 62.85055674 95.11668396 58.63381958 C95.10528938 53.21956141 95.11184819 47.8055015 95.12382889 42.39125061 C95.13104417 38.23923235 95.12876108 34.08726136 95.1235733 29.9352417 C95.12223589 27.93847633 95.12388772 25.94170671 95.12853241 23.94494629 C95.1335922 21.15785294 95.12589515 18.37108398 95.11473083 15.58401489 C95.1187793 14.75278107 95.12282776 13.92154724 95.1269989 13.06512451 C95.27802962 8.62514811 95.27802962 8.62514811 92.85594177 5.12698364 C89.94441967 4.92819716 87.12799144 4.85432076 84.21531677 4.86819458 C83.32090881 4.86468994 82.42650085 4.8611853 81.50498962 4.85757446 C78.53856217 4.8487477 75.5723718 4.85460963 72.60594177 4.86135864 C70.55092828 4.86001226 68.4959151 4.85807196 66.44090271 4.8555603 C62.12999952 4.85260776 57.81917911 4.85691088 53.50828552 4.86624146 C47.97296053 4.87763604 42.43782947 4.87107726 36.9025116 4.85909653 C32.65784739 4.85188145 28.41322942 4.85416423 24.16856384 4.85935211 C22.12714109 4.86068959 20.08571418 4.85903749 18.04429626 4.85439301 C15.19493941 4.84933357 12.3458999 4.85702978 9.49656677 4.86819458 C8.64663147 4.86414612 7.79669617 4.86009766 6.92100525 4.85592651 C2.41426915 4.69277837 2.41426915 4.69277837 -1.14405823 7.12698364 Z " fill="#060404" transform="translate(119.14405822753906,7.873016357421875)"/>
<path d="M0 0 C0.33 -0.33 0.66 -0.66 1 -1 C7.07001387 -1.44465178 12.28018674 -1.19992818 18 1 C18.66 0.67 19.32 0.34 20 0 C27.57142284 -1.03844167 32.55629463 0.21964176 38.90625 4.39453125 C43.8379459 8.1761115 43.8379459 8.1761115 44.46484375 11.36328125 C43.82192304 15.01010041 42.11928261 16.55094258 39.5625 19.1875 C36.40500228 22.32725447 36.40500228 22.32725447 34 26 C29.58889469 24.65216226 27.38349278 22.97248797 25 19 C24.43564918 15.55118941 24.21234634 13.24280301 26.12890625 10.21875 C27.34595178 8.74858674 28.66721095 7.36610877 30 6 C24.555 5.505 24.555 5.505 19 5 C19 5.96421875 19 6.9284375 19 7.921875 C19 12.94791667 19 17.97395833 19 23 C19.061875 24.27875 19.12375 25.5575 19.1875 26.875 C19.21746579 30.90539924 17.86412728 33.43384347 16 37 C16.38932856 39.14255793 16.38932856 39.14255793 17 41 C16.34 41.99 15.68 42.98 15 44 C15.33 44.33 15.66 44.66 16 45 C16.62043153 53.17509774 15.7842612 61.30233668 13 69 C12.65571052 70.3931714 12.32287762 71.7892111 12 73.1875 C11 77 11 77 9 80 C6.375 80.1875 6.375 80.1875 4 80 C4.52268466 77.23723823 5.10869587 74.6739124 6 72 C6.25910351 68.33800375 6.23148708 64.67018598 6.25 61 C6.270625 60.00871094 6.29125 59.01742187 6.3125 57.99609375 C6.34816915 51.15653483 5.8887353 44.30174072 3 38 C0.63103934 36.16830887 -1.03113257 35.72821277 -4 35 C-3.34 33.68 -2.68 32.36 -2 31 C-1.34 31 -0.68 31 0 31 C-0.0825 30.0925 -0.165 29.185 -0.25 28.25 C0 25 0 25 2 22.625 C2.66 22.08875 3.32 21.5525 4 21 C1.36 19.68 -1.28 18.36 -4 17 C-4 17.66 -4 18.32 -4 19 C-2.02 19.33 -0.04 19.66 2 20 C1.01 20.33 0.02 20.66 -1 21 C-1.33 23.31 -1.66 25.62 -2 28 C-3.32 28.33 -4.64 28.66 -6 29 C-6.19504458 26.89651926 -6.38078496 24.79217415 -6.5625 22.6875 C-6.66691406 21.51574219 -6.77132812 20.34398437 -6.87890625 19.13671875 C-7 16 -7 16 -6 13 C-5.93334624 11.60560336 -5.91461801 10.20830125 -5.9375 8.8125 C-5.958125 7.554375 -5.97875 6.29625 -6 5 C-14.00938881 4.46073846 -14.00938881 4.46073846 -21 8 C-20.39671875 7.95359375 -19.7934375 7.9071875 -19.171875 7.859375 C-12.61731493 7.56336261 -12.61731493 7.56336261 -9.4375 9.8125 C-8 12 -8 12 -8 15 C-9.98 15.99 -9.98 15.99 -12 17 C-12.40510689 23.75178151 -10.68319539 27.47520691 -7 33 C-10.2184256 32.40842943 -12.00980951 31.42539009 -14.4375 29.25 C-15.04464844 28.70859375 -15.65179688 28.1671875 -16.27734375 27.609375 C-18.57513916 25.46268178 -20.77657611 23.22342389 -23 21 C-23.62648437 20.53851563 -24.25296875 20.07703125 -24.8984375 19.6015625 C-26.81750836 18.1679483 -28.45500373 16.83160427 -30 15 C-30.4375 11.5625 -30.4375 11.5625 -29 8 C-20.58255367 -1.55912295 -12.01099644 -2.15581987 0 0 Z " fill="#F5F5F5" transform="translate(163,25)"/>
<path d="M0 0 C2.375 2.3125 2.375 2.3125 4 5 C4 6.98 4 8.96 4 11 C0.04 11 -3.92 11 -8 11 C-8 9.68 -8 8.36 -8 7 C-9.32 7 -10.64 7 -12 7 C-12 11.29 -12 15.58 -12 20 C-10.68 20.33 -9.36 20.66 -8 21 C-8 19.68 -8 18.36 -8 17 C-4.04 17 -0.08 17 4 17 C4 24.06735014 3.54147136 24.35039837 -1 29 C-5.63676007 31.31838003 -11.95440027 30.44098885 -17 30 C-19.60782213 28.95045471 -20.90359555 27.91671264 -23 26 C-23.33 26 -23.66 26 -24 26 C-24 27.32 -24 28.64 -24 30 C-27.96 30 -31.92 30 -36 30 C-36.495 27.525 -36.495 27.525 -37 25 C-39.97 25 -42.94 25 -46 25 C-46.33 26.65 -46.66 28.3 -47 30 C-51.29 30 -55.58 30 -60 30 C-58.9478445 23.44426191 -57.71995681 18.06759596 -55 12 C-53.90820724 8.577963 -52.87985822 5.14153302 -51.8671875 1.6953125 C-51 -1 -51 -1 -50 -2 C-47.13530675 -2.07330331 -44.30106326 -2.09217831 -41.4375 -2.0625 C-38.653125 -2.041875 -35.86875 -2.02125 -33 -2 C-31.02 3.94 -29.04 9.88 -27 16 C-26.67 13.03 -26.34 10.06 -26 7 C-23.59964577 2.53037487 -21.04882232 -0.80224838 -16.25 -2.6875 C-9.94351593 -3.56340056 -5.42356208 -3.57462046 0 0 Z M-43 9 C-43.66 11.31 -44.32 13.62 -45 16 C-43.35 16 -41.7 16 -40 16 C-40.66 13.69 -41.32 11.38 -42 9 C-42.33 9 -42.66 9 -43 9 Z M-26 21 C-25 23 -25 23 -25 23 Z " fill="#FEFEFE" transform="translate(204,124)"/>
<path d="M0 0 C4.12074071 1.37358024 6.66635587 3.20774707 9.75 6.25 C10.52859375 6.99765625 11.3071875 7.7453125 12.109375 8.515625 C14.2977447 11.3912513 14.69129776 13.4396342 15 17 C15.9075 16.938125 16.815 16.87625 17.75 16.8125 C21 17 21 17 23.25 17.9375 C25.59836601 20.70521708 25.97685773 23.31882842 26.60546875 26.84375 C26.97932839 29.17184644 26.97932839 29.17184644 28 32 C26.02 32.495 26.02 32.495 24 33 C24 33.66 24 34.32 24 35 C25.6396875 34.8453125 25.6396875 34.8453125 27.3125 34.6875 C31 35 31 35 32.9375 36.9375 C35.31716868 43.79654502 33.97964235 50.19497943 32 57 C28.06225823 57.36630156 26.43460229 57.30233203 23.125 55 C22.42375 54.34 21.7225 53.68 21 53 C21.165 52.484375 21.33 51.96875 21.5 51.4375 C22.81499399 45.02690429 21.74726651 40.72026543 18.875 35.015625 C18 33 18 33 18 30 C16.0509375 30.12375 16.0509375 30.12375 14.0625 30.25 C8.69075359 30.28410633 4.6824545 28.47959766 0 26 C0 26.99 0 27.98 0 29 C0.928125 28.938125 1.85625 28.87625 2.8125 28.8125 C6 29 6 29 7.875 30.0625 C10.06612285 33.83610047 9.35893345 37.58489456 8.3203125 41.6796875 C7.58957432 44.13635967 6.82071341 46.57205615 6 49 C6.66 49 7.32 49 8 49 C8.33 48.01 8.66 47.02 9 46 C10.32 46.33 11.64 46.66 13 47 C13 51.29 13 55.58 13 60 C9.7 60 6.4 60 3 60 C2.92523438 59.20980469 2.85046875 58.41960937 2.7734375 57.60546875 C1.90510564 50.15654352 0.31761409 43.62567818 -2.125 36.5625 C-6.25820258 24.25515125 -6.90441531 12.99853072 -1 1 C-0.67 0.67 -0.34 0.34 0 0 Z " fill="#F6F6F6" transform="translate(133,46)"/>
<path d="M0 0 C5.7853125 -0.1546875 5.7853125 -0.1546875 11.6875 -0.3125 C13.4986731 -0.38078003 13.4986731 -0.38078003 15.34643555 -0.45043945 C23.22083448 -0.55265299 23.22083448 -0.55265299 27.23828125 2.296875 C29.53530003 5.82134728 29.60115766 7.86704109 29 12 C27.5 14.4375 27.5 14.4375 26 16 C26.48082031 16.53109375 26.96164062 17.0621875 27.45703125 17.609375 C30.25558745 21.94536587 29.72537571 26.94691307 30 32 C25.71 32 21.42 32 17 32 C16.54427083 29.42838542 16.08854167 26.85677083 15.6328125 24.28515625 C15.42398438 23.53105469 15.21515625 22.77695313 15 22 C14.34 21.67 13.68 21.34 13 21 C13 24.63 13 28.26 13 32 C8.71 32 4.42 32 0 32 C0 21.44 0 10.88 0 0 Z M13 9 C13 10.32 13 11.64 13 13 C13.99 12.67 14.98 12.34 16 12 C16 11.01 16 10.02 16 9 C15.01 9 14.02 9 13 9 Z " fill="#FEFEFE" transform="translate(235,122)"/>
<path d="M0 0 C3.96327928 3.49701113 5.82435458 6.60953044 6.51171875 11.7890625 C6.73366532 17.95764642 6.48597553 22.16043186 2.125 26.875 C-1.82880551 30.67512402 -4.35202105 31.42243087 -9.8125 31.375 C-15.53646907 31.20136495 -18.80482826 30.94517174 -22.875 26.875 C-26.33733384 22.69632123 -26.83859461 18.15378164 -26.875 12.875 C-26.13493763 6.74305468 -23.46343317 4.08876653 -18.9453125 0.2578125 C-13.3275935 -3.49439981 -6.03244424 -2.36052166 0 0 Z M-11.875 7.875 C-11.875 12.495 -11.875 17.115 -11.875 21.875 C-10.885 22.205 -9.895 22.535 -8.875 22.875 C-7.50967451 21.73798403 -7.50967451 21.73798403 -7.77734375 18.71484375 C-7.78894531 17.42707031 -7.80054688 16.13929688 -7.8125 14.8125 C-7.82152344 13.52214844 -7.83054687 12.23179687 -7.83984375 10.90234375 C-7.85144531 9.90332031 -7.86304688 8.90429688 -7.875 7.875 C-9.195 7.875 -10.515 7.875 -11.875 7.875 Z " fill="#FEFEFE" transform="translate(290.875,123.125)"/>
<path d="M0 0 C7.92 0 15.84 0 24 0 C24 3.3 24 6.6 24 10 C23.67 10.33 23.34 10.66 23 11 C22.92794489 12.68608966 22.91613932 14.37500659 22.9375 16.0625 C22.958125 17.691875 22.97875 19.32125 23 21 C19.7 21 16.4 21 13 21 C13 21.66 13 22.32 13 23 C16.63 23 20.26 23 24 23 C24 25.97 24 28.94 24 32 C16.08 32 8.16 32 0 32 C0 21.44 0 10.88 0 0 Z " fill="#FFFFFF" transform="translate(209,122)"/>
<path d="M0 0 C9.50922058 -0.69157968 15.92742066 2.86593452 23.37109375 8.53515625 C25.69953253 10.62907602 26.90652116 12.35682496 27.359375 15.47265625 C26.8915175 18.76291494 25.85788724 19.45303106 23.25 21.4375 C20.50856844 23.64988336 18.86180977 25.20728535 16.875 28.1875 C14.58244308 31.62633538 12.68442714 33.12302768 9 35 C6.00367458 35.58357238 3.04750745 35.86455522 0 36 C-0.38664808 41.64219785 0.56836919 44.86989908 3.375 49.75 C4.00148437 50.85859375 4.62796875 51.9671875 5.2734375 53.109375 C6.4648879 55.10411097 7.7111692 57.06675381 9 59 C4.56959974 58.48483718 1.74297622 57.37841589 -2 55 C-2.11069824 55.62567871 -2.22139648 56.25135742 -2.33544922 56.89599609 C-2.84048081 59.72385769 -3.35758125 62.54937986 -3.875 65.375 C-4.04902344 66.35984375 -4.22304687 67.3446875 -4.40234375 68.359375 C-4.57636719 69.30039063 -4.75039062 70.24140625 -4.9296875 71.2109375 C-5.08679199 72.08024902 -5.24389648 72.94956055 -5.40576172 73.84521484 C-6 76 -6 76 -8 78 C-8.66 78 -9.32 78 -10 78 C-10.2161831 73.46015483 -9.42511926 70.27535777 -8 66 C-6.96870416 60.01621753 -6.89057508 54.0548454 -7 48 C-7 45.3493418 -6.63174297 43.52697187 -6 41 C-6 40.01 -6 39.02 -6 38 C-5.67 37.443125 -5.34 36.88625 -5 36.3125 C-3.52247633 32.89572651 -3.87105843 29.66767144 -4 26 C-4 24.68 -4 23.36 -4 22 C-4.01160156 21.02804688 -4.02320313 20.05609375 -4.03515625 19.0546875 C-4.04417969 18.00539063 -4.05320313 16.95609375 -4.0625 15.875 C-4.07410156 14.82054687 -4.08570313 13.76609375 -4.09765625 12.6796875 C-4 10 -4 10 -3 8 C-1.20866022 7.94608007 0.58313899 7.90724429 2.375 7.875 C3.37273437 7.85179687 4.37046875 7.82859375 5.3984375 7.8046875 C8 8 8 8 10 10 C9.195625 10.268125 8.39125 10.53625 7.5625 10.8125 C6.716875 11.204375 5.87125 11.59625 5 12 C3.79809099 15.60572704 3.67329685 18.2102435 4 22 C6.16527042 25.47989889 8.17559618 27.49755564 12 29 C12.38285156 28.13181641 12.38285156 28.13181641 12.7734375 27.24609375 C14.52433186 24.03983815 17.00296548 21.70103747 19.5390625 19.09765625 C21.37065397 16.46780432 21.55793934 15.14155031 21 12 C15.42948818 5.72051395 7.12439073 2.82901946 -1 2 C-0.67 1.34 -0.34 0.68 0 0 Z " fill="#110C0B" transform="translate(185,22)"/>
<path d="M0 0 C2.375 -0.125 2.375 -0.125 5 0 C9.63087902 4.63087902 10.16894396 12.64230458 10.36328125 18.9296875 C10.36197741 20.91153019 10.34500618 22.89342348 10.3125 24.875 C10.31572266 25.88046875 10.31894531 26.8859375 10.32226562 27.921875 C10.28644826 32.83210993 10.04063769 36.46784473 8 41 C7.01 41 6.02 41 5 41 C5.165 40.030625 5.33 39.06125 5.5 38.0625 C6.84469826 29.17495359 6.84469826 29.17495359 4 21 C0.43793339 20.18129815 0.43793339 20.18129815 -3 20 C-3 19.34 -3 18.68 -3 18 C-1.68 17.67 -0.36 17.34 1 17 C0.34 16.01 -0.32 15.02 -1 14 C-0.9765625 10.64453125 -0.9765625 10.64453125 -0.625 6.8125 C-0.51414063 5.54019531 -0.40328125 4.26789063 -0.2890625 2.95703125 C-0.19367188 1.98121094 -0.09828125 1.00539062 0 0 Z " fill="#151515" transform="translate(160,61)"/>
<path d="M0 0 C2.1015784 3.58080096 2.70477321 7.12645491 3.4375 11.1875 C4.52168102 16.99887913 6.04838082 22.4239452 8 28 C8 28.99 8 29.98 8 31 C7.01 31 6.02 31 5 31 C3.35 26.05 1.7 21.1 0 16 C-0.12375 18.10375 -0.2475 20.2075 -0.375 22.375 C-0.75 28.75 -0.75 28.75 -3 31 C-3.33 30.67 -3.66 30.34 -4 30 C-3.98789632 27.39770976 -3.90343884 24.84509361 -3.75 22.25 C-3.68437866 21.10930054 -3.68437866 21.10930054 -3.61743164 19.94555664 C-3.14508183 13.07743223 -1.83663022 6.64190174 0 0 Z " fill="#130605" transform="translate(125,57)"/>
<path d="M0 0 C0.89203125 0.01804687 1.7840625 0.03609375 2.703125 0.0546875 C3.71632812 0.08949219 3.71632812 0.08949219 4.75 0.125 C5.84658936 3.41476808 5.54953138 4.83803767 4.75 8.125 C1.88275314 7.55155063 0.8885485 7.2635485 -1.25 5.125 C-3.91949409 4.88184344 -3.91949409 4.88184344 -6.875 5 C-7.87789062 5.01804687 -8.88078125 5.03609375 -9.9140625 5.0546875 C-11.07035156 5.08949219 -11.07035156 5.08949219 -12.25 5.125 C-8.53312968 1.03644264 -5.51012175 -0.1450032 0 0 Z " fill="#262626" transform="translate(152.25,28.875)"/>
<path d="M0 0 C0.99 0 1.98 0 3 0 C3.03738281 0.72445312 3.07476562 1.44890625 3.11328125 2.1953125 C3.49860998 7.86191152 3.984536 12.14903618 7 17 C4.45436943 16.03441599 3.05364796 15.06131195 1.25 13 C-0.55131741 8.67683821 -0.24227996 4.62126599 0 0 Z " fill="#E1E1E1" transform="translate(160,62)"/>
<path d="M0 0 C3.82097239 0.53069061 6.06171403 1.49701566 9 4 C8.360625 4.53625 7.72125 5.0725 7.0625 5.625 C4.61470596 8.44367193 4.33285388 10.33860732 4 14 C2.875 12.4375 2.875 12.4375 2 10 C2.875 6.25 2.875 6.25 4 3 C2.68 2.67 1.36 2.34 0 2 C0 1.34 0 0.68 0 0 Z " fill="#454545" transform="translate(159,42)"/>
<path d="M0 0 C0.33 0 0.66 0 1 0 C2.10285204 5.23854718 2.56629169 10.66342068 2 16 C1.34 16.66 0.68 17.32 0 18 C-0.33 17.67 -0.66 17.34 -1 17 C-0.90903444 14.13311752 -0.76232012 11.29699485 -0.5625 8.4375 C-0.51029297 7.63119141 -0.45808594 6.82488281 -0.40429688 5.99414062 C-0.27422624 3.99578262 -0.13770944 1.99784614 0 0 Z " fill="#270603" transform="translate(122,70)"/>
<path d="M0 0 C0.66 0 1.32 0 2 0 C5 6.625 5 6.625 5 10 C4.01 10 3.02 10 2 10 C0.39644899 6.49223216 -0.22036864 3.85645121 0 0 Z " fill="#231615" transform="translate(128,78)"/>
<path d="M0 0 C-1.2065625 0.61875 -1.2065625 0.61875 -2.4375 1.25 C-5.14109718 2.73452331 -5.14109718 2.73452331 -5.8125 5.1875 C-5.9053125 6.0846875 -5.9053125 6.0846875 -6 7 C-6.66 7 -7.32 7 -8 7 C-7.67 4.69 -7.34 2.38 -7 0 C-3.86650268 -1.04449911 -3.01031744 -0.93423645 0 0 Z " fill="#B21301" transform="translate(192,58)"/>
<path d="M0 0 C2.97 0.99 5.94 1.98 9 3 C8.34 3.66 7.68 4.32 7 5 C4.69 4.34 2.38 3.68 0 3 C0 2.01 0 1.02 0 0 Z " fill="#6E6E6E" transform="translate(133,72)"/>
<path d="M0 0 C0.66 0 1.32 0 2 0 C3.38938077 1.96147874 4.7260411 3.96166576 6 6 C5.67 6.66 5.34 7.32 5 8 C2.5 5.6875 2.5 5.6875 0 3 C0 2.01 0 1.02 0 0 Z " fill="#CECECE" transform="translate(182,69)"/>
</svg>
