<?xml version="1.0" standalone="no"?>
<!DOCTYPE svg PUBLIC "-//W3C//DTD SVG 20010904//EN"
 "http://www.w3.org/TR/2001/REC-SVG-20010904/DTD/svg10.dtd">
<svg version="1.0" xmlns="http://www.w3.org/2000/svg"
 width="50px" height="50px" viewBox="0 0 400.000000 400.000000"
 preserveAspectRatio="xMidYMid meet">

<g transform="translate(0.000000,400.000000) scale(0.100000,-0.100000)"
fill="#5931b9" stroke="none">
<path d="M1795 3901 c-131 -12 -421 -75 -550 -121 -234 -82 -541 -287 -745
-495 -79 -81 -190 -215 -190 -230 0 -3 -13 -23 -30 -43 -32 -40 -140 -245
-140 -266 0 -6 -9 -29 -19 -49 -11 -21 -25 -62 -31 -90 -7 -29 -16 -63 -22
-76 -37 -97 -52 -396 -29 -586 9 -72 49 -239 71 -290 4 -11 14 -42 21 -70 6
-27 15 -54 19 -60 4 -5 13 -28 20 -50 7 -22 18 -51 25 -65 7 -14 25 -52 40
-85 15 -33 38 -81 51 -107 13 -26 24 -54 24 -63 0 -8 4 -15 8 -15 5 0 16 -17
26 -38 26 -58 62 -120 116 -202 58 -87 100 -164 100 -182 0 -7 6 -25 14 -40 8
-14 19 -43 26 -65 22 -66 67 -147 99 -177 17 -17 31 -35 31 -42 0 -7 -20 -27
-44 -43 -44 -30 -56 -48 -56 -79 1 -43 142 -156 194 -156 17 1 90 29 161 64
159 77 218 92 351 88 148 -3 160 14 99 136 -37 72 -37 86 -2 86 26 0 54 16 45
26 -4 3 -32 9 -63 13 -52 5 -58 9 -77 42 l-21 37 22 43 c26 51 65 117 143 244
37 59 64 92 80 97 40 12 406 42 560 46 147 3 148 3 157 -20 6 -13 15 -104 20
-203 13 -227 56 -399 110 -443 60 -49 113 -45 245 18 98 46 112 47 184 20 137
-52 216 -50 276 6 21 20 44 50 52 67 8 18 23 46 34 62 10 17 19 36 19 44 3 50
109 264 161 326 10 11 30 43 46 70 72 129 84 151 90 165 8 21 21 48 49 100 13
25 32 65 41 90 10 25 23 52 29 60 7 8 16 29 19 45 4 17 13 44 20 60 51 118
123 400 147 570 17 119 15 360 -4 450 -34 164 -79 300 -135 405 -45 86 -122
201 -139 207 -7 3 -13 10 -13 17 0 17 -144 164 -225 230 -38 31 -87 71 -109
89 -80 67 -216 151 -351 217 -147 71 -314 140 -341 140 -8 0 -72 16 -141 35
-118 34 -137 36 -302 40 -97 2 -216 0 -266 -4z m425 -86 c30 -7 84 -21 120
-30 167 -41 530 -191 570 -236 3 -3 34 -22 70 -42 124 -70 365 -268 419 -344
13 -18 34 -44 47 -58 43 -47 104 -143 149 -237 54 -113 108 -274 100 -298 -4
-14 -21 -19 -73 -25 -122 -13 -238 -50 -295 -95 -26 -21 -160 -60 -203 -60
-25 0 -33 10 -81 96 -83 151 -157 247 -275 359 -234 222 -543 345 -862 345
-227 -1 -504 -83 -663 -198 -193 -139 -298 -256 -382 -426 -86 -174 -114 -262
-142 -451 -17 -107 -22 -333 -10 -390 6 -27 17 -88 25 -135 21 -119 81 -311
146 -460 18 -41 43 -102 57 -135 42 -102 94 -204 124 -241 16 -20 29 -41 29
-47 0 -22 -63 -107 -109 -149 -71 -62 -78 -68 -113 -82 -52 -22 -111 14 -137
85 -7 19 -17 43 -21 54 -5 11 -15 40 -24 65 -30 90 -42 116 -80 175 -22 33
-53 85 -69 115 -16 30 -42 75 -58 100 -47 74 -164 318 -198 415 -18 50 -37 99
-43 110 -6 11 -17 45 -24 75 -7 30 -20 80 -29 110 -63 224 -73 520 -21 703 9
32 16 69 16 82 0 13 4 27 10 30 5 3 14 25 21 48 6 23 26 75 45 115 19 41 34
76 34 79 0 2 20 36 45 74 25 38 45 72 45 75 0 20 116 166 198 250 117 119 392
334 427 334 4 0 30 14 57 31 47 28 83 43 248 104 152 55 391 110 520 118 134
10 339 5 390 -8z m-138 -725 c106 -15 154 -27 205 -51 38 -17 93 -43 123 -57
30 -14 66 -33 80 -42 14 -10 52 -34 85 -55 76 -49 208 -181 265 -265 24 -36
49 -70 55 -76 6 -6 25 -40 44 -76 43 -85 38 -108 -23 -108 -24 0 -60 7 -79 15
-54 22 -139 30 -168 15 -13 -8 -42 -30 -64 -51 -30 -29 -51 -40 -85 -44 -25
-4 -83 -13 -128 -21 -46 -8 -102 -12 -125 -9 -28 4 -58 1 -87 -10 -25 -9 -90
-25 -145 -35 -55 -10 -179 -37 -275 -60 -96 -22 -203 -47 -237 -55 -34 -8 -72
-15 -85 -15 -35 0 -351 -92 -398 -116 -14 -7 -46 -22 -72 -34 -27 -12 -69 -39
-95 -60 -25 -22 -50 -37 -55 -34 -8 5 -3 130 13 289 10 96 36 204 65 272 8 17
14 35 14 41 0 15 70 142 111 202 88 129 266 283 392 340 94 43 239 87 327 99
41 6 86 13 100 15 56 8 112 5 242 -14z m1672 -751 c-3 -5 -10 -7 -15 -3 -5 3
-7 10 -3 15 3 5 10 7 15 3 5 -3 7 -10 3 -15z m-207 -45 c-3 -3 -12 -4 -19 -1
-8 3 -5 6 6 6 11 1 17 -2 13 -5z m-115 -20 c-47 -14 -184 -35 -190 -29 -6 6
77 27 138 35 83 11 100 9 52 -6z m286 -59 c3 -57 -29 -282 -57 -400 -30 -125
-165 -481 -228 -601 -70 -134 -156 -277 -170 -281 -5 -2 -18 12 -28 31 -38 70
-180 101 -235 51 -12 -10 -41 -59 -66 -109 -25 -50 -56 -109 -69 -131 -31 -53
-31 -76 3 -108 62 -60 159 -75 210 -32 35 29 42 31 42 9 0 -23 -66 -158 -85
-174 -12 -10 -29 -11 -81 -2 -78 13 -97 26 -89 61 8 41 -8 56 -57 53 -24 -2
-56 -4 -73 -5 -48 -3 -42 25 24 114 34 44 66 90 72 101 7 12 20 31 31 42 23
25 157 297 188 381 12 33 34 95 48 137 19 55 33 80 50 87 33 15 42 14 42 -8 0
-16 -40 -101 -60 -126 -4 -5 -11 -25 -15 -43 -14 -67 57 -124 157 -124 75 0
75 1 154 162 30 63 60 123 65 132 28 54 -20 109 -109 127 -60 12 -82 33 -82
77 0 29 -39 71 -80 88 l-40 16 0 154 c0 85 -5 177 -12 206 -10 42 -9 53 3 65
8 7 93 27 189 44 96 17 204 38 240 45 36 8 76 14 90 13 23 -2 25 -7 28 -52z
m-523 14 c-43 -14 -75 -18 -75 -8 0 4 15 10 33 12 58 7 73 6 42 -4z m-165 -29
c-14 -4 -36 -8 -50 -9 -20 -1 -22 1 -10 9 8 5 31 9 50 9 32 -1 33 -2 10 -9z
m-100 -20 c-8 -5 -29 -10 -47 -10 -18 0 -52 -6 -75 -14 -24 -8 -65 -17 -93
-20 -27 -3 -68 -10 -90 -15 -22 -6 -59 -11 -82 -11 -23 0 -45 -4 -48 -10 -8
-13 -55 -13 -55 0 0 5 10 12 23 14 12 2 47 9 77 15 30 6 69 12 85 14 17 3 64
11 105 20 125 27 228 35 200 17z m126 -85 c16 -51 18 -292 3 -349 -10 -39 -14
-44 -52 -53 -23 -6 -103 -30 -177 -53 -74 -23 -147 -45 -162 -47 -28 -5 -28
-5 -28 48 0 65 25 257 41 319 7 25 16 61 21 81 9 39 18 46 83 61 108 26 174
36 215 35 43 -2 45 -4 56 -42z m-681 -15 c-11 -5 -44 -9 -74 -9 -30 -1 -68 -5
-85 -10 -17 -6 -62 -14 -101 -20 -38 -6 -77 -12 -85 -13 -8 -2 -16 1 -18 7 -5
17 207 52 318 53 45 0 59 -2 45 -8z m-405 -30 c0 -5 -21 -10 -47 -11 -64 -1
-105 -6 -173 -24 -32 -8 -71 -15 -88 -15 -16 0 -48 -6 -70 -14 -23 -8 -74 -19
-114 -25 -40 -6 -127 -24 -193 -41 -121 -30 -165 -36 -165 -22 0 7 106 39 205
62 28 7 59 15 70 20 11 4 58 13 105 19 47 6 110 15 140 21 70 13 255 37 298
39 17 0 32 -3 32 -9z m425 -92 c-4 -40 -14 -109 -22 -153 -8 -44 -21 -129 -28
-190 -11 -91 -17 -113 -35 -127 -12 -10 -30 -18 -40 -18 -10 0 -56 -14 -102
-31 -46 -17 -105 -38 -133 -46 -27 -8 -77 -30 -111 -49 -98 -54 -112 -46 -52
28 15 18 41 51 58 73 17 22 46 58 65 80 18 22 50 64 70 93 20 29 42 61 51 70
8 9 31 40 52 69 178 248 199 273 220 273 11 0 13 -13 7 -72z m-167 -30 c-19
-24 -42 -56 -52 -72 -10 -16 -29 -40 -41 -55 -31 -34 -72 -90 -86 -118 -12
-23 -39 -32 -39 -13 0 6 34 53 75 105 41 51 80 105 87 119 6 14 17 26 25 26 7
0 18 11 23 24 8 22 29 38 39 30 2 -2 -12 -22 -31 -46z m-183 11 c8 -11 -38
-90 -102 -176 -23 -32 -51 -69 -60 -82 -10 -13 -23 -29 -28 -35 -6 -6 -28 -36
-50 -66 -107 -149 -273 -340 -320 -369 -19 -12 -60 -21 -114 -25 -100 -8 -138
-22 -175 -67 -28 -33 -28 -36 -22 -117 6 -85 -4 -155 -26 -168 -14 -9 -44 30
-59 76 -6 19 -17 42 -24 50 -8 8 -17 29 -21 45 -4 17 -10 35 -14 40 -4 6 -23
51 -44 100 -20 50 -41 99 -46 110 -5 11 -14 38 -21 60 -6 22 -20 64 -30 93
-21 60 -24 102 -8 102 6 0 45 -35 87 -77 95 -96 134 -124 182 -130 44 -6 71 6
89 40 12 23 11 29 -13 60 -24 32 -27 46 -32 142 -5 104 -4 108 22 142 31 41
103 76 189 93 70 13 85 17 270 69 202 57 319 92 324 97 8 8 40 4 46 -7z m-310
-17 c-16 -14 -135 -51 -252 -78 -59 -14 -124 -30 -143 -34 -45 -12 -57 -12
-44 -1 14 13 109 42 204 62 47 10 119 27 160 38 41 10 77 19 80 20 2 1 0 -3
-5 -7z m-473 -67 c1 -6 -29 -26 -66 -46 -36 -19 -86 -54 -109 -77 -45 -45 -57
-50 -57 -28 0 33 110 126 180 152 38 14 51 14 52 -1z m748 -215 c0 -5 -13 -25
-30 -43 -16 -19 -30 -40 -30 -46 0 -6 -4 -11 -10 -11 -5 0 -18 -17 -29 -38
-10 -20 -30 -48 -43 -62 -13 -14 -47 -54 -74 -90 -83 -107 -174 -187 -174
-153 0 3 36 42 80 85 44 44 80 84 80 90 0 11 43 67 91 119 30 32 79 96 79 103
0 8 44 54 53 55 4 1 7 -3 7 -9z m547 -73 c-5 -16 -144 -64 -154 -53 -11 11 34
46 61 46 11 1 32 7 45 14 27 15 54 10 48 -7z m693 -16 c0 -5 -37 -27 -83 -50
-85 -42 -131 -50 -170 -29 -30 16 -124 10 -214 -13 -42 -10 -84 -19 -93 -19
-10 0 -46 -9 -81 -20 -35 -12 -102 -27 -149 -35 -47 -9 -107 -20 -135 -25 -70
-13 -283 -48 -327 -54 -57 -7 -45 10 20 30 54 16 74 21 175 44 23 5 64 9 90
10 44 0 192 28 347 66 36 9 119 27 184 41 118 26 120 26 172 8 62 -21 97 -15
209 36 46 21 55 22 55 10z m135 -32 c22 -6 43 -16 47 -23 18 -27 3 -79 -55
-191 -60 -116 -63 -120 -97 -123 -53 -5 -109 15 -115 41 -7 27 115 280 142
296 23 13 30 13 78 0z m-2312 -100 c9 -11 36 -26 63 -33 30 -8 49 -18 49 -27
0 -28 -42 -20 -84 16 -24 19 -46 35 -51 35 -4 0 -10 7 -14 15 -8 23 21 18 37
-6z m1911 5 c11 -10 14 -25 10 -42 -10 -43 -41 -127 -64 -169 -11 -21 -20 -42
-20 -46 0 -32 -180 -354 -234 -418 -14 -17 -26 -35 -26 -40 0 -5 -6 -9 -14 -9
-23 0 -28 60 -33 362 -4 279 -3 288 17 308 11 11 30 20 43 20 12 1 65 11 117
24 115 29 182 32 204 10z m-700 -120 c17 -6 23 -78 9 -87 -12 -7 -553 -21
-553 -14 0 3 16 23 34 43 33 36 36 37 54 21 21 -19 50 -21 119 -7 72 14 181
32 248 40 33 4 63 8 67 8 3 1 13 -1 22 -4z m51 -203 c0 -11 -32 -14 -156 -16
-86 -2 -196 -8 -245 -14 -127 -15 -302 -31 -348 -31 -28 0 -49 -8 -77 -31 -21
-17 -39 -37 -39 -45 0 -8 -8 -22 -17 -33 -10 -10 -38 -51 -63 -91 -29 -46 -46
-66 -48 -56 -5 22 18 68 68 136 22 30 49 72 60 93 13 23 34 44 53 52 18 7 117
18 227 25 107 6 211 15 230 20 19 4 107 7 195 7 128 -2 160 -5 160 -16z m837
-131 c23 -29 17 -55 -37 -150 -23 -41 -45 -84 -49 -95 -10 -34 -55 -75 -82
-75 -40 0 -91 26 -99 51 -6 16 8 52 51 138 78 156 86 164 148 158 36 -3 55
-11 68 -27z m-1838 -225 c-4 -8 -9 -15 -13 -15 -3 0 -17 -21 -31 -47 -54 -107
-120 -190 -120 -153 0 6 4 10 8 10 5 0 16 17 26 38 34 71 108 182 122 182 8 0
11 -6 8 -15z m1456 -225 c0 -25 -230 -139 -282 -140 -75 0 -79 35 -5 43 47 5
115 32 217 87 38 21 70 26 70 10z m-1390 -185 c22 -27 2 -34 -83 -28 -107 7
-197 -17 -363 -97 -87 -43 -128 -58 -142 -52 -37 14 -111 77 -112 95 0 24 9
22 59 -18 24 -19 48 -35 53 -35 5 0 41 15 81 33 67 31 144 63 242 101 55 21
247 22 265 1z"/>
<path d="M1836 3528 c-9 -36 -7 -41 9 -24 16 16 20 46 6 46 -5 0 -11 -10 -15
-22z"/>
<path d="M1360 3519 c0 -5 5 -7 10 -4 6 3 10 8 10 11 0 2 -4 4 -10 4 -5 0 -10
-5 -10 -11z"/>
<path d="M1715 3490 c-4 -7 -2 -16 6 -21 18 -11 23 -4 11 17 -7 12 -11 13 -17
4z"/>
<path d="M2432 3470 c0 -14 2 -19 5 -12 2 6 2 18 0 25 -3 6 -5 1 -5 -13z"/>
<path d="M1530 3455 c0 -14 5 -25 11 -25 6 0 9 6 6 14 -3 7 0 19 6 25 8 8 7
11 -6 11 -11 0 -17 -8 -17 -25z"/>
<path d="M1438 3453 c7 -3 16 -2 19 1 4 3 -2 6 -13 5 -11 0 -14 -3 -6 -6z"/>
<path d="M2431 3414 c0 -11 3 -14 6 -6 3 7 2 16 -1 19 -3 4 -6 -2 -5 -13z"/>
<path d="M2740 3413 c0 -12 52 -33 63 -26 5 3 -1 12 -14 19 -27 15 -49 18 -49
7z"/>
<path d="M2720 3309 c0 -11 5 -17 10 -14 6 3 10 13 10 21 0 8 -4 14 -10 14 -5
0 -10 -9 -10 -21z"/>
<path d="M2700 3270 c0 -5 5 -10 10 -10 6 0 10 5 10 10 0 6 -4 10 -10 10 -5 0
-10 -4 -10 -10z"/>
<path d="M960 3260 c0 -5 4 -10 9 -10 6 0 13 5 16 10 3 6 -1 10 -9 10 -9 0
-16 -4 -16 -10z"/>
<path d="M1065 3260 c3 -5 8 -10 11 -10 2 0 4 5 4 10 0 6 -5 10 -11 10 -5 0
-7 -4 -4 -10z"/>
<path d="M900 3171 c0 -6 4 -13 10 -16 6 -3 7 1 4 9 -7 18 -14 21 -14 7z"/>
<path d="M3076 3121 c-3 -5 0 -14 8 -20 10 -9 15 -8 19 3 9 22 -15 37 -27 17z"/>
<path d="M644 3106 c-8 -22 3 -33 18 -18 9 9 9 15 0 24 -9 9 -13 7 -18 -6z"/>
<path d="M735 3051 c-3 -5 -1 -12 5 -16 5 -3 10 1 10 9 0 18 -6 21 -15 7z"/>
<path d="M495 2800 c-3 -5 1 -10 9 -10 9 0 16 5 16 10 0 6 -4 10 -9 10 -6 0
-13 -4 -16 -10z"/>
<path d="M3490 2800 c0 -5 5 -10 10 -10 6 0 10 5 10 10 0 6 -4 10 -10 10 -5 0
-10 -4 -10 -10z"/>
<path d="M3348 2693 c7 -3 16 -2 19 1 4 3 -2 6 -13 5 -11 0 -14 -3 -6 -6z"/>
<path d="M310 2606 c0 -28 3 -34 16 -29 18 7 16 54 -3 61 -9 2 -13 -8 -13 -32z"/>
<path d="M301 2534 c0 -11 3 -14 6 -6 3 7 2 16 -1 19 -3 4 -6 -2 -5 -13z"/>
<path d="M390 2533 c0 -5 5 -15 10 -23 8 -12 10 -11 10 8 0 12 -4 22 -10 22
-5 0 -10 -3 -10 -7z"/>
<path d="M430 2460 c6 -11 13 -20 15 -20 3 0 5 9 5 20 0 11 -7 20 -15 20 -13
0 -14 -4 -5 -20z"/>
<path d="M394 2081 c-23 -10 -44 -26 -47 -36 -10 -24 -8 -112 2 -154 5 -20 15
-63 22 -96 16 -80 25 -94 64 -111 44 -18 81 -18 139 2 79 27 87 53 56 184 -6
25 -17 79 -25 120 -18 94 -35 110 -114 110 -33 0 -73 -8 -97 -19z m138 -28 c8
-10 20 -40 27 -68 7 -27 16 -66 21 -85 4 -19 11 -63 15 -97 6 -59 6 -62 -20
-79 -36 -24 -107 -24 -133 -1 -12 11 -22 36 -25 60 -3 23 -13 84 -23 135 -21
108 -17 121 42 139 56 16 79 15 96 -4z"/>
<path d="M480 1584 c-47 -20 -80 -53 -80 -79 0 -21 22 -84 60 -170 10 -22 21
-54 24 -70 8 -39 48 -83 83 -92 36 -8 132 12 163 35 14 11 26 31 28 46 3 25
-31 146 -49 171 -4 6 -14 35 -23 66 -8 31 -27 68 -40 82 -21 23 -33 27 -78 27
-29 -1 -69 -8 -88 -16z m113 -24 c12 0 57 -87 57 -111 1 -8 9 -32 20 -54 11
-22 19 -44 20 -48 0 -5 7 -24 16 -43 9 -19 14 -41 10 -49 -9 -24 -72 -46 -119
-43 l-41 3 -27 75 c-14 41 -35 95 -46 120 -34 76 -37 104 -14 124 22 20 78 36
99 30 8 -2 19 -4 25 -4z"/>
<path d="M714 1010 c-50 -20 -74 -48 -74 -87 0 -8 13 -43 29 -77 17 -33 43
-90 59 -126 40 -89 59 -110 107 -117 77 -10 185 41 185 87 0 11 -15 53 -34 94
-19 41 -37 85 -41 98 -14 48 -47 104 -72 122 -37 27 -99 30 -159 6z m122 -32
c29 -33 48 -66 69 -123 10 -27 29 -74 42 -103 29 -64 22 -82 -42 -107 -66 -25
-87 -12 -126 72 -17 38 -44 96 -60 130 -36 78 -36 96 -1 121 51 36 92 40 118
10z"/>
<path d="M3474 2133 c-55 -5 -82 -35 -93 -104 -5 -30 -14 -65 -19 -79 -20 -49
-36 -171 -25 -189 21 -34 72 -53 140 -53 80 0 114 20 126 78 4 21 16 75 27
119 10 44 22 101 25 127 7 46 6 47 -31 72 -42 27 -86 35 -150 29z m87 -43 c56
-16 56 -19 7 -225 -29 -124 -30 -125 -86 -125 -63 0 -92 21 -92 66 0 30 45
263 52 269 34 26 65 30 119 15z"/>
</g>
</svg>
