<?xml version="1.0" encoding="UTF-8"?>
<svg version="1.1" xmlns="http://www.w3.org/2000/svg" width="418" height="243">
<path d="M0 0 C-0.66 3.3 -1.32 6.6 -2 10 C-0.35 10 1.3 10 3 10 C3.185625 8.63875 3.185625 8.63875 3.375 7.25 C3.92109677 4.41029677 4.57263803 2.47409409 6 0 C7.65 0 9.3 0 11 0 C9.8905928 3.48670834 8.73662334 6.77484237 7 10 C7.99 10.66 8.98 11.32 10 12 C11.65 9.36 13.3 6.72 15 4 C16.32 4.66 17.64 5.32 19 6 C17.94496547 8.27238207 16.93701762 10.07464578 15.3125 12 C13.7374302 13.92161693 13.7374302 13.92161693 14.3125 16.25 C14.6528125 17.11625 14.6528125 17.11625 15 18 C17.55542423 16.8642559 19.43077828 15.65127473 21.625 13.875 C24 12 24 12 26 12 C26.5 14.625 26.5 14.625 26 18 C23.56775013 20.3682433 20.86733048 22.19511787 18 24 C18.495 25.98 18.495 25.98 19 28 C21.97 27.01 24.94 26.02 28 25 C26.90384615 31.57692308 26.90384615 31.57692308 25 34 C21.375 34.75 21.375 34.75 18 35 C18 36.32 18 37.64 18 39 C20.97 39 23.94 39 27 39 C26.7153924 42.41529114 26.20339329 43.78498424 23.8125 46.3125 C20.57283878 48.25629673 18.71198163 48.34530062 15 48 C15 48.99 15 49.98 15 51 C16.98 51.99 18.96 52.98 21 54 C21.33 52.68 21.66 51.36 22 50 C27.63495803 49.76053299 32.48930998 50.61890381 37.9375 52 C40.598125 52.66 43.25875 53.32 46 54 C46 63.24 46 72.48 46 82 C42.50595039 80.60238016 39.7782156 79.38630924 36.64453125 77.46875 C35.85755859 76.98792969 35.07058594 76.50710937 34.25976562 76.01171875 C33.04836914 75.26341797 33.04836914 75.26341797 31.8125 74.5 C30.99330078 74.00113281 30.17410156 73.50226563 29.33007812 72.98828125 C23.2633762 69.2633762 23.2633762 69.2633762 21 67 C21 65.68 21 64.36 21 63 C20.22914062 62.95101562 19.45828125 62.90203125 18.6640625 62.8515625 C17.66117188 62.77679688 16.65828125 62.70203125 15.625 62.625 C14.12839844 62.52058594 14.12839844 62.52058594 12.6015625 62.4140625 C10 62 10 62 8 60 C8.28875 60.721875 8.5775 61.44375 8.875 62.1875 C9.91666667 64.79166667 10.95833333 67.39583333 12 70 C8.14243493 72.15305957 5.44870215 73.39253254 1 73 C1.66 75.97 2.32 78.94 3 82 C4.98 81.505 4.98 81.505 7 81 C8.921875 82.109375 8.921875 82.109375 10.75 83.75 C11.36359375 84.28109375 11.9771875 84.8121875 12.609375 85.359375 C14 87 14 87 14 90 C12.25 91.21875 12.25 91.21875 10 92.5 C7.10097251 94.51094513 6.12835812 95.31479418 5.46875 98.8359375 C5.49712884 101.59577932 5.64939628 104.26334318 6 107 C6.66 107 7.32 107 8 107 C9.38011717 112.43421134 10.35111062 117.38223003 10 123 C9.67 123.33 9.34 123.66 9 124 C9.28469203 129.02499694 9.28469203 129.02499694 12 133 C12.4657363 135.55867474 12.83484248 138.04687908 13.125 140.625 C13.21136719 141.33140625 13.29773438 142.0378125 13.38671875 142.765625 C13.59881183 144.50950141 13.80040991 146.2546484 14 148 C13.34 148 12.68 148 12 148 C12.28094582 149.8141927 12.57506433 151.62635001 12.875 153.4375 C13.03742188 154.44683594 13.19984375 155.45617187 13.3671875 156.49609375 C13.57601562 157.32238281 13.78484375 158.14867187 14 159 C14.66 159.33 15.32 159.66 16 160 C16.44921875 163.125 16.44921875 163.125 16.6875 167 C16.77386719 168.27875 16.86023438 169.5575 16.94921875 170.875 C16.96597656 171.90625 16.98273438 172.9375 17 174 C16.67 174.33 16.34 174.66 16 175 C16.55976932 179.76209552 17.46163244 184.47990335 19.0625 189 C21.45962611 196.67080356 21.11537759 205.03894651 21 213 C18.03 213.33 15.06 213.66 12 214 C12 210.04 12 206.08 12 202 C9.95276119 207.11809703 9.98377692 208.81726228 11 214 C5.375 216.125 5.375 216.125 2 215 C2 212.03 2 209.06 2 206 C0.16308743 209.78187881 -0.15837626 211.94568308 1 216 C-0.32 215.67 -1.64 215.34 -3 215 C-3.66 215.99 -4.32 216.98 -5 218 C-5.99 218 -6.98 218 -8 218 C-7.95359375 217.03578125 -7.9071875 216.0715625 -7.859375 215.078125 C-7.82328125 213.81484375 -7.7871875 212.5515625 -7.75 211.25 C-7.70359375 209.99703125 -7.6571875 208.7440625 -7.609375 207.453125 C-7.69178449 203.92169502 -7.69178449 203.92169502 -10.015625 201.546875 C-10.67046875 201.03640625 -11.3253125 200.5259375 -12 200 C-11.98839844 200.78503906 -11.97679687 201.57007813 -11.96484375 202.37890625 C-11.91624493 208.03719775 -11.98705251 213.42878878 -13 219 C-14.65 219.33 -16.3 219.66 -18 220 C-18 218.02 -18 216.04 -18 214 C-18.350625 215.134375 -18.70125 216.26875 -19.0625 217.4375 C-19.66015625 219.37109375 -19.66015625 219.37109375 -21 221 C-23.32447597 221.39034221 -25.65882714 221.72711692 -28 222 C-27.40442081 208.7524527 -25.63655677 195.69275743 -23.875 182.55859375 C-23.56454723 180.21791215 -23.25449566 177.87717731 -22.94482422 175.53639221 C-22.29880711 170.66050689 -21.64971567 165.78504525 -20.99804688 160.90991211 C-20.16346068 154.66636089 -19.33397493 148.42214637 -18.50643921 142.17765713 C-17.71417564 136.20026327 -16.9198202 130.22314812 -16.125 124.24609375 C-15.97415955 123.11108366 -15.82331909 121.97607357 -15.66790771 120.80666924 C-15.24067246 117.59548886 -14.81199955 114.384504 -14.3828125 111.17358398 C-14.25706848 110.22754303 -14.13132446 109.28150208 -14.00177002 108.30679321 C-13.40543246 103.85698766 -12.77380019 99.42334269 -12 95 C-13.093125 95.020625 -14.18625 95.04125 -15.3125 95.0625 C-19 95 -19 95 -22 94 C-22.33 92.35 -22.66 90.7 -23 89 C-22.01 88.195625 -21.02 87.39125 -20 86.5625 C-19.01 85.716875 -18.02 84.87125 -17 84 C-17 83.67 -17 83.34 -17 83 C-17.89203125 82.90203125 -18.7840625 82.8040625 -19.703125 82.703125 C-20.87359375 82.55359375 -22.0440625 82.4040625 -23.25 82.25 C-24.41015625 82.11078125 -25.5703125 81.9715625 -26.765625 81.828125 C-30.41803035 80.89296807 -31.62717899 79.85587853 -34 77 C-34.886875 76.05125 -35.77375 75.1025 -36.6875 74.125 C-39.1309546 70.82303433 -39.4588497 68.96843554 -40 65 C-40.99 64.34 -41.98 63.68 -43 63 C-43 62.01 -43 61.02 -43 60 C-42.01 59.505 -42.01 59.505 -41 59 C-41.31049726 57.56206608 -41.6234776 56.1246682 -41.9375 54.6875 C-42.11152344 53.88699219 -42.28554688 53.08648437 -42.46484375 52.26171875 C-42.99886159 49.854599 -42.99886159 49.854599 -44 47 C-41.525 46.505 -41.525 46.505 -39 46 C-39.33 41.71 -39.66 37.42 -40 33 C-37.03 33.33 -34.06 33.66 -31 34 C-31.99 33.34 -32.98 32.68 -34 32 C-34.29296875 29.3984375 -34.29296875 29.3984375 -34.1875 26.375 C-34.16042969 25.37210938 -34.13335937 24.36921875 -34.10546875 23.3359375 C-34.07066406 22.56507812 -34.03585938 21.79421875 -34 21 C-30.65569263 21.72366315 -28.65737657 22.81715496 -26 25 C-25.34 24.01 -24.68 23.02 -24 22 C-24.66 21.34 -25.32 20.68 -26 20 C-25.9765625 17.6171875 -25.9765625 17.6171875 -25.625 14.875 C-25.51414062 13.96492187 -25.40328125 13.05484375 -25.2890625 12.1171875 C-25.19367187 11.41851562 -25.09828125 10.71984375 -25 10 C-24.34 10 -23.68 10 -23 10 C-21.68 12.64 -20.36 15.28 -19 18 C-17.68 17.34 -16.36 16.68 -15 16 C-15.33 15.34 -15.66 14.68 -16 14 C-16.40601504 5.60902256 -16.40601504 5.60902256 -14 2 C-13.34 2 -12.68 2 -12 2 C-11.505 6.455 -11.505 6.455 -11 11 C-9.35 11 -7.7 11 -6 11 C-6.0825 9.9275 -6.165 8.855 -6.25 7.75 C-6 4 -6 4 -4.125 1.5625 C-2 -0 -2 -0 0 0 Z M-3 13 C-3.66 16.3 -4.32 19.6 -5 23 C-4.01 23 -3.02 23 -2 23 C0.29045014 18.18790099 0.29045014 18.18790099 1 13 C-0.32 13 -1.64 13 -3 13 Z M5 13 C4.30300448 14.45381897 3.61766134 15.91322953 2.9375 17.375 C2.55464844 18.18710937 2.17179687 18.99921875 1.77734375 19.8359375 C1.39255859 20.90714844 1.39255859 20.90714844 1 22 C1.33 22.66 1.66 23.32 2 24 C3.00578589 22.71283353 4.00446798 21.42011342 5 20.125 C5.556875 19.40570312 6.11375 18.68640625 6.6875 17.9453125 C8.18643377 16.1147915 8.18643377 16.1147915 8 14 C7.01 13.67 6.02 13.34 5 13 Z M-16 18 C-16.66 18.66 -17.32 19.32 -18 20 C-17.63723355 22.82957829 -16.90305236 25.29084291 -16 28 C-15.01 27.67 -14.02 27.34 -13 27 C-13.33 24.03 -13.66 21.06 -14 18 C-14.66 18 -15.32 18 -16 18 Z M-23 25 C-23.33 26.32 -23.66 27.64 -24 29 C-21.32752366 31.34287418 -21.32752366 31.34287418 -18 32 C-19.24976756 28.34683329 -19.67098753 27.21934164 -23 25 Z M-7 26 C-7 26.66 -7 27.32 -7 28 C-4.69 28.66 -2.38 29.32 0 30 C0.33 29.01 0.66 28.02 1 27 C-1.70879335 25.64560332 -4.00933268 25.93498549 -7 26 Z M9.375 29 C8.42753906 29.8353125 8.42753906 29.8353125 7.4609375 30.6875 C6.97882813 31.120625 6.49671875 31.55375 6 32 C9.07242053 33.40096246 9.07242053 33.40096246 12.1875 31.5625 C13.115625 31.046875 14.04375 30.53125 15 30 C15 28.68 15 27.36 15 26 C12.22957891 26 11.41835044 27.1836885 9.375 29 Z M-12 28 C-13.22149091 29.25957096 -14.40279315 30.55832273 -15.5625 31.875 C-16.20316406 32.59429687 -16.84382813 33.31359375 -17.50390625 34.0546875 C-19.20321128 35.85521342 -19.20321128 35.85521342 -19 38 C-16.60280568 38.67958603 -16.60280568 38.67958603 -14 39 C-11.60236815 36.60236815 -11.65719414 35.66726502 -11.375 32.375 C-11.26285156 31.14910156 -11.26285156 31.14910156 -11.1484375 29.8984375 C-11.09945312 29.27195312 -11.05046875 28.64546875 -11 28 C-11.33 28 -11.66 28 -12 28 Z M-9 30 C-9 31.65 -9 33.3 -9 35 C-8.67 35 -8.34 35 -8 35 C-8 33.35 -8 31.7 -8 30 C-8.33 30 -8.66 30 -9 30 Z M3 32 C0.5705484 35.6441774 0.83820425 37.71241272 1 42 C1.66 42 2.32 42 3 42 C3.33 38.7 3.66 35.4 4 32 C3.67 32 3.34 32 3 32 Z M6 38 C6 38.66 6 39.32 6 40 C8.64 40 11.28 40 14 40 C14.33 39.34 14.66 38.68 15 38 C10.46859347 37.06619039 10.46859347 37.06619039 6 38 Z M-12 39 C-12 40.32 -12 41.64 -12 43 C-11.34 42.67 -10.68 42.34 -10 42 C-10 41.01 -10 40.02 -10 39 C-10.66 39 -11.32 39 -12 39 Z M-20 40 C-21.25949049 41.03406673 -21.25949049 41.03406673 -21.09765625 43.28515625 C-21.08605469 44.20167969 -21.07445313 45.11820313 -21.0625 46.0625 C-21.05347656 46.98160156 -21.04445313 47.90070312 -21.03515625 48.84765625 C-21.02355469 49.55792969 -21.01195313 50.26820312 -21 51 C-18.25722422 47.80009492 -16.3697164 44.99500618 -15 41 C-16.65614657 40.61781233 -18.32457024 40.28604898 -20 40 Z M-14 45 C-15.32 46.65 -16.64 48.3 -18 50 C-17.67 50.66 -17.34 51.32 -17 52 C-15.68 50.68 -14.36 49.36 -13 48 C-13.33 47.01 -13.66 46.02 -14 45 Z M-13 50 C-14.69088222 51.97956942 -16.35830472 53.97945196 -18 56 C-16.93354885 57.29633621 -16.93354885 57.29633621 -14.4375 57.0625 C-13.633125 57.041875 -12.82875 57.02125 -12 57 C-12 54.69 -12 52.38 -12 50 C-12.33 50 -12.66 50 -13 50 Z M-9 54 C-9.33 54.66 -9.66 55.32 -10 56 C-9.34 56 -8.68 56 -8 56 C-8.33 55.34 -8.66 54.68 -9 54 Z M-4 59 C-3 61 -3 61 -3 61 Z M-11 63 C-11 65.31 -11 67.62 -11 70 C-10.67 70 -10.34 70 -10 70 C-10 67.69 -10 65.38 -10 63 C-10.33 63 -10.66 63 -11 63 Z M-11 73 C-11.33 75.64 -11.66 78.28 -12 81 C-11.01 81 -10.02 81 -9 81 C-9.33 78.36 -9.66 75.72 -10 73 C-10.33 73 -10.66 73 -11 73 Z M1 107 C2 110 2 110 2 110 Z M2 113 C3 116 3 116 3 116 Z M-3 116 C-3 118.64 -3 121.28 -3 124 C-2.67 124 -2.34 124 -2 124 C-2 121.36 -2 118.72 -2 116 C-2.33 116 -2.66 116 -3 116 Z M-7 119 C-7 120.65 -7 122.3 -7 124 C-6.67 124 -6.34 124 -6 124 C-6 122.35 -6 120.7 -6 119 C-6.33 119 -6.66 119 -7 119 Z M-4 128 C-4 128.66 -4 129.32 -4 130 C-3.34 130 -2.68 130 -2 130 C-2 129.34 -2 128.68 -2 128 C-2.66 128 -3.32 128 -4 128 Z M-4 132 C-3.34 134.97 -2.68 137.94 -2 141 C-1.67 141 -1.34 141 -1 141 C-1 138.36 -1 135.72 -1 133 C-1.99 132.67 -2.98 132.34 -4 132 Z M-7 133 C-8.53266582 136.06533164 -8.10276471 139.26754272 -8.0625 142.625 C-8.05798828 143.33140625 -8.05347656 144.0378125 -8.04882812 144.765625 C-8.03703875 146.51045275 -8.01910324 148.255237 -8 150 C-7.67 150 -7.34 150 -7 150 C-5.77482692 144.33357449 -5.90771133 138.76291482 -6 133 C-6.33 133 -6.66 133 -7 133 Z M4 136 C4 138.31 4 140.62 4 143 C4.66 142.67 5.32 142.34 6 142 C6 140.02 6 138.04 6 136 C5.34 136 4.68 136 4 136 Z M-4 142 C-4 145.96 -4 149.92 -4 154 C-1.89979635 149.87576338 -1.89979635 149.87576338 -2.375 145.75 C-2.58125 144.5125 -2.7875 143.275 -3 142 C-3.33 142 -3.66 142 -4 142 Z M-13 146 C-12 149 -12 149 -12 149 Z M-1 153 C-4.4796836 162.46678626 -3.75847781 168.71611058 0 178 C0.33 178 0.66 178 1 178 C1.12190678 169.60197746 0.84327749 161.35748222 0 153 C-0.33 153 -0.66 153 -1 153 Z M4 153 C5 156 5 156 5 156 Z M-9 158 C-9 159.65 -9 161.3 -9 163 C-8.34 163 -7.68 163 -7 163 C-7.33 161.35 -7.66 159.7 -8 158 C-8.33 158 -8.66 158 -9 158 Z M-16 160 C-16.33 162.64 -16.66 165.28 -17 168 C-16.01 167.67 -15.02 167.34 -14 167 C-14.33 164.69 -14.66 162.38 -15 160 C-15.33 160 -15.66 160 -16 160 Z M-10 165 C-9 167 -9 167 -9 167 Z M7 165 C8 168 8 168 8 168 Z M8 168 C9 170 9 170 9 170 Z M-10 169 C-9.67 170.32 -9.34 171.64 -9 173 C-8.67 171.68 -8.34 170.36 -8 169 C-8.66 169 -9.32 169 -10 169 Z M-16 170 C-16.33 171.32 -16.66 172.64 -17 174 C-16.34 172.68 -15.68 171.36 -15 170 C-15.33 170 -15.66 170 -16 170 Z M10 173 C11 177 11 177 11 177 Z M-4 174 C-4 178.95 -4 183.9 -4 189 C-2.35 189 -0.7 189 1 189 C0.54901762 187.06077578 0.08894441 185.12366406 -0.375 183.1875 C-0.63023438 182.10855469 -0.88546875 181.02960938 -1.1484375 179.91796875 C-1.88732881 176.84466657 -1.88732881 176.84466657 -4 174 Z M-18 175 C-17 177 -17 177 -17 177 Z M-8 175 C-8.50692692 176.5811292 -9.00526443 178.16501383 -9.5 179.75 C-9.7784375 180.63171875 -10.056875 181.5134375 -10.34375 182.421875 C-11.16445285 185.20267529 -11.16445285 185.20267529 -11 189 C-9.68 189 -8.36 189 -7 189 C-7 184.38 -7 179.76 -7 175 C-7.33 175 -7.66 175 -8 175 Z M7 176 C7 180.62 7 185.24 7 190 C8.65 190 10.3 190 12 190 C11.21824485 185.15311808 9.60155722 180.6233633 8 176 C7.67 176 7.34 176 7 176 Z M-16 179 C-18.66590937 183.55426184 -19.31563182 186.73946963 -19 192 C-17.68 191.34 -16.36 190.68 -15 190 C-15 186.37 -15 182.74 -15 179 C-15.33 179 -15.66 179 -16 179 Z M1 180 C2 182 2 182 2 182 Z M-9 194 C-8.67 194.99 -8.34 195.98 -8 197 C-7.67 196.01 -7.34 195.02 -7 194 C-7.66 194 -8.32 194 -9 194 Z M-4 194 C-4 194.99 -4 195.98 -4 197 C-1.69 197.33 0.62 197.66 3 198 C2.67 196.68 2.34 195.36 2 194 C0.02 194 -1.96 194 -4 194 Z M-21 200 C-20.34 201.32 -19.68 202.64 -19 204 C-18.67 202.68 -18.34 201.36 -18 200 C-18.99 200 -19.98 200 -21 200 Z M7 200 C7.66 200.66 8.32 201.32 9 202 C9 201.34 9 200.68 9 200 C8.34 200 7.68 200 7 200 Z M-4 201 C-3.67 203.31 -3.34 205.62 -3 208 C-0.02324541 204.90672105 -0.02324541 204.90672105 1 201 C-0.65 201 -2.3 201 -4 201 Z M-22 206 C-21.67 207.32 -21.34 208.64 -21 210 C-20.67 209.34 -20.34 208.68 -20 208 C-20.66 207.34 -21.32 206.68 -22 206 Z M-5 210 C-4 212 -4 212 -4 212 Z " fill="#2A2A2A" transform="translate(89,0)"/>
<path d="M0 0 C2.72012047 0.00008075 5.44007068 -0.00679406 8.16015625 -0.02050781 C32.18889354 -0.13953193 55.91252417 1.10518205 79.73193359 4.31030273 C80.51331696 4.41445496 81.29470032 4.51860718 82.09976196 4.62591553 C121.9859282 10.00073517 161.4284913 18.70288186 199.85693359 30.68530273 C200.87601807 30.99918945 201.89510254 31.31307617 202.94506836 31.63647461 C203.84668701 31.93102539 204.74830566 32.22557617 205.67724609 32.52905273 C206.44568848 32.77848633 207.21413086 33.02791992 208.00585938 33.28491211 C209.73193359 34.18530273 209.73193359 34.18530273 210.73193359 37.18530273 C200.58140977 36.60646356 190.60825288 35.25426008 180.54968262 33.83093262 C153.69535403 30.0604141 126.75320002 27.42540772 99.73193359 25.18530273 C98.91760864 25.11762695 98.10328369 25.04995117 97.26428223 24.98022461 C58.26918435 21.78131756 18.84165541 21.70881759 -20.26806641 22.18530273 C-20.98559082 22.1939032 -21.70311523 22.20250366 -22.44238281 22.21136475 C-77.16064111 22.91221819 -131.71273869 27.81615247 -185.81030273 35.94995117 C-186.80401886 36.09843002 -187.79773499 36.24690887 -188.82156372 36.39988708 C-190.6711575 36.67750448 -192.5201507 36.95916721 -194.36837769 37.2457428 C-198.71505156 37.90055557 -202.85586785 38.34097461 -207.26806641 38.18530273 C-207.26806641 37.52530273 -207.26806641 36.86530273 -207.26806641 36.18530273 C-176.03033957 26.02031527 -144.50617084 17.57044484 -112.26806641 11.18530273 C-110.6624585 10.86118408 -110.6624585 10.86118408 -109.02441406 10.53051758 C-93.6030009 7.45274874 -78.12441492 5.30102255 -62.51806641 3.43530273 C-61.1843399 3.27479935 -61.1843399 3.27479935 -59.82366943 3.11105347 C-39.84005668 0.72747261 -20.11846666 -0.00293667 0 0 Z " fill="#2A2A2A" transform="translate(207.26806640625,204.814697265625)"/>
<path d="M0 0 C14.19 0 28.38 0 43 0 C43.94238698 2.82716095 44.13465647 4.63176123 44.125 7.5625 C44.12886719 8.74005859 44.12886719 8.74005859 44.1328125 9.94140625 C44 12 44 12 43 14 C34.42 14 25.84 14 17 14 C17 18.29 17 22.58 17 27 C19.36478516 26.98259766 19.36478516 26.98259766 21.77734375 26.96484375 C23.83072799 26.95546757 25.8841135 26.94636718 27.9375 26.9375 C28.97841797 26.92912109 30.01933594 26.92074219 31.09179688 26.91210938 C32.08115234 26.90888672 33.07050781 26.90566406 34.08984375 26.90234375 C35.46450806 26.89448853 35.46450806 26.89448853 36.86694336 26.88647461 C39 27 39 27 40 28 C40.07258946 30.18639453 40.08373783 32.37500389 40.0625 34.5625 C40.05347656 35.76003906 40.04445313 36.95757812 40.03515625 38.19140625 C40.02355469 39.11824219 40.01195312 40.04507813 40 41 C37.54724859 42.2263757 35.9494219 42.11415314 33.2109375 42.09765625 C32.26992188 42.09443359 31.32890625 42.09121094 30.359375 42.08789062 C29.37453125 42.07951172 28.3896875 42.07113281 27.375 42.0625 C25.88613281 42.05573242 25.88613281 42.05573242 24.3671875 42.04882812 C21.9113984 42.03702145 19.45572896 42.020554 17 42 C17.14029419 44.1462026 17.28738164 46.29196218 17.4375 48.4375 C17.51871094 49.63246094 17.59992188 50.82742187 17.68359375 52.05859375 C17.67656114 54.88570244 17.67656114 54.88570244 19 56 C20.84037134 56.14572736 22.68590714 56.22727918 24.53125 56.28125 C25.65144531 56.31863281 26.77164062 56.35601562 27.92578125 56.39453125 C29.10527344 56.42933594 30.28476562 56.46414062 31.5 56.5 C33.82304966 56.56854901 36.14598222 56.64123531 38.46875 56.71875 C39.50451172 56.74904297 40.54027344 56.77933594 41.60742188 56.81054688 C44 57 44 57 45 58 C45.09873816 59.99799572 45.12971799 61.99957158 45.125 64 C45.12886719 65.6396875 45.12886719 65.6396875 45.1328125 67.3125 C45 70 45 70 44 71 C36.17505981 71.43183997 28.53495999 70.34185088 20.81396484 69.19335938 C19.3456158 68.97980515 17.87544558 68.77844276 16.40380859 68.58886719 C14.25674648 68.31210303 12.11748277 68.00016267 9.9765625 67.6796875 C8.70893066 67.50163574 7.44129883 67.32358398 6.13525391 67.14013672 C3 66 3 66 1.32533264 63.31555176 C-0.06031799 59.84910397 -0.36405512 57.52070871 -0.34057617 53.81103516 C-0.34034958 52.61024323 -0.34012299 51.40945129 -0.33988953 50.17227173 C-0.32440567 48.89081268 -0.30892181 47.60935364 -0.29296875 46.2890625 C-0.28736685 44.95242796 -0.28309956 43.61578722 -0.28010559 42.27914429 C-0.26870334 38.77735096 -0.23927697 35.27593658 -0.20599365 31.77429199 C-0.17519236 28.19463315 -0.16141399 24.61491068 -0.14648438 21.03515625 C-0.11599719 14.02310388 -0.05726752 7.01208929 0 0 Z " fill="#2A2A2A" transform="translate(273,141)"/>
<path d="M0 0 C1.08384727 0.00848969 1.08384727 0.00848969 2.18959045 0.01715088 C4.47215211 0.03934243 6.75307823 0.08949951 9.03515625 0.140625 C10.59307611 0.16071256 12.15102085 0.17895936 13.70898438 0.1953125 C17.50582775 0.2391497 21.30146582 0.30805079 25.09765625 0.390625 C25.12451037 2.70306292 25.14398466 5.0155877 25.16015625 7.328125 C25.17175781 8.61589844 25.18335938 9.90367187 25.1953125 11.23046875 C25.09765625 14.390625 25.09765625 14.390625 24.09765625 15.390625 C22.40337318 15.53593487 20.70354883 15.61779023 19.00390625 15.671875 C17.97394531 15.70925781 16.94398438 15.74664062 15.8828125 15.78515625 C13.69270833 15.85546875 11.50260417 15.92578125 9.3125 15.99609375 C8.28253906 16.03347656 7.25257813 16.07085937 6.19140625 16.109375 C5.23943359 16.13966797 4.28746094 16.16996094 3.30664062 16.20117188 C1.1241031 16.14947902 1.1241031 16.14947902 0.09765625 17.390625 C0.05672688 19.72359933 0.05523902 22.05767725 0.09765625 24.390625 C5.16458564 26.16405029 10.09934825 27.62892463 15.34765625 28.765625 C20.44405176 29.99914748 23.01657663 31.14086 26.09765625 35.390625 C27.62430112 39.9705596 27.28208335 44.53133528 27.28515625 49.328125 C27.29740234 50.33037109 27.30964844 51.33261719 27.32226562 52.36523438 C27.32419922 53.33138672 27.32613281 54.29753906 27.328125 55.29296875 C27.33223389 56.17460693 27.33634277 57.05624512 27.34057617 57.96459961 C27.072075 60.64610326 26.55663704 62.13277756 25.09765625 64.390625 C23.32081604 65.0614624 23.32081604 65.0614624 21.15454102 65.30371094 C20.34352432 65.40351257 19.53250763 65.50331421 18.69691467 65.60614014 C17.81982346 65.69486389 16.94273224 65.78358765 16.0390625 65.875 C15.13896957 65.98032043 14.23887665 66.08564087 13.31150818 66.19415283 C10.4293933 66.52700893 7.54515277 66.83385858 4.66015625 67.140625 C2.71921168 67.36162444 0.77845273 67.58426077 -1.16210938 67.80859375 C-4.71699625 68.21392072 -8.27225051 68.61411962 -11.82983398 68.99511719 C-12.54550034 69.07187683 -13.26116669 69.14863647 -13.9985199 69.22772217 C-15.90234375 69.390625 -15.90234375 69.390625 -18.90234375 69.390625 C-18.92920928 67.41153102 -18.9486775 65.43233529 -18.96484375 63.453125 C-18.97644531 62.35097656 -18.98804687 61.24882812 -19 60.11328125 C-18.90234375 57.390625 -18.90234375 57.390625 -17.90234375 56.390625 C-16.06197241 56.24489764 -14.21643661 56.16334582 -12.37109375 56.109375 C-11.25089844 56.07199219 -10.13070312 56.03460938 -8.9765625 55.99609375 C-6.59375 55.92578125 -4.2109375 55.85546875 -1.828125 55.78515625 C-0.70792969 55.74777344 0.41226563 55.71039063 1.56640625 55.671875 C2.60216797 55.64158203 3.63792969 55.61128906 4.70507812 55.58007812 C7.0497724 55.6548701 7.0497724 55.6548701 8.09765625 54.390625 C8.16971136 52.70453534 8.18151693 51.01561841 8.16015625 49.328125 C8.15113281 48.40902344 8.14210937 47.48992187 8.1328125 46.54296875 C8.12121094 45.83269531 8.10960937 45.12242187 8.09765625 44.390625 C7.41960937 44.28105469 6.7415625 44.17148438 6.04296875 44.05859375 C-12.76432773 40.85458064 -12.76432773 40.85458064 -17.90234375 34.390625 C-19.82318512 30.54894226 -19.17420685 25.86686311 -19.21484375 21.640625 C-19.24384766 20.650625 -19.27285156 19.660625 -19.30273438 18.640625 C-19.35397948 12.74349588 -19.15307424 8.86796956 -14.90234375 4.390625 C-9.83562189 0.96474997 -6.16277233 -0.18554797 0 0 Z " fill="#2A2A2A" transform="translate(144.90234375,140.609375)"/>
<path d="M0 0 C14.19 0 28.38 0 43 0 C43 4.62 43 9.24 43 14 C34.42 14 25.84 14 17 14 C17 18.29 17 22.58 17 27 C24.26 27 31.52 27 39 27 C39.09765625 37.83984375 39.09765625 37.83984375 39 41 C38 42 38 42 35.95874023 42.11352539 C34.64691772 42.10567017 34.64691772 42.10567017 33.30859375 42.09765625 C32.36435547 42.09443359 31.42011719 42.09121094 30.44726562 42.08789062 C29.45404297 42.07951172 28.46082031 42.07113281 27.4375 42.0625 C26.44041016 42.05798828 25.44332031 42.05347656 24.41601562 42.04882812 C21.94398513 42.03700023 19.47198528 42.01906415 17 42 C17 46.62 17 51.24 17 56 C30.365 56.495 30.365 56.495 44 57 C44 59.64 44 62.28 44 65 C29.66339364 64.39321114 15.3304804 63.73771367 1 63 C-0.35144654 60.29710692 -0.11975165 58.19930194 -0.11352539 55.17333984 C-0.11341209 53.34166763 -0.11341209 53.34166763 -0.11329651 51.47299194 C-0.10818952 50.13564005 -0.10297352 48.79828857 -0.09765625 47.4609375 C-0.0957914 46.09616141 -0.09436781 44.73138466 -0.09336853 43.36660767 C-0.08954863 39.77284907 -0.07972283 36.17913083 -0.06866455 32.58538818 C-0.05843911 28.91891028 -0.05381373 25.25242566 -0.04882812 21.5859375 C-0.03863064 14.39058935 -0.01905773 7.19535204 0 0 Z " fill="#2A2A2A" transform="translate(226,141)"/>
<path d="M0 0 C0.83265381 0.00523682 1.66530762 0.01047363 2.52319336 0.01586914 C3.42231445 0.0190918 4.32143555 0.02231445 5.24780273 0.02563477 C6.66609375 0.03820312 6.66609375 0.03820312 8.11303711 0.05102539 C9.06243164 0.05553711 10.01182617 0.06004883 10.98999023 0.06469727 C13.34356776 0.07652429 15.69702188 0.09300514 18.05053711 0.11352539 C19.04017948 3.0824525 19.20327438 5.12502447 19.25585938 8.22753906 C19.2758046 9.26839157 19.29574982 10.30924408 19.31629944 11.38163757 C19.33301193 12.50359024 19.34972443 13.62554291 19.36694336 14.78149414 C19.38772446 15.93144363 19.40850555 17.08139313 19.42991638 18.26618958 C19.49537053 21.94440664 19.55427785 25.62269587 19.61303711 29.30102539 C19.65622624 31.79256935 19.69984066 34.28410598 19.74389648 36.77563477 C19.85104772 42.8881884 19.95282194 49.00081403 20.05053711 55.11352539 C21.31498657 55.15110962 21.31498657 55.15110962 22.60498047 55.18945312 C25.72295385 55.28440694 28.84075214 55.38364987 31.95849609 55.48583984 C33.30967858 55.52923762 34.66091764 55.57090909 36.01220703 55.61083984 C37.95090412 55.66842491 39.88939987 55.73266837 41.82788086 55.79711914 C42.99569092 55.83377686 44.16350098 55.87043457 45.36669922 55.90820312 C48.05053711 56.11352539 48.05053711 56.11352539 49.05053711 57.11352539 C49.12325452 59.46666094 49.13424579 61.82186208 49.11303711 64.17602539 C49.10401367 65.46637695 49.09499023 66.75672852 49.08569336 68.08618164 C49.0740918 69.08520508 49.06249023 70.08422852 49.05053711 71.11352539 C43.50048862 71.23775168 37.95126129 71.32815856 32.40014648 71.38818359 C30.51458628 71.41322316 28.62912213 71.44726538 26.74389648 71.49072266 C24.02295147 71.55184325 21.30329684 71.57984032 18.58178711 71.60180664 C17.74812622 71.62761307 16.91446533 71.65341949 16.05554199 71.68000793 C9.93824802 71.6828949 5.60370038 70.30889514 1.05053711 66.11352539 C-4.06910993 59.95806282 -3.48605711 52.5088269 -3.37524414 44.89868164 C-3.37195602 43.64719833 -3.36866791 42.39571503 -3.36528015 41.10630798 C-3.35224588 37.80368577 -3.32137098 34.50185957 -3.28240967 31.19946289 C-3.25504998 28.49191549 -3.24657659 25.78445494 -3.23884296 23.07679081 C-3.22890057 19.85070601 -3.20866315 16.62471156 -3.18774414 13.39868164 C-3.18035721 12.18213394 -3.17297028 10.96558624 -3.1653595 9.71217346 C-3.15252426 8.59688766 -3.13968903 7.48160187 -3.12646484 6.33251953 C-3.11662064 5.3462709 -3.10677643 4.36002228 -3.09663391 3.34388733 C-2.91046545 0.52252305 -2.82392941 0.16444924 0 0 Z " fill="#2A2A2A" transform="translate(322.949462890625,140.886474609375)"/>
<path d="M0 0 C0.83272934 0.00222061 1.66545868 0.00444122 2.52342224 0.00672913 C3.46432205 0.00680466 4.40522186 0.00688019 5.37463379 0.00695801 C6.39754013 0.01211929 7.42044647 0.01728058 8.47434998 0.02259827 C9.51614914 0.02401321 10.5579483 0.02542816 11.63131714 0.02688599 C14.97355467 0.03250372 18.31572629 0.04505922 21.65794373 0.05775452 C23.91770839 0.06276723 26.17747409 0.06733053 28.4372406 0.07142639 C33.98999763 0.08247891 39.54271597 0.09923428 45.09544373 0.12025452 C45.12229784 2.43269244 45.14177214 4.74521722 45.15794373 7.05775452 C45.16954529 8.34552795 45.18114685 9.63330139 45.19309998 10.96009827 C45.09544373 14.12025452 45.09544373 14.12025452 44.09544373 15.12025452 C39.47544373 15.12025452 34.85544373 15.12025452 30.09544373 15.12025452 C30.09544373 30.96025452 30.09544373 46.80025452 30.09544373 63.12025452 C24.15544373 63.12025452 18.21544373 63.12025452 12.09544373 63.12025452 C12.09544373 47.28025452 12.09544373 31.44025452 12.09544373 15.12025452 C7.47544373 15.12025452 2.85544373 15.12025452 -1.90455627 15.12025452 C-2.90455627 14.12025452 -2.90455627 14.12025452 -3.03736877 11.21400452 C-3.03479065 10.02806702 -3.03221252 8.84212952 -3.02955627 7.62025452 C-3.0321344 6.43431702 -3.03471252 5.24837952 -3.03736877 4.02650452 C-2.86161891 0.18068387 -2.86161891 0.18068387 0 0 Z " fill="#2A2A2A" transform="translate(177.90455627441406,140.87974548339844)"/>
<path d="M0 0 C1.20527344 -0.01933594 2.41054688 -0.03867188 3.65234375 -0.05859375 C7.62086488 0.51872834 9.2415388 1.64770964 12.0625 4.4375 C14.16617662 8.64485325 13.37132657 14.07536084 13.41259766 18.70385742 C13.42913597 20.06275586 13.45639921 21.42156805 13.49462891 22.7800293 C13.54959607 24.74474686 13.56816889 26.71037525 13.5859375 28.67578125 C13.60575684 29.85180908 13.62557617 31.02783691 13.64599609 32.23950195 C12.8863341 36.4030218 11.35410885 37.85963741 8.0625 40.4375 C5.14831227 40.94509417 2.9519271 41.14246569 0.0625 41.0625 C-0.63617188 41.08183594 -1.33484375 41.10117188 -2.0546875 41.12109375 C-5.99206698 41.08394866 -7.77795536 40.56522058 -10.875 38.0859375 C-15.00790944 32.77890605 -14.15721673 27.00526595 -14.1875 20.5625 C-14.208125 19.47324219 -14.22875 18.38398437 -14.25 17.26171875 C-14.25515625 16.20855469 -14.2603125 15.15539062 -14.265625 14.0703125 C-14.2749707 13.11012207 -14.28431641 12.14993164 -14.29394531 11.16064453 C-13.76767651 7.14009508 -11.99114666 4.50991987 -9.18359375 1.65234375 C-6.05375908 -0.04048857 -3.54093059 0.00377901 0 0 Z M-1.9375 9.4375 C-3.15393292 10.43233202 -3.15393292 10.43233202 -3.05102539 12.38696289 C-3.04578857 13.2196167 -3.04055176 14.05227051 -3.03515625 14.91015625 C-3.03193359 15.80927734 -3.02871094 16.70839844 -3.02539062 17.63476562 C-3.01701172 18.58029297 -3.00863281 19.52582031 -3 20.5 C-2.99548828 21.44939453 -2.99097656 22.39878906 -2.98632812 23.37695312 C-2.9745011 25.73053065 -2.95802025 28.08398477 -2.9375 30.4375 C-1.2875 30.7675 0.3625 31.0975 2.0625 31.4375 C2.0625 24.1775 2.0625 16.9175 2.0625 9.4375 C0.7425 9.4375 -0.5775 9.4375 -1.9375 9.4375 Z " fill="#2A2A2A" transform="translate(284.9375,93.5625)"/>
<path d="M0 0 C1.258125 -0.02578125 2.51625 -0.0515625 3.8125 -0.078125 C4.864375 0.03015625 5.91625 0.1384375 7 0.25 C9.27025871 3.65538806 9.73244595 6.1065292 10.5078125 10.11328125 C10.63815887 10.78288376 10.76850525 11.45248627 10.90280151 12.14237976 C11.17664079 13.55806724 11.44708083 14.9744159 11.71435547 16.39135742 C12.12188227 18.54601606 12.54251623 20.69780877 12.96484375 22.84960938 C13.22995871 24.22901468 13.49430642 25.6085677 13.7578125 26.98828125 C13.9964502 28.23649658 14.23508789 29.48471191 14.48095703 30.77075195 C14.96216369 33.99637569 15.09922715 36.99578628 15 40.25 C11.7 40.25 8.4 40.25 5 40.25 C3.50178941 36.87902617 3 35.04557881 3 31.25 C0.69 31.25 -1.62 31.25 -4 31.25 C-3.979375 32.36375 -3.95875 33.4775 -3.9375 34.625 C-4 38.25 -4 38.25 -5 40.25 C-8.63 40.25 -12.26 40.25 -16 40.25 C-14.83926548 31.06964513 -13.26773584 22.0188476 -11.5 12.9375 C-11.28641846 11.80965088 -11.07283691 10.68180176 -10.8527832 9.51977539 C-10.64355225 8.4652417 -10.43432129 7.41070801 -10.21875 6.32421875 C-10.03248047 5.37119873 -9.84621094 4.41817871 -9.65429688 3.4362793 C-9.43837891 2.71480713 -9.22246094 1.99333496 -9 1.25 C-6.03144127 -0.23427936 -3.30088341 0.04058463 0 0 Z M-2 14.25 C-2.33 17.22 -2.66 20.19 -3 23.25 C-1.68 22.92 -0.36 22.59 1 22.25 C0.34 19.61 -0.32 16.97 -1 14.25 C-1.33 14.25 -1.66 14.25 -2 14.25 Z " fill="#2A2A2A" transform="translate(226,93.75)"/>
<path d="M0 0 C1.258125 -0.02578125 2.51625 -0.0515625 3.8125 -0.078125 C4.864375 0.03015625 5.91625 0.1384375 7 0.25 C9.27025871 3.65538806 9.73244595 6.1065292 10.5078125 10.11328125 C10.63815887 10.78288376 10.76850525 11.45248627 10.90280151 12.14237976 C11.17664079 13.55806724 11.44708083 14.9744159 11.71435547 16.39135742 C12.12188227 18.54601606 12.54251623 20.69780877 12.96484375 22.84960938 C13.22995871 24.22901468 13.49430642 25.6085677 13.7578125 26.98828125 C13.9964502 28.23649658 14.23508789 29.48471191 14.48095703 30.77075195 C14.96216369 33.99637569 15.09922715 36.99578628 15 40.25 C11.7 40.25 8.4 40.25 5 40.25 C3 34.625 3 34.625 3 31.25 C0.69 31.25 -1.62 31.25 -4 31.25 C-3.979375 32.36375 -3.95875 33.4775 -3.9375 34.625 C-4 38.25 -4 38.25 -5 40.25 C-8.63 40.25 -12.26 40.25 -16 40.25 C-14.67409672 31.29830104 -13.17873317 22.39219875 -11.5 13.5 C-11.28730469 12.32695313 -11.07460937 11.15390625 -10.85546875 9.9453125 C-10.64535156 8.83414063 -10.43523437 7.72296875 -10.21875 6.578125 C-10.03248047 5.5768457 -9.84621094 4.57556641 -9.65429688 3.54394531 C-9.33041992 2.40844238 -9.33041992 2.40844238 -9 1.25 C-6.03144127 -0.23427936 -3.30088341 0.04058463 0 0 Z M-2 15.25 C-2.33 17.89 -2.66 20.53 -3 23.25 C-1.68 23.25 -0.36 23.25 1 23.25 C0.74438677 20.9068787 0.40729228 18.57156597 0 16.25 C-0.66 15.92 -1.32 15.59 -2 15.25 Z " fill="#2A2A2A" transform="translate(167,93.75)"/>
<path d="M0 0 C0.85142578 -0.03738281 1.70285156 -0.07476562 2.58007812 -0.11328125 C6.91151525 -0.17357968 9.89643563 -0.05052363 13.36328125 2.7109375 C16.72661279 6.36929812 16.96712454 8.95018254 17 13.75 C17.01417969 14.68585938 17.02835938 15.62171875 17.04296875 16.5859375 C16.72916282 20.38352108 15.80124004 23.26761115 13.25 26.125 C9.52806925 28.03368244 5.9702726 28.06928143 1.8125 28.375 C1.4825 32.335 1.1525 36.295 0.8125 40.375 C-2.8175 40.375 -6.4475 40.375 -10.1875 40.375 C-10.21214775 34.83911467 -10.23033496 29.303261 -10.24243164 23.76733398 C-10.24747244 21.8825627 -10.25430498 19.99779535 -10.26293945 18.11303711 C-10.27501617 15.40998364 -10.28073068 12.70698169 -10.28515625 10.00390625 C-10.29031754 9.15599014 -10.29547882 8.30807404 -10.30079651 7.4344635 C-10.30099195 5.41428932 -10.24956211 3.39422066 -10.1875 1.375 C-7.95096867 -0.86153133 -2.99971025 0.04884798 0 0 Z M0.8125 9.375 C0.8125 12.675 0.8125 15.975 0.8125 19.375 C2.4625 19.045 4.1125 18.715 5.8125 18.375 C5.8125 15.735 5.8125 13.095 5.8125 10.375 C4.1625 10.045 2.5125 9.715 0.8125 9.375 Z " fill="#2A2A2A" transform="translate(134.1875,93.625)"/>
<path d="M0 0 C0.85142578 -0.03738281 1.70285156 -0.07476562 2.58007812 -0.11328125 C6.68185765 -0.17038259 9.93753977 -0.05032185 13.3828125 2.33203125 C16.6681757 6.44665815 16.67768722 9.31762881 16.5 14.4375 C16.51482422 15.23994141 16.52964844 16.04238281 16.54492188 16.86914062 C16.4873121 20.95265734 16.35984079 22.76186388 13.5703125 25.88671875 C9.51816359 28.07350166 6.38155542 28.10222057 1.8125 28.375 C1.4825 32.335 1.1525 36.295 0.8125 40.375 C-2.8175 40.375 -6.4475 40.375 -10.1875 40.375 C-10.21214775 34.83911467 -10.23033496 29.303261 -10.24243164 23.76733398 C-10.24747244 21.8825627 -10.25430498 19.99779535 -10.26293945 18.11303711 C-10.27501617 15.40998364 -10.28073068 12.70698169 -10.28515625 10.00390625 C-10.29031754 9.15599014 -10.29547882 8.30807404 -10.30079651 7.4344635 C-10.30099195 5.41428932 -10.24956211 3.39422066 -10.1875 1.375 C-7.95096867 -0.86153133 -2.99971025 0.04884798 0 0 Z M0.8125 9.375 C0.8125 12.675 0.8125 15.975 0.8125 19.375 C2.4625 19.045 4.1125 18.715 5.8125 18.375 C5.8125 15.735 5.8125 13.095 5.8125 10.375 C4.1625 10.045 2.5125 9.715 0.8125 9.375 Z " fill="#2A2A2A" transform="translate(193.1875,93.625)"/>
<path d="M0 0 C0.78826172 0.01353516 1.57652344 0.02707031 2.38867188 0.04101562 C4.32191169 0.07616544 6.25479682 0.12996639 8.1875 0.1875 C9.3125 6.9375 9.3125 6.9375 8.1875 9.1875 C5.24609375 9.6015625 5.24609375 9.6015625 1.625 9.8125 C0.42746094 9.88726562 -0.77007812 9.96203125 -2.00390625 10.0390625 C-3.39416016 10.11253906 -3.39416016 10.11253906 -4.8125 10.1875 C-4.8125 11.5075 -4.8125 12.8275 -4.8125 14.1875 C-4.06484375 14.34605469 -3.3171875 14.50460938 -2.546875 14.66796875 C1.74907579 15.68572673 5.30530372 16.53098184 8.875 19.1875 C10.90235867 23.82146267 10.8159793 28.21203888 10.1875 33.1875 C8.58451349 36.92780185 7.59012302 37.91908465 4.1875 40.1875 C2.01098633 40.41455078 2.01098633 40.41455078 -0.48046875 40.3828125 C-1.37314453 40.37636719 -2.26582031 40.36992187 -3.18554688 40.36328125 C-4.11431641 40.34652344 -5.04308594 40.32976562 -6 40.3125 C-6.94037109 40.30347656 -7.88074219 40.29445312 -8.84960938 40.28515625 C-11.17068157 40.26159207 -13.49162289 40.22572121 -15.8125 40.1875 C-15.8125 37.2175 -15.8125 34.2475 -15.8125 31.1875 C-11.1925 30.8575 -6.5725 30.5275 -1.8125 30.1875 C-1.8125 28.8675 -1.8125 27.5475 -1.8125 26.1875 C-2.64394531 25.95675781 -3.47539062 25.72601563 -4.33203125 25.48828125 C-5.41871094 25.16214844 -6.50539063 24.83601563 -7.625 24.5 C-8.70394531 24.18675781 -9.78289062 23.87351562 -10.89453125 23.55078125 C-14.38036606 21.92219176 -15.30467235 20.68503837 -16.8125 17.1875 C-17.5482184 12.97515151 -17.25526724 9.25946278 -15.625 5.3125 C-11.04853581 -0.05300974 -6.61037645 -0.21609781 0 0 Z " fill="#2A2A2A" transform="translate(368.8125,93.8125)"/>
<path d="M0 0 C3.81248426 -0.02887236 7.6249407 -0.04675492 11.4375 -0.0625 C12.52611328 -0.07087891 13.61472656 -0.07925781 14.73632812 -0.08789062 C15.77080078 -0.09111328 16.80527344 -0.09433594 17.87109375 -0.09765625 C18.82943115 -0.10289307 19.78776855 -0.10812988 20.77514648 -0.11352539 C23 0 23 0 24 1 C24.14115161 3.67058851 24.04247107 6.32432238 24 9 C19.38 9 14.76 9 10 9 C10 10.98 10 12.96 10 15 C13.96 15 17.92 15 22 15 C22 17.97 22 20.94 22 24 C18.04 24 14.08 24 10 24 C10.33 26.31 10.66 28.62 11 31 C17.93 31.495 17.93 31.495 25 32 C25 34.64 25 37.28 25 40 C21.77131254 40.14584064 18.54347635 40.23424106 15.3125 40.3125 C13.94448242 40.3753418 13.94448242 40.3753418 12.54882812 40.43945312 C11.66259766 40.45556641 10.77636719 40.47167969 9.86328125 40.48828125 C9.05157471 40.51446533 8.23986816 40.54064941 7.40356445 40.56762695 C3.6828146 39.68893285 2.26622777 38.03157662 0 35 C-0.43900428 32.07613709 -0.58958897 29.75959055 -0.48828125 26.85546875 C-0.48120651 26.08568192 -0.47413177 25.31589508 -0.46684265 24.52278137 C-0.43896925 22.07667697 -0.37625137 19.63290616 -0.3125 17.1875 C-0.28740768 15.52412173 -0.26459613 13.86070738 -0.24414062 12.19726562 C-0.18916671 8.13061843 -0.10294927 4.06570411 0 0 Z " fill="#2A2A2A" transform="translate(327,94)"/>
<path d="M0 0 C0.89589844 -0.01417969 1.79179687 -0.02835937 2.71484375 -0.04296875 C5.0625 0.1875 5.0625 0.1875 7.0625 2.1875 C7.28955078 4.98486328 7.28955078 4.98486328 7.2578125 8.5078125 C7.24814453 10.39306641 7.24814453 10.39306641 7.23828125 12.31640625 C7.22152344 13.63511719 7.20476562 14.95382813 7.1875 16.3125 C7.17746983 17.65233721 7.16834404 18.99218152 7.16015625 20.33203125 C7.13652075 23.61736573 7.10357234 26.90234465 7.0625 30.1875 C8.66931641 30.27837891 8.66931641 30.27837891 10.30859375 30.37109375 C11.70574391 30.45548537 13.10287857 30.54013406 14.5 30.625 C15.20705078 30.66431641 15.91410156 30.70363281 16.64257812 30.74414062 C21.94921875 31.07421875 21.94921875 31.07421875 23.0625 32.1875 C23.20365161 34.85808851 23.10497107 37.51182238 23.0625 40.1875 C19.33359745 40.3039862 15.60516486 40.37484576 11.875 40.4375 C10.29235352 40.48777344 10.29235352 40.48777344 8.67773438 40.5390625 C0.81959587 40.63821882 0.81959587 40.63821882 -3.11328125 38.296875 C-6.32881578 34.57869802 -6.08378415 31.52296897 -6.0703125 26.80859375 C-6.07174759 25.71769188 -6.07174759 25.71769188 -6.07321167 24.60475159 C-6.07389235 23.06731072 -6.07204585 21.52986699 -6.06787109 19.99243164 C-6.06251351 17.630957 -6.06782377 15.26967189 -6.07421875 12.90820312 C-6.0735581 11.41666624 -6.07227721 9.92512948 -6.0703125 8.43359375 C-6.07233673 7.72319443 -6.07436096 7.0127951 -6.07644653 6.28086853 C-6.04838765 0.45793243 -5.7643059 0.04135083 0 0 Z " fill="#2A2A2A" transform="translate(247.9375,93.8125)"/>
<path d="M0 0 C1.12019531 -0.00128906 2.24039062 -0.00257812 3.39453125 -0.00390625 C4.57402344 -0.00003906 5.75351562 0.00382812 6.96875 0.0078125 C8.73798828 0.00201172 8.73798828 0.00201172 10.54296875 -0.00390625 C12.22326172 -0.00197266 12.22326172 -0.00197266 13.9375 0 C14.97326172 0.00112793 16.00902344 0.00225586 17.07617188 0.00341797 C19.46875 0.1328125 19.46875 0.1328125 20.46875 1.1328125 C20.60990161 3.80340101 20.51122107 6.45713488 20.46875 9.1328125 C17.82875 9.1328125 15.18875 9.1328125 12.46875 9.1328125 C12.46875 19.3628125 12.46875 29.5928125 12.46875 40.1328125 C8.83875 40.1328125 5.20875 40.1328125 1.46875 40.1328125 C1.46875 29.9028125 1.46875 19.6728125 1.46875 9.1328125 C-1.17125 9.1328125 -3.81125 9.1328125 -6.53125 9.1328125 C-6.62890625 2.98046875 -6.62890625 2.98046875 -6.53125 1.1328125 C-4.78579395 -0.61264355 -2.37000783 0.0025809 0 0 Z " fill="#2A2A2A" transform="translate(305.53125,93.8671875)"/>
</svg>
