<?xml version="1.0" encoding="UTF-8"?>
<svg version="1.1" xmlns="http://www.w3.org/2000/svg" width="350" height="68">
<path d="M0 0 C60.72 0 121.44 0 184 0 C184 14.52 184 29.04 184 44 C123.28 44 62.56 44 0 44 C0 29.48 0 14.96 0 0 Z M48 7 C48 13.27 48 19.54 48 26 C48.99 26 49.98 26 51 26 C51 23.36 51 20.72 51 18 C52.65 18 54.3 18 56 18 C56 20.31 56 22.62 56 25 C57.32 25.33 58.64 25.66 60 26 C60.17942163 22.05272412 60.09350689 19.4019487 58 16 C58.66 15.34 59.32 14.68 60 14 C59.81242938 10.17435335 59.81242938 10.17435335 58 7 C54.66381769 6.85742811 51.34024394 6.95771843 48 7 Z M62 7 C62 13.27 62 19.54 62 26 C65.63 26 69.26 26 73 26 C73 25.01 73 24.02 73 23 C70.69 22.67 68.38 22.34 66 22 C66 21.01 66 20.02 66 19 C67.98 18.67 69.96 18.34 72 18 C72 17.01 72 16.02 72 15 C70.02 15 68.04 15 66 15 C66 13.68 66 12.36 66 11 C69.465 10.505 69.465 10.505 73 10 C73 9.01 73 8.02 73 7 C69.37 7 65.74 7 62 7 Z M76.33203125 8.109375 C74.37326897 10.88955372 74.60227933 13.13734054 74.625 16.5 C74.61726563 17.6446875 74.60953125 18.789375 74.6015625 19.96875 C74.7715213 22.94596427 74.7715213 22.94596427 76.23046875 24.89453125 C78.52496726 26.32795968 80.00236493 26.304245 82.6875 26.1875 C84.110625 26.125625 85.53375 26.06375 87 26 C87 22.7 87 19.4 87 16 C85.02 16 83.04 16 81 16 C81 16.66 81 17.32 81 18 C81.99 18 82.98 18 84 18 C83.67 19.65 83.34 21.3 83 23 C81.68 22.67 80.36 22.34 79 22 C79 18.37 79 14.74 79 11 C79.99 10.67 80.98 10.34 82 10 C82.33 10.66 82.66 11.32 83 12 C84.32 11.67 85.64 11.34 87 11 C86.67 10.01 86.34 9.02 86 8 C82.82261769 6.41130884 79.36973297 6.08898322 76.33203125 8.109375 Z M89 7 C89 12.94 89 18.88 89 25 C90.32 25.33 91.64 25.66 93 26 C93 19.73 93 13.46 93 7 C91.68 7 90.36 7 89 7 Z M96.0625 8.875 C94.5847026 13.22146295 94.24660309 17.4574598 95 22 C96.19810433 24.31509555 96.19810433 24.31509555 98 26 C101.5 26.66666667 101.5 26.66666667 105 26 C107.20134509 23.80879935 107.93577783 22.42814782 108.3984375 19.34375 C108.39070313 18.4053125 108.38296875 17.466875 108.375 16.5 C108.38273437 15.5615625 108.39046875 14.623125 108.3984375 13.65625 C107.93569817 10.57132116 107.19889831 9.19383173 105 7 C100.04013889 6.20179354 100.04013889 6.20179354 96.0625 8.875 Z M110 7 C110 13.27 110 19.54 110 26 C110.99 26 111.98 26 113 26 C113.33 23.69 113.66 21.38 114 19 C115.423125 18.566875 115.423125 18.566875 116.875 18.125 C120.05211578 17.23174891 120.05211578 17.23174891 122 15 C122.41679297 12.54230847 122.41679297 12.54230847 122 10 C121.01 9.01 120.02 8.02 119 7 C116.03 7 113.06 7 110 7 Z M123 7 C123.44303192 9.58435287 123.93185191 11.8466668 125 14.25 C126.39813142 18.09486139 126.66399345 21.94139457 127 26 C128.32 26 129.64 26 131 26 C131.10957031 25.18015625 131.21914062 24.3603125 131.33203125 23.515625 C131.49058594 22.43796875 131.64914063 21.3603125 131.8125 20.25 C132.03873047 18.64898438 132.03873047 18.64898438 132.26953125 17.015625 C133.01320407 13.94548906 133.92765472 12.33919522 136 10 C137.32 10.33 138.64 10.66 140 11 C140 15.95 140 20.9 140 26 C141.32 26 142.64 26 144 26 C144 20.72 144 15.44 144 10 C145.32 10 146.64 10 148 10 C148 9.01 148 8.02 148 7 C142.72 7 137.44 7 132 7 C129.7763932 10.7018576 129.7763932 10.7018576 130 14 C129.34 14 128.68 14 128 14 C127.67 12.02 127.34 10.04 127 8 C125.68 7.67 124.36 7.34 123 7 Z M149 9 C148.49989476 11.95769177 148.49989476 11.95769177 149 15 C151.26400012 17.26400012 152.94775632 17.98258544 156 19 C156.33 20.65 156.66 22.3 157 24 C155.0625 23.6875 155.0625 23.6875 153 23 C152.67 22.01 152.34 21.02 152 20 C151.01 20 150.02 20 149 20 C149.33 21.98 149.66 23.96 150 26 C151.45792884 26.05399736 152.91642712 26.09279177 154.375 26.125 C155.18710938 26.14820312 155.99921875 26.17140625 156.8359375 26.1953125 C159.21342243 26.21370051 159.21342243 26.21370051 161 24 C161.50010524 21.04230823 161.50010524 21.04230823 161 18 C158.67664502 15.67664502 155.96584667 14.37700024 153 13 C153 12.01 153 11.02 153 10 C153.99 10 154.98 10 156 10 C156.33 10.66 156.66 11.32 157 12 C158.32 11.67 159.64 11.34 161 11 C159.98239527 8.86124923 159.98239527 8.86124923 158 7 C152.96425702 6.32723513 152.96425702 6.32723513 149 9 Z M167 7 C164.4042476 13.2534035 163.0440365 19.31816637 162 26 C163.32 25.67 164.64 25.34 166 25 C166 24.01 166 23.02 166 22 C167.98 22 169.96 22 172 22 C172.33 23.32 172.66 24.64 173 26 C173.99 26 174.98 26 176 26 C175.35720991 23.20760027 174.71091335 20.41609416 174.0625 17.625 C173.88009766 16.8309375 173.69769531 16.036875 173.50976562 15.21875 C173.33251953 14.45820313 173.15527344 13.69765625 172.97265625 12.9140625 C172.81031494 12.2123291 172.64797363 11.5105957 172.48071289 10.78759766 C172.0411926 8.91605426 172.0411926 8.91605426 171 7 C169.68 7 168.36 7 167 7 Z M48 32 C48 33.98 48 35.96 48 38 C49.56249809 36.68798827 49.56249809 36.68798827 51 35 C51 34.01 51 33.02 51 32 C50.01 32 49.02 32 48 32 Z M57 32 C57.33 33.32 57.66 34.64 58 36 C58 35.01 58 34.02 58 33 C58.66 32.67 59.32 32.34 60 32 C59.01 32 58.02 32 57 32 Z M66 32 C66 33.65 66 35.3 66 37 C66.12375 36.360625 66.2475 35.72125 66.375 35.0625 C66.58125 34.381875 66.7875 33.70125 67 33 C67.66 32.67 68.32 32.34 69 32 C68.01 32 67.02 32 66 32 Z M84 32 C84 33.65 84 35.3 84 37 C84.33 37 84.66 37 85 37 C85 35.35 85 33.7 85 32 C84.67 32 84.34 32 84 32 Z M136 32 C136.33 33.65 136.66 35.3 137 37 C137.66 35.68 138.32 34.36 139 33 C138.01 32.67 137.02 32.34 136 32 Z M91 33 C91 34.65 91 36.3 91 38 C91.33 38 91.66 38 92 38 C92 36.35 92 34.7 92 33 C91.67 33 91.34 33 91 33 Z M147 33 C147 34.65 147 36.3 147 38 C147.33 38 147.66 38 148 38 C148 36.35 148 34.7 148 33 C147.67 33 147.34 33 147 33 Z M173 33 C173 33.66 173 34.32 173 35 C173.66 34.67 174.32 34.34 175 34 C174.34 33.67 173.68 33.34 173 33 Z M68 34 C69 36 69 36 69 36 Z M100 34 C100 35.32 100 36.64 100 38 C100.99 37.67 101.98 37.34 103 37 C102.34 37 101.68 37 101 37 C100.67 36.01 100.34 35.02 100 34 Z M154 34 C155 38 155 38 155 38 Z M111 35 C112 38 112 38 112 38 Z M157 36 C156.67 36.66 156.34 37.32 156 38 C156.66 38 157.32 38 158 38 C157.67 37.34 157.34 36.68 157 36 Z M173 36 C174 38 174 38 174 38 Z " fill="#191D61" transform="translate(10,12)"/>
<path d="M0 0 C60.72 0 121.44 0 184 0 C184 14.52 184 29.04 184 44 C176.966875 44.103125 169.93375 44.20625 162.6875 44.3125 C159.3611145 44.38078003 159.3611145 44.38078003 155.9675293 44.45043945 C154.21144119 44.46504129 152.45533619 44.47778268 150.69921875 44.48828125 C149.3295697 44.526651 149.3295697 44.526651 147.93225098 44.5657959 C145.5180685 44.56746754 143.3553164 44.5278204 141 44 C138.36687473 41.07897737 138.03424461 39.60498818 137.8125 35.6875 C137.874375 34.800625 137.93625 33.91375 138 33 C138.66 33 139.32 33 140 33 C139.67 31.02 139.34 29.04 139 27 C140.65 27 142.3 27 144 27 C144 21.39 144 15.78 144 10 C145.32 10 146.64 10 148 10 C148 9.01 148 8.02 148 7 C146.72382813 7.08378906 145.44765625 7.16757812 144.1328125 7.25390625 C142.46355965 7.35706232 140.79428779 7.45991099 139.125 7.5625 C138.28324219 7.61857422 137.44148437 7.67464844 136.57421875 7.73242188 C135.76855469 7.78076172 134.96289062 7.82910156 134.1328125 7.87890625 C133.01737061 7.94960327 133.01737061 7.94960327 131.87939453 8.02172852 C130 8 130 8 128 7 C128 6.34 128 5.68 128 5 C126.9275 5.20625 125.855 5.4125 124.75 5.625 C121 6 121 6 119.24151611 5.04336548 C116.02147292 3.54452196 112.87081891 3.69168194 109.38574219 3.68115234 C108.62437958 3.67110672 107.86301697 3.6610611 107.07858276 3.65071106 C104.56802102 3.61987938 102.05756592 3.6028441 99.546875 3.5859375 C97.80380333 3.56722583 96.06074071 3.54765241 94.31768799 3.5272522 C89.73434794 3.47592488 85.15097852 3.43630237 80.56750488 3.39910889 C75.88867931 3.35907301 71.20997598 3.30797876 66.53125 3.2578125 C57.35425253 3.16104612 48.17718605 3.07664358 39 3 C39.32498978 3.59416214 39.64997955 4.18832428 39.9848175 4.80049133 C41.41211079 7.89288503 41.24181356 10.52320066 41.23046875 13.91796875 C41.23001053 14.57581863 41.22955231 15.23366852 41.2290802 15.91145325 C41.22606911 17.29572362 41.21821711 18.67999094 41.20581055 20.06420898 C41.18747229 22.19071335 41.18530157 24.31678392 41.18554688 26.44335938 C41.14754817 36.85245183 41.14754817 36.85245183 40 38 C37.81360547 38.07258946 35.62499611 38.08373783 33.4375 38.0625 C31.64119141 38.04896484 31.64119141 38.04896484 29.80859375 38.03515625 C28.88175781 38.02355469 27.95492187 38.01195312 27 38 C27 35.36 27 32.72 27 30 C28.65 29.34 30.3 28.68 32 28 C33.36275341 21.79328366 33.36275341 21.79328366 31.125 16.125 C30.42375 15.42375 29.7225 14.7225 29 14 C28.67 13.01 28.34 12.02 28 11 C27.34 10.67 26.68 10.34 26 10 C26 11.32 26 12.64 26 14 C25.01 14 24.02 14 23 14 C23 15.32 23 16.64 23 18 C22.01 18.66 21.02 19.32 20 20 C20 19.01 20 18.02 20 17 C18.68 17 17.36 17 16 17 C15.03522574 21.67440427 15.03522574 21.67440427 15.6875 26.3125 C17.24108468 28.30996602 18.66971908 29.06788763 21 30 C21 32.64 21 35.28 21 38 C16.38 38 11.76 38 7 38 C6.97708762 33.60336967 6.95716167 29.20694512 6.94506836 24.81030273 C6.94002879 23.31355082 6.93319713 21.81680384 6.92456055 20.32006836 C6.91247841 18.17300193 6.90676809 16.02600038 6.90234375 13.87890625 C6.89710693 12.5854126 6.89187012 11.29191895 6.88647461 9.95922852 C7 7 7 7 8 6 C9.8267034 5.73986819 11.66232907 5.54076928 13.5 5.375 C14.5003125 5.27960937 15.500625 5.18421875 16.53125 5.0859375 C17.75328125 5.04339844 17.75328125 5.04339844 19 5 C19.33 5.33 19.66 5.66 20 6 C20.66 5.34 21.32 4.68 22 4 C20.80761719 3.93941406 19.61523438 3.87882813 18.38671875 3.81640625 C16.82030075 3.73198851 15.25389512 3.64734113 13.6875 3.5625 C12.50897461 3.50352539 12.50897461 3.50352539 11.30664062 3.44335938 C10.1706543 3.38051758 10.1706543 3.38051758 9.01171875 3.31640625 C7.96697388 3.26141968 7.96697388 3.26141968 6.90112305 3.20532227 C5 3 5 3 2 2 C2 15.86 2 29.72 2 44 C1.34 44 0.68 44 0 44 C0 29.48 0 14.96 0 0 Z M149 9 C148.49989476 11.95769177 148.49989476 11.95769177 149 15 C151.26400012 17.26400012 152.94775632 17.98258544 156 19 C156.33 20.65 156.66 22.3 157 24 C155.0625 23.6875 155.0625 23.6875 153 23 C152.67 22.01 152.34 21.02 152 20 C151.01 20 150.02 20 149 20 C149.33 21.98 149.66 23.96 150 26 C151.45792884 26.05399736 152.91642712 26.09279177 154.375 26.125 C155.18710938 26.14820312 155.99921875 26.17140625 156.8359375 26.1953125 C159.21342243 26.21370051 159.21342243 26.21370051 161 24 C161.50010524 21.04230823 161.50010524 21.04230823 161 18 C158.67664502 15.67664502 155.96584667 14.37700024 153 13 C153 12.01 153 11.02 153 10 C153.99 10 154.98 10 156 10 C156.33 10.66 156.66 11.32 157 12 C158.32 11.67 159.64 11.34 161 11 C159.98239527 8.86124923 159.98239527 8.86124923 158 7 C152.96425702 6.32723513 152.96425702 6.32723513 149 9 Z M167 7 C164.4042476 13.2534035 163.0440365 19.31816637 162 26 C163.32 25.67 164.64 25.34 166 25 C166 24.01 166 23.02 166 22 C167.98 22 169.96 22 172 22 C172.33 23.32 172.66 24.64 173 26 C173.99 26 174.98 26 176 26 C175.35720991 23.20760027 174.71091335 20.41609416 174.0625 17.625 C173.88009766 16.8309375 173.69769531 16.036875 173.50976562 15.21875 C173.33251953 14.45820313 173.15527344 13.69765625 172.97265625 12.9140625 C172.81031494 12.2123291 172.64797363 11.5105957 172.48071289 10.78759766 C172.0411926 8.91605426 172.0411926 8.91605426 171 7 C169.68 7 168.36 7 167 7 Z M147 33 C147 34.65 147 36.3 147 38 C147.33 38 147.66 38 148 38 C148 36.35 148 34.7 148 33 C147.67 33 147.34 33 147 33 Z M173 33 C173 33.66 173 34.32 173 35 C173.66 34.67 174.32 34.34 175 34 C174.34 33.67 173.68 33.34 173 33 Z M154 34 C155 38 155 38 155 38 Z M157 36 C156.67 36.66 156.34 37.32 156 38 C156.66 38 157.32 38 158 38 C157.67 37.34 157.34 36.68 157 36 Z M173 36 C174 38 174 38 174 38 Z " fill="#0C115D" transform="translate(10,12)"/>
<path d="M0 0 C0.495 0.99 0.495 0.99 1 2 C2.65 2 4.3 2 6 2 C5.67 7.28 5.34 12.56 5 18 C6.98 18.495 6.98 18.495 9 19 C7.35 19 5.7 19 4 19 C4 19.66 4 20.32 4 21 C4.66 21.33 5.32 21.66 6 22 C5.01 23.485 5.01 23.485 4 25 C3.34 25 2.68 25 2 25 C2.34227572 27.97065509 2.34227572 27.97065509 3 31 C3.66 31.33 4.32 31.66 5 32 C5.495 33.98 5.495 33.98 6 36 C-17.43 36 -40.86 36 -65 36 C-64.67 35.01 -64.34 34.02 -64 33 C-64.99 33 -65.98 33 -67 33 C-67 32.34 -67 31.68 -67 31 C-65.68 31 -64.36 31 -63 31 C-63.66 30.67 -64.32 30.34 -65 30 C-65.144375 29.030625 -65.28875 28.06125 -65.4375 27.0625 C-65.623125 26.051875 -65.80875 25.04125 -66 24 C-68.67642489 21.81509993 -68.67642489 21.81509993 -71 22 C-71.66 22 -72.32 22 -73 22 C-73.33 19.69 -73.66 17.38 -74 15 C-73.67 16.32 -73.34 17.64 -73 19 C-71.26363281 18.87431641 -71.26363281 18.87431641 -69.4921875 18.74609375 C-67.95314934 18.64286558 -66.4140854 18.54002131 -64.875 18.4375 C-64.11445312 18.38142578 -63.35390625 18.32535156 -62.5703125 18.26757812 C-58.20006872 17.98501926 -54.31929331 18.06852301 -50 19 C-49.67 19.99 -49.34 20.98 -49 22 C-52.96 22.66 -56.92 23.32 -61 24 C-60.67 25.98 -60.34 27.96 -60 30 C-59.34 30 -58.68 30 -58 30 C-58 29.34 -58 28.68 -58 28 C-57.01 28 -56.02 28 -55 28 C-54.67 27.01 -54.34 26.02 -54 25 C-53.34 25 -52.68 25 -52 25 C-51.67 24.34 -51.34 23.68 -51 23 C-50.34 23.33 -49.68 23.66 -49 24 C-48.95875 23.38125 -48.9175 22.7625 -48.875 22.125 C-48.58625 21.42375 -48.2975 20.7225 -48 20 C-46.01751285 19.28293018 -44.01584651 18.61709587 -42 18 C-41.34 17.01 -40.68 16.02 -40 15 C-39.4375 16.9375 -39.4375 16.9375 -39 19 C-39.495 19.495 -39.495 19.495 -40 20 C-39.01 20.33 -38.02 20.66 -37 21 C-36.67 20.34 -36.34 19.68 -36 19 C-33.69 19 -31.38 19 -29 19 C-28.47007308 20.45505358 -27.9513211 21.91418127 -27.4375 23.375 C-27.14746094 24.18710937 -26.85742188 24.99921875 -26.55859375 25.8359375 C-26 28 -26 28 -27 30 C-26.01 30 -25.02 30 -24 30 C-23.67 28.02 -23.34 26.04 -23 24 C-23.99 23.34 -24.98 22.68 -26 22 C-26 21.01 -26 20.02 -26 19 C-24.35 19 -22.7 19 -21 19 C-21 16.03 -21 13.06 -21 10 C-19.39773045 9.77754607 -17.79303233 9.57253331 -16.1875 9.375 C-15.29417969 9.25898438 -14.40085938 9.14296875 -13.48046875 9.0234375 C-11 9 -11 9 -8 11 C-7.8125 14.625 -7.8125 14.625 -8 18 C-6.68 18 -5.36 18 -4 18 C-4.0825 16.700625 -4.165 15.40125 -4.25 14.0625 C-4.28410633 8.69075359 -2.47959766 4.6824545 0 0 Z M-44 25 C-44 26.65 -44 28.3 -44 30 C-43.67 30 -43.34 30 -43 30 C-43 28.35 -43 26.7 -43 25 C-43.33 25 -43.66 25 -44 25 Z M-35 26 C-35 27.32 -35 28.64 -35 30 C-34.01 29.67 -33.02 29.34 -32 29 C-32.66 29 -33.32 29 -34 29 C-34.33 28.01 -34.66 27.02 -35 26 Z " fill="#0D115A" transform="translate(145,20)"/>
<path d="M0 0 C1.11038742 0.00436926 1.11038742 0.00436926 2.24320692 0.00882679 C3.02401984 0.00797237 3.80483277 0.00711794 4.60930669 0.00623763 C7.24575467 0.00458045 9.88214009 0.01010805 12.51858228 0.01555592 C14.40047924 0.01583776 16.28237631 0.01568011 18.1642732 0.01511341 C23.29009312 0.01482534 28.41588985 0.02072364 33.54170436 0.02768737 C38.89222641 0.03391929 44.24274894 0.03452458 49.59327406 0.03571278 C59.73283734 0.03882657 69.87238991 0.04704061 80.01194847 0.05706227 C91.55225851 0.06822191 103.09256904 0.07373348 114.63288313 0.0787577 C138.379214 0.08922318 162.12553016 0.10756926 185.87185377 0.12908131 C185.87185377 17.28908131 185.87185377 34.44908131 185.87185377 52.12908131 C122.51185377 52.12908131 59.15185377 52.12908131 -6.12814623 52.12908131 C-6.12814623 0.01828425 -6.12814623 0.01828425 0 0 Z M-3.12814623 3.12908131 C-3.12814623 18.63908131 -3.12814623 34.14908131 -3.12814623 50.12908131 C58.58185377 50.12908131 120.29185377 50.12908131 183.87185377 50.12908131 C183.87185377 34.61908131 183.87185377 19.10908131 183.87185377 3.12908131 C122.16185377 3.12908131 60.45185377 3.12908131 -3.12814623 3.12908131 Z " fill="#C3C3C5" transform="translate(12.128146231174469,7.870918691158295)"/>
<path d="M0 0 C7.59 0.33 15.18 0.66 23 1 C21.68 1.99 20.36 2.98 19 4 C19.33 5.32 19.66 6.64 20 8 C18.5 6.625 18.5 6.625 17 5 C17 4.34 17 3.68 17 3 C16.01 3.495 16.01 3.495 15 4 C10.545 4.495 10.545 4.495 6 5 C5.67 15.23 5.34 25.46 5 36 C9.62 36 14.24 36 19 36 C19 33.36 19 30.72 19 28 C18.21625 27.7525 17.4325 27.505 16.625 27.25 C14 26 14 26 12.625 24.3125 C11.73767745 21.02940656 12.36529575 18.30046211 13 15 C13.99 14.67 14.98 14.34 16 14 C16.99 14.66 17.98 15.32 19 16 C19.66 14.68 20.32 13.36 21 12 C21.99 12 22.98 12 24 12 C24 10.68 24 9.36 24 8 C27.78449552 9.26149851 28.13176857 10.58844695 30 14 C30.99 15.485 30.99 15.485 32 17 C31.85466304 20.99676649 31.57509569 23.27649252 29.0625 26.4375 C27 28 27 28 25 28 C25 30.64 25 33.28 25 36 C27.12534659 35.85930804 29.25027529 35.71229079 31.375 35.5625 C32.55835938 35.48128906 33.74171875 35.40007813 34.9609375 35.31640625 C37.91518901 35.18915064 37.91518901 35.18915064 40 34 C40.03758423 32.83428467 40.03758423 32.83428467 40.07592773 31.64501953 C40.19166796 28.13816931 40.31449352 24.63160255 40.4375 21.125 C40.47681641 19.90167969 40.51613281 18.67835937 40.55664062 17.41796875 C40.61948242 15.66806641 40.61948242 15.66806641 40.68359375 13.8828125 C40.73858032 12.26463623 40.73858032 12.26463623 40.79467773 10.61376953 C41 8 41 8 42 6 C42.66 6.33 43.32 6.66 44 7 C43.67 7.66 43.34 8.32 43 9 C43.66 9 44.32 9 45 9 C45 11.64 45 14.28 45 17 C44.67 17 44.34 17 44 17 C43.67 19.97 43.34 22.94 43 26 C45.31 25.67 47.62 25.34 50 25 C50 22.36 50 19.72 50 17 C50.99 17 51.98 17 53 17 C53.495 20.96 53.495 20.96 54 25 C55.32 25 56.64 25 58 25 C58.495 26.98 58.495 26.98 59 29 C58.38125 29.12375 57.7625 29.2475 57.125 29.375 C54.80879168 29.87197356 54.80879168 29.87197356 53 32 C52.01 31.67 51.02 31.34 50 31 C50 29.68 50 28.36 50 27 C49.67 27.66 49.34 28.32 49 29 C47.68 29 46.36 29 45 29 C45 31.31 45 33.62 45 36 C47.47266765 35.65555119 47.47266765 35.65555119 50 35 C50.495 34.01 50.495 34.01 51 33 C51.99 33 52.98 33 54 33 C54.0825 33.78375 54.165 34.5675 54.25 35.375 C54.72806339 38.14749104 54.72806339 38.14749104 57.0625 39.3125 C57.701875 39.539375 58.34125 39.76625 59 40 C58.505 40.99 58.505 40.99 58 42 C38.86 42 19.72 42 0 42 C0 28.14 0 14.28 0 0 Z " fill="#0C115A" transform="translate(12,14)"/>
<path d="M0 0 C3.63 0 7.26 0 11 0 C11 13.53 11 27.06 11 41 C1.76 41 -7.48 41 -17 41 C-17.33 39.68 -17.66 38.36 -18 37 C-18.33 36.67 -18.66 36.34 -19 36 C-19.69100553 34.00827818 -20.35902703 32.00838196 -21 30 C-21.66 30 -22.32 30 -23 30 C-23.66 31.98 -24.32 33.96 -25 36 C-26.32 35.67 -27.64 35.34 -29 35 C-29 32.03 -29 29.06 -29 26 C-28.0925 26.185625 -27.185 26.37125 -26.25 26.5625 C-23.31685676 26.95734621 -21.7355343 26.94691572 -19 26 C-19 26.66 -19 27.32 -19 28 C-17.68 28 -16.36 28 -15 28 C-15 26.68 -15 25.36 -15 24 C-17.31 24 -19.62 24 -22 24 C-22 23.67 -22 23.34 -22 23 C-19.94921875 22.77213542 -17.8984375 22.54427083 -15.84765625 22.31640625 C-13.98859771 22.18113386 -13.98859771 22.18113386 -13 21 C-12.24755499 18.1724011 -12.24755499 18.1724011 -13 15 C-15.45716823 12.92458001 -18.13534062 11.44511835 -21 10 C-20.67 8.68 -20.34 7.36 -20 6 C-18.68 6.33 -17.36 6.66 -16 7 C-16 7.66 -16 8.32 -16 9 C-15.01 8.67 -14.02 8.34 -13 8 C-13 7.34 -13 6.68 -13 6 C-12 4.4375 -12 4.4375 -10 3 C-8.08984375 2.65625 -8.08984375 2.65625 -5.9375 2.4375 C-1.99837319 2.41483656 -1.99837319 2.41483656 0 0 Z M-6 4 C-8.5957524 10.2534035 -9.9559635 16.31816637 -11 23 C-9.68 22.67 -8.36 22.34 -7 22 C-7 21.01 -7 20.02 -7 19 C-5.02 19 -3.04 19 -1 19 C-0.67 20.32 -0.34 21.64 0 23 C0.99 23 1.98 23 3 23 C2.35720991 20.20760027 1.71091335 17.41609416 1.0625 14.625 C0.88009766 13.8309375 0.69769531 13.036875 0.50976562 12.21875 C0.33251953 11.45820313 0.15527344 10.69765625 -0.02734375 9.9140625 C-0.18968506 9.2123291 -0.35202637 8.5105957 -0.51928711 7.78759766 C-0.9588074 5.91605426 -0.9588074 5.91605426 -2 4 C-3.32 4 -4.64 4 -6 4 Z M-26 30 C-26 31.65 -26 33.3 -26 35 C-25.67 35 -25.34 35 -25 35 C-25 33.35 -25 31.7 -25 30 C-25.33 30 -25.66 30 -26 30 Z M0 30 C0 30.66 0 31.32 0 32 C0.66 31.67 1.32 31.34 2 31 C1.34 30.67 0.68 30.34 0 30 Z M-19 31 C-18 35 -18 35 -18 35 Z M-16 33 C-16.33 33.66 -16.66 34.32 -17 35 C-16.34 35 -15.68 35 -15 35 C-15.33 34.34 -15.66 33.68 -16 33 Z M0 33 C1 35 1 35 1 35 Z " fill="#10145C" transform="translate(183,15)"/>
<path d="M0 0 C0.33 0.66 0.66 1.32 1 2 C2.65 2 4.3 2 6 2 C5.67 7.28 5.34 12.56 5 18 C6.32 18.33 7.64 18.66 9 19 C7.35 19 5.7 19 4 19 C4 19.66 4 20.32 4 21 C4.66 21.33 5.32 21.66 6 22 C5.34 22.99 4.68 23.98 4 25 C3.34 25 2.68 25 2 25 C2.34227572 27.97065509 2.34227572 27.97065509 3 31 C3.66 31.33 4.32 31.66 5 32 C5.625 34.0625 5.625 34.0625 6 36 C3.37472811 36.05382106 0.75055287 36.09358313 -1.875 36.125 C-2.62136719 36.14175781 -3.36773437 36.15851562 -4.13671875 36.17578125 C-6.09194461 36.1933959 -8.04742021 36.10320189 -10 36 C-12 34 -12 34 -12.125 30.375 C-12.08375 29.26125 -12.0425 28.1475 -12 27 C-12.66 27 -13.32 27 -14 27 C-14.33 25.02 -14.66 23.04 -15 21 C-15.66 21.33 -16.32 21.66 -17 22 C-17.33 20.68 -17.66 19.36 -18 18 C-18.66 18.33 -19.32 18.66 -20 19 C-19.979375 17.88625 -19.95875 16.7725 -19.9375 15.625 C-19.73619282 12.16784079 -19.73619282 12.16784079 -21 10 C-19.39773045 9.77754607 -17.79303233 9.57253331 -16.1875 9.375 C-15.29417969 9.25898438 -14.40085938 9.14296875 -13.48046875 9.0234375 C-11 9 -11 9 -8 11 C-7.8125 14.625 -7.8125 14.625 -8 18 C-6.68 18 -5.36 18 -4 18 C-4.12375 16.0509375 -4.12375 16.0509375 -4.25 14.0625 C-4.28410633 8.69075359 -2.47959766 4.6824545 0 0 Z " fill="#171C62" transform="translate(145,20)"/>
<path d="M0 0 C15.51 0 31.02 0 47 0 C47 0.33 47 0.66 47 1 C45.17662109 1.09087891 45.17662109 1.09087891 43.31640625 1.18359375 C41.73175772 1.26798332 40.14712298 1.3526321 38.5625 1.4375 C37.76005859 1.47681641 36.95761719 1.51613281 36.13085938 1.55664062 C32.24760439 1.4054296 32.24760439 1.4054296 29 3 C27.00041636 3.04080783 24.99954746 3.04254356 23 3 C23.17402344 3.79664063 23.34804687 4.59328125 23.52734375 5.4140625 C24.1082529 9.82129058 23.86921569 13.95406356 23.5625 18.375 C23.51029297 19.20644531 23.45808594 20.03789063 23.40429688 20.89453125 C23.27561269 22.93008108 23.13864593 24.96510441 23 27 C24.32 26.34 25.64 25.68 27 25 C30.29163541 27.86690826 31.43181029 29.68175817 32 34 C32.33 34.66 32.66 35.32 33 36 C31.68 36 30.36 36 29 36 C30.65 36.33 32.3 36.66 34 37 C32.82421875 38.984375 32.82421875 38.984375 31 41 C28.51953125 41.390625 28.51953125 41.390625 25.8125 41.25 C24.91144531 41.21390625 24.01039062 41.1778125 23.08203125 41.140625 C22.39496094 41.09421875 21.70789063 41.0478125 21 41 C21 40.34 21 39.68 21 39 C19.68 38.34 18.36 37.68 17 37 C17 36.01 17 35.02 17 34 C13.10540926 33.78918149 13.10540926 33.78918149 10 35 C10 33.35 10 31.7 10 30 C10.66 29.67 11.32 29.34 12 29 C11.01 29 10.02 29 9 29 C9 30.98 9 32.96 9 35 C8.67 35 8.34 35 8 35 C8 32.69 8 30.38 8 28 C9.65 27.34 11.3 26.68 13 26 C13.33 27.32 13.66 28.64 14 30 C16.99992729 28.70855022 16.99992729 28.70855022 20 27 C20.33 26.01 20.66 25.02 21 24 C19.68 24 18.36 24 17 24 C17.33 23.34 17.66 22.68 18 22 C18.99 22.33 19.98 22.66 21 23 C20.71125 21.72125 20.4225 20.4425 20.125 19.125 C19.96257812 18.40570313 19.80015625 17.68640625 19.6328125 16.9453125 C19.09525572 14.79280036 19.09525572 14.79280036 17 13 C17.99 12.34 18.98 11.68 20 11 C19.67 9.02 19.34 7.04 19 5 C15.7 4.67 12.4 4.34 9 4 C9 10.27 9 16.54 9 23 C9.99 23 10.98 23 12 23 C12 20.36 12 17.72 12 15 C13.65 15 15.3 15 17 15 C16.67 16.32 16.34 17.64 16 19 C16 18.01 16 17.02 16 16 C15.01 16 14.02 16 13 16 C13 18.64 13 21.28 13 24 C10.69 24.33 8.38 24.66 6 25 C6 21.7 6 18.4 6 15 C6.33 15 6.66 15 7 15 C7.33 12.69 7.66 10.38 8 8 C7.34 8 6.68 8 6 8 C5.67 7.67 5.34 7.34 5 7 C4.67 15.91 4.34 24.82 4 34 C3.34 33.67 2.68 33.34 2 33 C1.67 23.43 1.34 13.86 1 4 C-1.64 3.67 -4.28 3.34 -7 3 C-7 2.67 -7 2.34 -7 2 C-4.69 2 -2.38 2 0 2 C0 1.34 0 0.68 0 0 Z M18 29 C18.33 30.32 18.66 31.64 19 33 C19 32.01 19 31.02 19 30 C19.66 29.67 20.32 29.34 21 29 C20.01 29 19.02 29 18 29 Z M27 29 C27 30.65 27 32.3 27 34 C27.12375 33.360625 27.2475 32.72125 27.375 32.0625 C27.58125 31.381875 27.7875 30.70125 28 30 C28.66 29.67 29.32 29.34 30 29 C29.01 29 28.02 29 27 29 Z M29 31 C30 33 30 33 30 33 Z " fill="#0B1157" transform="translate(49,15)"/>
<path d="M0 0 C60.72 0 121.44 0 184 0 C183.67 0.99 183.34 1.98 183 3 C159.84349658 3.02333865 136.68699508 3.04098394 113.53048229 3.05181217 C102.77902522 3.05697307 92.02757544 3.06401186 81.27612305 3.07543945 C71.90745915 3.08539257 62.53880054 3.09185493 53.1701315 3.09408849 C48.20743583 3.09539453 43.24475528 3.09847366 38.28206444 3.10573006 C33.6142973 3.11250014 28.94655156 3.11461493 24.27877998 3.11310768 C22.56266539 3.11338356 20.84655011 3.11538284 19.13043976 3.11920547 C16.79304389 3.12415812 14.45572954 3.12299243 12.11833191 3.12025452 C10.80846408 3.12117631 9.49859625 3.1220981 8.14903545 3.12304783 C5 3 5 3 2 2 C2 15.86 2 29.72 2 44 C1.34 44 0.68 44 0 44 C0 29.48 0 14.96 0 0 Z " fill="#484C7E" transform="translate(10,12)"/>
<path d="M0 0 C0.66 0.33 1.32 0.66 2 1 C1.896875 1.7425 1.79375 2.485 1.6875 3.25 C1.790625 4.1575 1.89375 5.065 2 6 C3.2375 6.9590625 3.2375 6.9590625 4.5 7.9375 C7 10 7 10 7.3125 13.25 C7.209375 14.1575 7.10625 15.065 7 16 C7.66 16 8.32 16 9 16 C9.144375 17.11375 9.28875 18.2275 9.4375 19.375 C9.78372035 22.82142047 9.78372035 22.82142047 11 25 C7.37506666 25.05787784 3.75025143 25.0935542 0.125 25.125 C-0.90753906 25.14175781 -1.94007812 25.15851562 -3.00390625 25.17578125 C-3.99003906 25.18222656 -4.97617188 25.18867187 -5.9921875 25.1953125 C-7.35899658 25.21102295 -7.35899658 25.21102295 -8.75341797 25.22705078 C-11 25 -11 25 -13 23 C-12.319375 22.46375 -11.63875 21.9275 -10.9375 21.375 C-8.61740673 19.08837848 -8.61740673 19.08837848 -9.25 15.75 C-9.4975 14.8425 -9.745 13.935 -10 13 C-13.43793339 13.18129815 -13.43793339 13.18129815 -17 14 C-18.51294288 15.93597032 -18.51294288 15.93597032 -19 18 C-19.66 18 -20.32 18 -21 18 C-21 16.02 -21 14.04 -21 12 C-23.0745356 10.7763932 -23.0745356 10.7763932 -26 11 C-26.33 11.66 -26.66 12.32 -27 13 C-27 11.68 -27 10.36 -27 9 C-25.576875 8.5978125 -25.576875 8.5978125 -24.125 8.1875 C-20.74732727 7.25013412 -20.74732727 7.25013412 -19 4 C-18.4375 5.9375 -18.4375 5.9375 -18 8 C-18.33 8.33 -18.66 8.66 -19 9 C-18.01 9.33 -17.02 9.66 -16 10 C-15.67 9.34 -15.34 8.68 -15 8 C-12.69 8 -10.38 8 -8 8 C-7.47007308 9.45505358 -6.9513211 10.91418127 -6.4375 12.375 C-6.14746094 13.18710937 -5.85742188 13.99921875 -5.55859375 14.8359375 C-5 17 -5 17 -6 19 C-5.01 19 -4.02 19 -3 19 C-2.67 17.02 -2.34 15.04 -2 13 C-2.99 12.34 -3.98 11.68 -5 11 C-5 10.01 -5 9.02 -5 8 C-3.35 8 -1.7 8 0 8 C0 5.36 0 2.72 0 0 Z " fill="#0B1058" transform="translate(124,31)"/>
<path d="M0 0 C6.15234375 -0.09765625 6.15234375 -0.09765625 8 0 C9.88319268 1.88319268 9.13054285 5.11930137 9.1328125 7.625 C9.13376923 8.28709473 9.13472595 8.94918945 9.13571167 9.63134766 C9.13639326 11.03352961 9.13454042 12.4357147 9.13037109 13.83789062 C9.12502246 15.99095713 9.1303167 18.14381502 9.13671875 20.296875 C9.13605796 21.65625046 9.13477679 23.0156258 9.1328125 24.375 C9.13168457 25.62023437 9.13055664 26.86546875 9.12939453 28.1484375 C9 31 9 31 8 32 C5.81360547 32.07258946 3.62499611 32.08373783 1.4375 32.0625 C-0.35880859 32.04896484 -0.35880859 32.04896484 -2.19140625 32.03515625 C-3.11824219 32.02355469 -4.04507813 32.01195312 -5 32 C-5 29.36 -5 26.72 -5 24 C-3.35 23.34 -1.7 22.68 0 22 C0.60424546 18.98534059 1.06222368 16.08007212 1 13 C-0.89816542 10.2094183 -0.89816542 10.2094183 -3 8 C-2.8186588 5.00787014 -1.40552069 2.62363861 0 0 Z " fill="#A9ABB1" transform="translate(42,18)"/>
<path d="M0 0 C2.17578125 0.0234375 2.17578125 0.0234375 4.125 0.375 C6.1875 2.625 6.1875 2.625 7.125 5.375 C6.95925728 8.10975492 6.33144705 9.14473214 4.5 11.1875 C2.79372832 13.44763908 2.79372832 13.44763908 3.25 16.9375 C4.09025442 20.2384995 4.43459307 21.43790701 7.125 23.375 C7.785 23.705 8.445 24.035 9.125 24.375 C9.125 27.015 9.125 29.655 9.125 32.375 C4.505 32.375 -0.115 32.375 -4.875 32.375 C-4.89791238 27.97836967 -4.91783833 23.58194512 -4.92993164 19.18530273 C-4.93497121 17.68855082 -4.94180287 16.19180384 -4.95043945 14.69506836 C-4.96252159 12.54800193 -4.96823191 10.40100038 -4.97265625 8.25390625 C-4.97789307 6.9604126 -4.98312988 5.66691895 -4.98852539 4.33422852 C-4.81813594 -0.10725641 -4.61396557 0.4465128 0 0 Z " fill="#AAACB0" transform="translate(21.875,17.625)"/>
<path d="M0 0 C0.144375 0.61875 0.28875 1.2375 0.4375 1.875 C0.93152225 4.03258322 0.93152225 4.03258322 2 6 C1.34 6.66 0.68 7.32 0 8 C1.7058258 10.77119784 1.7058258 10.77119784 3 12 C3.66 10.02 4.32 8.04 5 6 C8.465 5.505 8.465 5.505 12 5 C12.33 5.66 12.66 6.32 13 7 C14.1446875 6.87625 14.1446875 6.87625 15.3125 6.75 C18 7 18 7 19.8125 9 C20.4003125 9.99 20.4003125 9.99 21 11 C20.34 11 19.68 11 19 11 C18.67 11.99 18.34 12.98 18 14 C17.01 14 16.02 14 15 14 C15.33 15.65 15.66 17.3 16 19 C9.73 19 3.46 19 -3 19 C-3.33 17.68 -3.66 16.36 -4 15 C-4.33 14.67 -4.66 14.34 -5 14 C-5.69100553 12.00827818 -6.35902703 10.00838196 -7 8 C-7.66 8 -8.32 8 -9 8 C-9.66 9.98 -10.32 11.96 -11 14 C-12.32 13.67 -13.64 13.34 -15 13 C-15 10.03 -15 7.06 -15 4 C-14.0925 4.185625 -13.185 4.37125 -12.25 4.5625 C-9.31685676 4.95734621 -7.7355343 4.94691572 -5 4 C-5 4.66 -5 5.32 -5 6 C-3.68 6 -2.36 6 -1 6 C-1 4.68 -1 3.36 -1 2 C-3.31 2 -5.62 2 -8 2 C-8 1.67 -8 1.34 -8 1 C-5.36 0.67 -2.72 0.34 0 0 Z M-12 8 C-12 9.65 -12 11.3 -12 13 C-11.67 13 -11.34 13 -11 13 C-11 11.35 -11 9.7 -11 8 C-11.33 8 -11.66 8 -12 8 Z M14 8 C14 8.66 14 9.32 14 10 C14.66 9.67 15.32 9.34 16 9 C15.34 8.67 14.68 8.34 14 8 Z M-5 9 C-4 13 -4 13 -4 13 Z M-2 11 C-2.33 11.66 -2.66 12.32 -3 13 C-2.34 13 -1.68 13 -1 13 C-1.33 12.34 -1.66 11.68 -2 11 Z M14 11 C15 13 15 13 15 13 Z " fill="#0D125C" transform="translate(169,37)"/>
<path d="M0 0 C0.66 0 1.32 0 2 0 C2 0.99 2 1.98 2 3 C2.66 3 3.32 3 4 3 C4 2.01 4 1.02 4 0 C4.99 0 5.98 0 7 0 C7.33 0.66 7.66 1.32 8 2 C8.33 1.34 8.66 0.68 9 0 C9.99 0 10.98 0 12 0 C12.33 0.99 12.66 1.98 13 3 C13.66 2.01 14.32 1.02 15 0 C17.625 -0.1875 17.625 -0.1875 20 0 C20 0.66 20 1.32 20 2 C19.01 2.33 18.02 2.66 17 3 C16.67 3.99 16.34 4.98 16 6 C17.32 6 18.64 6 20 6 C20.33 4.02 20.66 2.04 21 0 C23.64 0 26.28 0 29 0 C29.33 0.66 29.66 1.32 30 2 C30.66 1.34 31.32 0.68 32 0 C33.33599921 0.32248257 34.66893378 0.65772583 36 1 C37.67542976 0.71395102 39.34385343 0.38218767 41 0 C43.33333333 0 45.66666667 0 48 0 C48 2.66666667 48 5.33333333 48 8 C42.927993 8.04942365 37.85612606 8.08573068 32.78393555 8.10986328 C31.05832477 8.11992326 29.33273105 8.13357276 27.60717773 8.15087891 C25.1273986 8.17512754 22.64784477 8.18648301 20.16796875 8.1953125 C19.39599655 8.20563507 18.62402435 8.21595764 17.82865906 8.22659302 C14.00718524 8.22739422 12.25863893 8.17242595 9 6 C9 6.66 9 7.32 9 8 C7.35 8 5.7 8 4 8 C4 7.01 4 6.02 4 5 C3.34 5 2.68 5 2 5 C2 5.99 2 6.98 2 8 C1.34 8 0.68 8 0 8 C0 5.36 0 2.72 0 0 Z M38 2 C38 3.32 38 4.64 38 6 C38.66 6 39.32 6 40 6 C40 4.68 40 3.36 40 2 C39.34 2 38.68 2 38 2 Z M25 3 C25 3.66 25 4.32 25 5 C24.01 5.495 24.01 5.495 23 6 C23.99 6.33 24.98 6.66 26 7 C25.67 5.68 25.34 4.36 25 3 Z " fill="#7678A0" transform="translate(295,24)"/>
<path d="M0 0 C1.9375 0.8125 1.9375 0.8125 4 2 C4.9584336 4.87530081 5.06656387 6.29049931 4.87890625 9.23046875 C4.83056641 10.03291016 4.78222656 10.83535156 4.73242188 11.66210938 C4.67634766 12.49548828 4.62027344 13.32886719 4.5625 14.1875 C4.51029297 15.03248047 4.45808594 15.87746094 4.40429688 16.74804688 C4.27476311 18.83236299 4.13806823 20.91623182 4 23 C5.32 22.34 6.64 21.68 8 21 C11.29163541 23.86690826 12.43181029 25.68175817 13 30 C13.33 30.66 13.66 31.32 14 32 C12.68 32 11.36 32 10 32 C11.65 32.33 13.3 32.66 15 33 C13.82421875 34.984375 13.82421875 34.984375 12 37 C9.51953125 37.390625 9.51953125 37.390625 6.8125 37.25 C5.91144531 37.21390625 5.01039062 37.1778125 4.08203125 37.140625 C3.39496094 37.09421875 2.70789063 37.0478125 2 37 C2 36.34 2 35.68 2 35 C0.68 34.34 -0.64 33.68 -2 33 C-2 32.01 -2 31.02 -2 30 C-5.89459074 29.78918149 -5.89459074 29.78918149 -9 31 C-9 29.35 -9 27.7 -9 26 C-8.34 25.67 -7.68 25.34 -7 25 C-7.99 25 -8.98 25 -10 25 C-10 26.98 -10 28.96 -10 31 C-10.33 31 -10.66 31 -11 31 C-11 28.69 -11 26.38 -11 24 C-9.35 23.34 -7.7 22.68 -6 22 C-5.67 23.32 -5.34 24.64 -5 26 C-2.00007271 24.70855022 -2.00007271 24.70855022 1 23 C1.33 22.01 1.66 21.02 2 20 C0.68 20 -0.64 20 -2 20 C-1.67 19.34 -1.34 18.68 -1 18 C-0.01 18.33 0.98 18.66 2 19 C1.71125 17.72125 1.4225 16.4425 1.125 15.125 C0.96257812 14.40570313 0.80015625 13.68640625 0.6328125 12.9453125 C0.09525572 10.79280036 0.09525572 10.79280036 -2 9 C-1.01 8.34 -0.02 7.68 1 7 C0.67 4.69 0.34 2.38 0 0 Z M-1 25 C-0.67 26.32 -0.34 27.64 0 29 C0 28.01 0 27.02 0 26 C0.66 25.67 1.32 25.34 2 25 C1.01 25 0.02 25 -1 25 Z M8 25 C8 26.65 8 28.3 8 30 C8.12375 29.360625 8.2475 28.72125 8.375 28.0625 C8.58125 27.381875 8.7875 26.70125 9 26 C9.66 25.67 10.32 25.34 11 25 C10.01 25 9.02 25 8 25 Z M10 27 C11 29 11 29 11 29 Z " fill="#0C115A" transform="translate(68,19)"/>
<path d="M0 0 C1.32 0 2.64 0 4 0 C3.7834375 0.87011719 3.7834375 0.87011719 3.5625 1.7578125 C3.376875 2.53898437 3.19125 3.32015625 3 4.125 C2.814375 4.89070313 2.62875 5.65640625 2.4375 6.4453125 C1.83120351 9.55367116 1.83120351 9.55367116 2 15 C7.94 15.99 7.94 15.99 14 17 C14 18.32 14 19.64 14 21 C12.68 21 11.36 21 10 21 C10 20.34 10 19.68 10 19 C9.4225 19.350625 8.845 19.70125 8.25 20.0625 C5.60607414 21.16413578 4.63828852 20.96737246 2 20 C1.34 19.67 0.68 19.34 0 19 C0.33 21.97 0.66 24.94 1 28 C1.99 28 2.98 28 4 28 C4.66 26.02 5.32 24.04 6 22 C6.99 22 7.98 22 9 22 C9.12375 23.423125 9.12375 23.423125 9.25 24.875 C9.65074923 28.10461791 9.65074923 28.10461791 12.0625 29.375 C13.0215625 29.684375 13.0215625 29.684375 14 30 C13.34 31.32 12.68 32.64 12 34 C9.56065775 34.13501894 7.12875896 34.23403897 4.6875 34.3125 C3.99720703 34.35439453 3.30691406 34.39628906 2.59570312 34.43945312 C0.57421875 34.48828125 0.57421875 34.48828125 -3 34 C-6.05957584 30.40621251 -6.32347847 27.63652476 -6 23 C-5.34 23 -4.68 23 -4 23 C-4.33 21.02 -4.66 19.04 -5 17 C-3.35 17 -1.7 17 0 17 C0 11.39 0 5.78 0 0 Z " fill="#0B1058" transform="translate(154,22)"/>
<path d="M0 0 C6.625 -0.25 6.625 -0.25 10 2 C10.1875 5.625 10.1875 5.625 10 9 C10.33 6.03 10.66 3.06 11 0 C13.64 0 16.28 0 19 0 C19 4.29 19 8.58 19 13 C4 13 4 13 0 12 C0 8.04 0 4.08 0 0 Z " fill="#606391" transform="translate(276,36)"/>
<path d="M0 0 C0.33 1.32 0.66 2.64 1 4 C2.15757813 3.91621094 3.31515625 3.83242188 4.5078125 3.74609375 C6.04685066 3.64286558 7.5859146 3.54002131 9.125 3.4375 C9.88554688 3.38142578 10.64609375 3.32535156 11.4296875 3.26757812 C15.79993128 2.98501926 19.68070669 3.06852301 24 4 C24.33 4.99 24.66 5.98 25 7 C21.04 7.66 17.08 8.32 13 9 C13.33 10.98 13.66 12.96 14 15 C14.66 15 15.32 15 16 15 C16 14.34 16 13.68 16 13 C16.99 13 17.98 13 19 13 C19.33 12.01 19.66 11.02 20 10 C20.66 10 21.32 10 22 10 C22.33 9.34 22.66 8.68 23 8 C23.36641221 15.45038168 23.36641221 15.45038168 21.75 17.875 C20.88375 18.431875 20.88375 18.431875 20 19 C19.4225 19.391875 18.845 19.78375 18.25 20.1875 C15.13040915 21.31401892 12.28602437 21.12638555 9 21 C9.33 20.01 9.66 19.02 10 18 C9.01 18 8.02 18 7 18 C7 17.34 7 16.68 7 16 C8.32 16 9.64 16 11 16 C10.34 15.67 9.68 15.34 9 15 C8.855625 14.030625 8.71125 13.06125 8.5625 12.0625 C8.376875 11.051875 8.19125 10.04125 8 9 C5.32357511 6.81509993 5.32357511 6.81509993 3 7 C2.34 7 1.68 7 1 7 C0.67 4.69 0.34 2.38 0 0 Z " fill="#0C1059" transform="translate(71,35)"/>
<path d="M0 0 C1.32 0 2.64 0 4 0 C4 2.97 4 5.94 4 9 C6.42919865 9.13440778 6.42919865 9.13440778 9 8 C10.38293093 5.44481903 11.21791649 2.79133871 12 0 C13.65 0 15.3 0 17 0 C17.67305018 1.60149886 18.33822227 3.20631029 19 4.8125 C19.37125 5.70582031 19.7425 6.59914063 20.125 7.51953125 C21 10 21 10 21 13 C19.35 13 17.7 13 16 13 C16 12.34 16 11.68 16 11 C15.01 11 14.02 11 13 11 C13 11.66 13 12.32 13 13 C8.71 13 4.42 13 0 13 C0 8.71 0 4.42 0 0 Z " fill="#7D81A6" transform="translate(216,36)"/>
<path d="M0 0 C0.99 0.33 1.98 0.66 3 1 C3 1.66 3 2.32 3 3 C4.32 3.33 5.64 3.66 7 4 C5.35 4 3.7 4 2 4 C2 4.66 2 5.32 2 6 C3.98 6 5.96 6 8 6 C8 9.3 8 12.6 8 16 C9.65 16.33 11.3 16.66 13 17 C9.25 19 9.25 19 7 19 C7 20.65 7 22.3 7 24 C5.68 24 4.36 24 3 24 C1.97980427 24.9793879 0.97850195 25.97895449 0 27 C-0.99 27 -1.98 27 -3 27 C-3 27.66 -3 28.32 -3 29 C-3.66 29 -4.32 29 -5 29 C-5.66 26.69 -6.32 24.38 -7 22 C-3.04 21.34 0.92 20.68 5 20 C5 19.34 5 18.68 5 18 C3.02 18 1.04 18 -1 18 C-1 17.67 -1 17.34 -1 17 C1.64 17 4.28 17 7 17 C7 13.7 7 10.4 7 7 C5.02 7 3.04 7 1 7 C1 7.66 1 8.32 1 9 C1.99 9 2.98 9 4 9 C4 10.65 4 12.3 4 14 C2.125 14.625 2.125 14.625 0 15 C-2 13 -2 13 -2.265625 10.46875 C-2.26046875 9.4890625 -2.2553125 8.509375 -2.25 7.5 C-2.25773437 6.03046875 -2.25773437 6.03046875 -2.265625 4.53125 C-2 2 -2 2 0 0 Z " fill="#5C5F92" transform="translate(90,21)"/>
<path d="M0 0 C0 4.29 0 8.58 0 13 C-1.32 13 -2.64 13 -4 13 C-4.33 10.03 -4.66 7.06 -5 4 C-6.65 4 -8.3 4 -10 4 C-10 5.65 -10 7.3 -10 9 C-8.35 9 -6.7 9 -5 9 C-5.33 10.32 -5.66 11.64 -6 13 C-11.40432346 13.48038431 -11.40432346 13.48038431 -13.9375 11.4375 C-15.45826219 7.94869263 -14.94135898 5.63095606 -14 2 C-9.43362969 -1.04424687 -5.43284541 -0.12783166 0 0 Z " fill="#6E729C" transform="translate(324,36)"/>
<path d="M0 0 C0.99 1.32 1.98 2.64 3 4 C2.67 4.66 2.34 5.32 2 6 C1.67 5.67 1.34 5.34 1 5 C-2.5 4.83333333 -2.5 4.83333333 -6 5 C-7.35618499 6.12534105 -7.35618499 6.12534105 -7.0625 9.0625 C-7.041875 10.031875 -7.02125 11.00125 -7 12 C-5.2984375 12.8971875 -5.2984375 12.8971875 -3.5625 13.8125 C-0.125 15.625 -0.125 15.625 1 19 C0.67 19.66 0.34 20.32 0 21 C-1.65 20.67 -3.3 20.34 -5 20 C-5 19.01 -5 18.02 -5 17 C-5.99 17 -6.98 17 -8 17 C-7.773125 17.928125 -7.54625 18.85625 -7.3125 19.8125 C-7 23 -7 23 -8.4375 24.875 C-8.953125 25.24625 -9.46875 25.6175 -10 26 C-11.96611502 21.95520612 -12.11331236 19.13114252 -11.625 14.6875 C-11.45871094 13.08455078 -11.45871094 13.08455078 -11.2890625 11.44921875 C-11.14597656 10.23685547 -11.14597656 10.23685547 -11 9 C-10.67 9 -10.34 9 -10 9 C-9.67 7.35 -9.34 5.7 -9 4 C-14.28 4 -19.56 4 -25 4 C-25 3.67 -25 3.34 -25 3 C-23.91460937 2.93941406 -22.82921875 2.87882812 -21.7109375 2.81640625 C-20.26561514 2.73193936 -18.82030318 2.64729449 -17.375 2.5625 C-16.66214844 2.52318359 -15.94929687 2.48386719 -15.21484375 2.44335938 C-11.94595951 2.24842591 -8.8863201 1.97750363 -5.6640625 1.33984375 C-3 1 -3 1 0 3 C0 2.01 0 1.02 0 0 Z " fill="#242A6B" transform="translate(167,15)"/>
<path d="M0 0 C1.98 0 3.96 0 6 0 C6.66 1.32 7.32 2.64 8 4 C8.33 2.68 8.66 1.36 9 0 C9.99 0 10.98 0 12 0 C12 4.29 12 8.58 12 13 C10.35 13 8.7 13 7 13 C6.34 11.68 5.68 10.36 5 9 C4.67 10.32 4.34 11.64 4 13 C2.68 13 1.36 13 0 13 C0 8.71 0 4.42 0 0 Z " fill="#6F739D" transform="translate(296,36)"/>
<path d="M0 0 C0.33 0.66 0.66 1.32 1 2 C2.65 2 4.3 2 6 2 C5.67 7.28 5.34 12.56 5 18 C6.32 18.33 7.64 18.66 9 19 C7.35 19 5.7 19 4 19 C3.67 19.66 3.34 20.32 3 21 C2.67 19.68 2.34 18.36 2 17 C2.66 17 3.32 17 4 17 C3.67 16.01 3.34 15.02 3 14 C2.34 14.66 1.68 15.32 1 16 C-1.39030053 18.14302806 -2.49798862 18.96577195 -5.75 19.1875 C-6.86375 19.0946875 -6.86375 19.0946875 -8 19 C-6.68 18.67 -5.36 18.34 -4 18 C-4.0825 16.700625 -4.165 15.40125 -4.25 14.0625 C-4.28410633 8.69075359 -2.47959766 4.6824545 0 0 Z " fill="#272B6C" transform="translate(145,20)"/>
<path d="M0 0 C1.42313104 4.26939312 0.0043803 6.70554264 -1.68359375 10.74609375 C-3 13 -3 13 -6.125 14.625 C-9 15 -9 15 -11 15 C-11 14.34 -11 13.68 -11 13 C-12.98 13.66 -14.96 14.32 -17 15 C-17.33 17.31 -17.66 19.62 -18 22 C-19.32 21.34 -20.64 20.68 -22 20 C-22 15.85093098 -21.72713085 12.09011103 -21 8 C-20.67 8.66 -20.34 9.32 -20 10 C-18.35 10 -16.7 10 -15 10 C-15 8.68 -15 7.36 -15 6 C-13.68 6.33 -12.36 6.66 -11 7 C-11.66 7 -12.32 7 -13 7 C-11.52806688 8.47193312 -9.94553213 8.58439711 -7.9375 9.0625 C-7.20402344 9.23910156 -6.47054687 9.41570313 -5.71484375 9.59765625 C-5.14894531 9.73042969 -4.58304688 9.86320312 -4 10 C-4 8.35 -4 6.7 -4 5 C-3.34 5 -2.68 5 -2 5 C-1.34 3.35 -0.68 1.7 0 0 Z " fill="#0B1059" transform="translate(191,29)"/>
<path d="M0 0 C1.65 0 3.3 0 5 0 C5.66 0.99 6.32 1.98 7 3 C7.33 2.01 7.66 1.02 8 0 C9.32 0 10.64 0 12 0 C12 3.96 12 7.92 12 12 C8 12 4 12 0 12 C0 8.04 0 4.08 0 0 Z M4 8 C5 10 5 10 5 10 Z " fill="#606395" transform="translate(216,20)"/>
<path d="M0 0 C7.32215357 -0.36010591 7.32215357 -0.36010591 10 1.0625 C11.60318593 4.16867275 11.42751128 6.57990979 11 10 C9.4375 11.9375 9.4375 11.9375 7 13 C3.25 13.1875 3.25 13.1875 0 13 C0 8.71 0 4.42 0 0 Z M5 4 C5 5.65 5 7.3 5 9 C5.66 8.67 6.32 8.34 7 8 C6.67 6.68 6.34 5.36 6 4 C5.67 4 5.34 4 5 4 Z " fill="#646795" transform="translate(241,36)"/>
<path d="M0 0 C1.21236328 0.04060547 1.21236328 0.04060547 2.44921875 0.08203125 C3.06410156 0.11683594 3.67898437 0.15164062 4.3125 0.1875 C3.9825 1.1775 3.6525 2.1675 3.3125 3.1875 C3.3125 2.5275 3.3125 1.8675 3.3125 1.1875 C1.9925 1.5175 0.6725 1.8475 -0.6875 2.1875 C-2.3375 8.1275 -3.9875 14.0675 -5.6875 20.1875 C-4.3675 19.8575 -3.0475 19.5275 -1.6875 19.1875 C-1.6875 19.8475 -1.6875 20.5075 -1.6875 21.1875 C-3.3375 21.1875 -4.9875 21.1875 -6.6875 21.1875 C-7.6875 18.1875 -7.6875 18.1875 -7.25 15.3125 C-7.33933276 12.14281875 -7.33933276 12.14281875 -9.46484375 10.6875 C-11.50230258 9.42706853 -13.54889788 8.26634839 -15.6875 7.1875 C-15.3575 5.8675 -15.0275 4.5475 -14.6875 3.1875 C-12.7075 3.6825 -12.7075 3.6825 -10.6875 4.1875 C-10.6875 4.8475 -10.6875 5.5075 -10.6875 6.1875 C-9.6975 5.8575 -8.7075 5.5275 -7.6875 5.1875 C-7.6875 4.5275 -7.6875 3.8675 -7.6875 3.1875 C-5.39299116 0.12072929 -3.73722064 -0.16248785 0 0 Z " fill="#575A8E" transform="translate(177.6875,17.8125)"/>
<path d="M0 0 C1.91015625 0.23046875 1.91015625 0.23046875 3.91015625 2.23046875 C4.58989481 9.36772365 4.58989481 9.36772365 2.28515625 12.29296875 C-0.89687781 13.54903483 -2.83197327 13.15117128 -6.08984375 12.23046875 C-8.08984375 10.23046875 -8.08984375 10.23046875 -8.1015625 8.1015625 C-7.99457031 7.29847656 -7.88757813 6.49539062 -7.77734375 5.66796875 C-7.67808594 4.86230469 -7.57882812 4.05664062 -7.4765625 3.2265625 C-6.65403223 -1.01902306 -3.79632777 0.07578876 0 0 Z M-2.08984375 3.23046875 C-3.38617996 4.2969199 -3.38617996 4.2969199 -3.15234375 6.79296875 C-3.13171875 7.59734375 -3.11109375 8.40171875 -3.08984375 9.23046875 C-2.09984375 8.90046875 -1.10984375 8.57046875 -0.08984375 8.23046875 C-0.41984375 6.58046875 -0.74984375 4.93046875 -1.08984375 3.23046875 C-1.41984375 3.23046875 -1.74984375 3.23046875 -2.08984375 3.23046875 Z " fill="#464980" transform="translate(283.08984375,19.76953125)"/>
<path d="M0 0 C0.33 0 0.66 0 1 0 C1 6.27 1 12.54 1 19 C1.99 19 2.98 19 4 19 C4 16.69 4 14.38 4 12 C4.33 12 4.66 12 5 12 C5 14.64 5 17.28 5 20 C3.35 20 1.7 20 0 20 C0.75150023 23.27773504 0.75150023 23.27773504 4 25 C3.34 27.31 2.68 29.62 2 32 C1.01 31.67 0.02 31.34 -1 31 C-1.66 27.7 -2.32 24.4 -3 21 C-5.31 20.67 -7.62 20.34 -10 20 C-10.33 20.99 -10.66 21.98 -11 23 C-12.32 22.34 -13.64 21.68 -15 21 C-14.34 20.67 -13.68 20.34 -13 20 C-12.67 19.01 -12.34 18.02 -12 17 C-11.67 17.33 -11.34 17.66 -11 18 C-7.54187831 18.33338596 -7.54187831 18.33338596 -4 18 C-1.64626599 14.46939899 -1.34221585 11.41404244 -0.875 7.3125 C-0.74544922 6.2596582 -0.74544922 6.2596582 -0.61328125 5.18554688 C-0.40173125 3.45788855 -0.199914 1.7290434 0 0 Z " fill="#4C4F88" transform="translate(119,19)"/>
<path d="M0 0 C5.28378559 -0.43309718 5.28378559 -0.43309718 8 0 C10.0625 2.25 10.0625 2.25 11 5 C10.83425728 7.73475492 10.20644705 8.76973214 8.375 10.8125 C6.66872832 13.07263908 6.66872832 13.07263908 7.125 16.5625 C7.96525442 19.8634995 8.30959307 21.06290701 11 23 C11.66 23.33 12.32 23.66 13 24 C13 24.66 13 25.32 13 26 C10.525 25.01 10.525 25.01 8 24 C8 25.32 8 26.64 8 28 C7.01 28.33 6.02 28.66 5 29 C4.67 21.41 4.34 13.82 4 6 C3.01 5.67 2.02 5.34 1 5 C1.99 4.01 2.98 3.02 4 2 C2.68 2.33 1.36 2.66 0 3 C0 2.01 0 1.02 0 0 Z " fill="#A4A8AE" transform="translate(18,18)"/>
<path d="M0 0 C1.98 0 3.96 0 6 0 C6.50757862 1.41396902 7.00574925 2.83131729 7.5 4.25 C7.7784375 5.03890625 8.056875 5.8278125 8.34375 6.640625 C9 9 9 9 9 13 C7.68 13 6.36 13 5 13 C5 12.34 5 11.68 5 11 C3.68 11 2.36 11 1 11 C1 11.66 1 12.32 1 13 C-0.32 13 -1.64 13 -3 13 C-2.45144652 8.428721 -1.58255197 4.32564205 0 0 Z " fill="#666897" transform="translate(328,36)"/>
<path d="M0 0 C0.5775 0.165 1.155 0.33 1.75 0.5 C4.46869287 1.10415397 6.30778006 0.62128152 9 0 C11.33333333 0 13.66666667 0 16 0 C16 2.66666667 16 5.33333333 16 8 C10.39 8 4.78 8 -1 8 C-1 1 -1 1 0 0 Z M6 2 C6 3.32 6 4.64 6 6 C6.66 6 7.32 6 8 6 C8 4.68 8 3.36 8 2 C7.34 2 6.68 2 6 2 Z " fill="#646693" transform="translate(327,24)"/>
<path d="M0 0 C6.75 -0.125 6.75 -0.125 9 1 C8.95875 2.0725 8.9175 3.145 8.875 4.25 C8.9885825 7.65747485 9.21273364 9.20739631 11 12 C7.33333333 12 3.66666667 12 0 12 C0 8.04 0 4.08 0 0 Z " fill="#4D5086" transform="translate(265,20)"/>
<path d="M0 0 C1.65 0 3.3 0 5 0 C6.65 3.96 8.3 7.92 10 12 C6.625 12.125 6.625 12.125 3 12 C2.34 11.34 1.68 10.68 1 10 C1 10.66 1 11.32 1 12 C-0.65 12 -2.3 12 -4 12 C-2.68 8.04 -1.36 4.08 0 0 Z " fill="#2A2D6A" transform="translate(236,20)"/>
<path d="M0 0 C0 0.66 0 1.32 0 2 C0.763125 1.9175 1.52625 1.835 2.3125 1.75 C5 2 5 2 6.8125 4 C7.204375 4.66 7.59625 5.32 8 6 C7.34 6 6.68 6 6 6 C5.67 6.99 5.34 7.98 5 9 C4.01 9 3.02 9 2 9 C2.33 10.65 2.66 12.3 3 14 C1.68 13.67 0.36 13.34 -1 13 C-1 12.01 -1 11.02 -1 10 C-1.66 9.34 -2.32 8.68 -3 8 C-3 7.01 -3 6.02 -3 5 C-3.66 6.32 -4.32 7.64 -5 9 C-6.32 8.67 -7.64 8.34 -9 8 C-9.1875 5.125 -9.1875 5.125 -9 2 C-5.5647952 -0.29013653 -4.014669 -0.17842973 0 0 Z M1 3 C1 3.66 1 4.32 1 5 C1.66 4.67 2.32 4.34 3 4 C2.34 3.67 1.68 3.34 1 3 Z M1 6 C2 8 2 8 2 8 Z " fill="#151A60" transform="translate(182,42)"/>
<path d="M0 0 C1.2684375 0.495 1.2684375 0.495 2.5625 1 C6.20989216 2.06105954 9.22274664 2.15109013 13 2 C13 2.66 13 3.32 13 4 C13.99 4.33 14.98 4.66 16 5 C15.67 6.98 15.34 8.96 15 11 C14.34 11 13.68 11 13 11 C12.731875 10.030625 12.46375 9.06125 12.1875 8.0625 C11.795625 7.051875 11.40375 6.04125 11 5 C10.01 4.67 9.02 4.34 8 4 C8.30035156 4.69867188 8.60070312 5.39734375 8.91015625 6.1171875 C9.48056641 7.48230469 9.48056641 7.48230469 10.0625 8.875 C10.44535156 9.77992187 10.82820312 10.68484375 11.22265625 11.6171875 C12 14 12 14 11 16 C8.69 15.67 6.38 15.34 4 15 C4.66 14.01 5.32 13.02 6 12 C6.33343551 9.45792029 6.33343551 9.45792029 6 7 C3.60236815 4.60236815 2.66726502 4.65719414 -0.625 4.375 C-1.44226563 4.30023437 -2.25953125 4.22546875 -3.1015625 4.1484375 C-3.72804688 4.09945313 -4.35453125 4.05046875 -5 4 C-4.360625 3.71125 -3.72125 3.4225 -3.0625 3.125 C-0.84793921 2.17176549 -0.84793921 2.17176549 0 0 Z " fill="#515388" transform="translate(125,15)"/>
<path d="M0 0 C0.144375 0.61875 0.28875 1.2375 0.4375 1.875 C0.93152225 4.03258322 0.93152225 4.03258322 2 6 C1.319375 6.61875 1.319375 6.61875 0.625 7.25 C-1.05950374 9.06408095 -1.99265971 10.75285627 -3 13 C-3.99 13 -4.98 13 -6 13 C-6.33 11.35 -6.66 9.7 -7 8 C-7.66 8 -8.32 8 -9 8 C-9.66 9.98 -10.32 11.96 -11 14 C-12.32 13.67 -13.64 13.34 -15 13 C-15 10.03 -15 7.06 -15 4 C-14.0925 4.185625 -13.185 4.37125 -12.25 4.5625 C-9.31685676 4.95734621 -7.7355343 4.94691572 -5 4 C-5 4.66 -5 5.32 -5 6 C-3.68 6 -2.36 6 -1 6 C-1 4.68 -1 3.36 -1 2 C-3.31 2 -5.62 2 -8 2 C-8 1.67 -8 1.34 -8 1 C-5.36 0.67 -2.72 0.34 0 0 Z M-12 8 C-12 9.65 -12 11.3 -12 13 C-11.67 13 -11.34 13 -11 13 C-11 11.35 -11 9.7 -11 8 C-11.33 8 -11.66 8 -12 8 Z " fill="#53568B" transform="translate(169,37)"/>
<path d="M0 0 C2.64 0.33 5.28 0.66 8 1 C8 5 8 9 8 13 C5.36 13 2.72 13 0 13 C0 8.71 0 4.42 0 0 Z " fill="#636593" transform="translate(207,19)"/>
<path d="M0 0 C1.9453125 -0.29296875 1.9453125 -0.29296875 4.125 -0.1875 C5.40375 -0.125625 6.6825 -0.06375 8 0 C7.67 1.32 7.34 2.64 7 4 C5.68 3.67 4.36 3.34 3 3 C3 4.98 3 6.96 3 9 C4.32 8.67 5.64 8.34 7 8 C7.33 9.32 7.66 10.64 8 12 C4.86022274 12.98678714 3.32881171 13.11691083 0.1875 12 C-2 10 -2 10 -2.4375 6.5 C-2 3 -2 3 0 0 Z " fill="#3D407B" transform="translate(247,20)"/>
<path d="M0 0 C0 0.66 0 1.32 0 2 C2.97 2 5.94 2 9 2 C9 2.33 9 2.66 9 3 C6.03 3 3.06 3 0 3 C0 9.27 0 15.54 0 22 C0.99 22 1.98 22 3 22 C3 19.36 3 16.72 3 14 C4.65 14 6.3 14 8 14 C7.67 15.32 7.34 16.64 7 18 C7 17.01 7 16.02 7 15 C6.01 15 5.02 15 4 15 C4 17.64 4 20.28 4 23 C1.69 23.33 -0.62 23.66 -3 24 C-3 20.7 -3 17.4 -3 14 C-2.67 14 -2.34 14 -2 14 C-1.67 11.69 -1.34 9.38 -1 7 C-1.66 7 -2.32 7 -3 7 C-4 5 -4 5 -5 2 C-2 0 -2 0 0 0 Z " fill="#54588E" transform="translate(58,16)"/>
<path d="M0 0 C2.31 0 4.62 0 7 0 C7 4.29 7 8.58 7 13 C4.69 13 2.38 13 0 13 C0 8.71 0 4.42 0 0 Z " fill="#44467E" transform="translate(268,36)"/>
<path d="M0 0 C2.64 0 5.28 0 8 0 C7.814375 1.2375 7.62875 2.475 7.4375 3.75 C7.05288777 6.76279577 6.9125406 9.10010827 8 12 C5.36 12 2.72 12 0 12 C0 8.04 0 4.08 0 0 Z " fill="#3E427A" transform="translate(256,20)"/>
<path d="M0 0 C2.64 0 5.28 0 8 0 C7.814375 0.763125 7.62875 1.52625 7.4375 2.3125 C6.77180827 5.08967375 6.77180827 5.08967375 8 8 C6.68 8 5.36 8 4 8 C4 9.65 4 11.3 4 13 C2.68 13 1.36 13 0 13 C0 8.71 0 4.42 0 0 Z " fill="#7F81A6" transform="translate(259,36)"/>
<path d="M0 0 C0.33 1.32 0.66 2.64 1 4 C1.556875 3.67 2.11375 3.34 2.6875 3 C5.30284522 1.8690399 7.1806646 1.84337026 10 2 C9.67 3.65 9.34 5.3 9 7 C9.66 7 10.32 7 11 7 C10.67 7.99 10.34 8.98 10 10 C7.625 10.1875 7.625 10.1875 5 10 C4.34 9.01 3.68 8.02 3 7 C1.02 7.66 -0.96 8.32 -3 9 C-3 7.35 -3 5.7 -3 4 C-2.34 3.67 -1.68 3.34 -1 3 C-1.99 3 -2.98 3 -4 3 C-4 4.98 -4 6.96 -4 9 C-4.33 9 -4.66 9 -5 9 C-5.1875 5.625 -5.1875 5.625 -5 2 C-2 0 -2 0 0 0 Z M5 3 C5.33 4.32 5.66 5.64 6 7 C6 6.01 6 5.02 6 4 C6.66 3.67 7.32 3.34 8 3 C7.01 3 6.02 3 5 3 Z " fill="#30346E" transform="translate(62,41)"/>
<path d="M0 0 C2.14148733 3.212231 2.44114645 5.2476976 3 9 C3.33 9.66 3.66 10.32 4 11 C-0.75 10.125 -0.75 10.125 -3 9 C-3 8.34 -3 7.68 -3 7 C-3.66 7 -4.32 7 -5 7 C-5.12375 7.7425 -5.2475 8.485 -5.375 9.25 C-5.95486701 11.80141485 -6.73708739 13.7267573 -8 16 C-9.98 16 -11.96 16 -14 16 C-13.01 14.68 -12.02 13.36 -11 12 C-10.01 12.33 -9.02 12.66 -8 13 C-7.34 10.03 -6.68 7.06 -6 4 C-5.34 4 -4.68 4 -4 4 C-2.62689293 2.70766393 -1.28965176 1.37562854 0 0 Z M0 5 C0 6.65 0 8.3 0 10 C0.33 10 0.66 10 1 10 C1 8.35 1 6.7 1 5 C0.67 5 0.34 5 0 5 Z " fill="#313673" transform="translate(101,40)"/>
<path d="M0 0 C2.31 0 4.62 0 7 0 C7 3.63 7 7.26 7 11 C4.69 11 2.38 11 0 11 C0 7.37 0 3.74 0 0 Z " fill="#3B3F77" transform="translate(288,37)"/>
<path d="M0 0 C1.98 0.495 1.98 0.495 4 1 C4 5.29 4 9.58 4 14 C2.68 14.33 1.36 14.66 0 15 C-1 14 -1 14 -1.1328125 11.09375 C-1.13023438 9.9078125 -1.12765625 8.721875 -1.125 7.5 C-1.12757812 6.3140625 -1.13015625 5.128125 -1.1328125 3.90625 C-1 1 -1 1 0 0 Z " fill="#242869" transform="translate(110,21)"/>
<path d="M0 0 C0.66 0.66 1.32 1.32 2 2 C-1.33333333 2 -4.66666667 2 -8 2 C-10.69902901 6.34785219 -10.02525531 10.37417456 -9.77734375 15.3203125 C-9.85082031 16.20460938 -9.92429687 17.08890625 -10 18 C-10.99 18.66 -11.98 19.32 -13 20 C-13 13.73 -13 7.46 -13 1 C-14.32 0.67 -15.64 0.34 -17 0 C-11.35964956 -1.37197713 -5.67599947 -1.06656853 0 0 Z " fill="#3E4179" transform="translate(116,18)"/>
<path d="M0 0 C1.32 0 2.64 0 4 0 C4.33 0.99 4.66 1.98 5 3 C7.00016466 4.20882096 7.00016466 4.20882096 9 5 C8.67 6.32 8.34 7.64 8 9 C4.37 9 0.74 9 -3 9 C-2.01 6.03 -1.02 3.06 0 0 Z " fill="#0B1059" transform="translate(96,47)"/>
<path d="M0 0 C2.64 0 5.28 0 8 0 C8.33 1.32 8.66 2.64 9 4 C9.66 4 10.32 4 11 4 C10.67 5.32 10.34 6.64 10 8 C6.7 8 3.4 8 0 8 C0 5.36 0 2.72 0 0 Z M4 3 C4 3.66 4 4.32 4 5 C3.01 5.495 3.01 5.495 2 6 C2.99 6.33 3.98 6.66 5 7 C4.67 5.68 4.34 4.36 4 3 Z " fill="#6E719C" transform="translate(316,24)"/>
<path d="M0 0 C0.66 0.33 1.32 0.66 2 1 C1.896875 1.7425 1.79375 2.485 1.6875 3.25 C1.7254586 6.25072867 1.7254586 6.25072867 4.5 8.3125 C5.7375 9.1478125 5.7375 9.1478125 7 10 C6.67 10.99 6.34 11.98 6 13 C-0.33628319 14.3403676 -0.33628319 14.3403676 -3.4375 12.75 C-5 11 -5 11 -5 8 C-3.35 8 -1.7 8 0 8 C0 5.36 0 2.72 0 0 Z " fill="#0C1056" transform="translate(124,31)"/>
<path d="M0 0 C4.29 0 8.58 0 13 0 C13.33 0.66 13.66 1.32 14 2 C14.66 2 15.32 2 16 2 C16 2.66 16 3.32 16 4 C14.02 4 12.04 4 10 4 C10 4.66 10 5.32 10 6 C8.02 6 6.04 6 4 6 C4.33 4.68 4.66 3.36 5 2 C3.35 1.67 1.7 1.34 0 1 C0 0.67 0 0.34 0 0 Z " fill="#161B5D" transform="translate(18,50)"/>
<path d="M0 0 C1.98 0 3.96 0 6 0 C6.74926071 3.66305234 7.2380014 6.42355152 6 10 C5.01 10 4.02 10 3 10 C3.33 8.02 3.66 6.04 4 4 C3.34 4 2.68 4 2 4 C2 5.32 2 6.64 2 8 C1.01 8 0.02 8 -1 8 C-0.67 5.36 -0.34 2.72 0 0 Z " fill="#323571" transform="translate(328,36)"/>
<path d="M0 0 C1.9375 0.8125 1.9375 0.8125 4 2 C5.25985286 5.77955857 4.64024579 8.84423452 4.0625 12.6875 C3.96259766 13.38939453 3.86269531 14.09128906 3.75976562 14.81445312 C3.51270675 16.54386527 3.25717148 18.2720627 3 20 C1.35 20 -0.3 20 -2 20 C-1.67 19.34 -1.34 18.68 -1 18 C-0.01 18.33 0.98 18.66 2 19 C1.71125 17.72125 1.4225 16.4425 1.125 15.125 C0.96257812 14.40570313 0.80015625 13.68640625 0.6328125 12.9453125 C0.09525572 10.79280036 0.09525572 10.79280036 -2 9 C-1.01 8.34 -0.02 7.68 1 7 C0.67 4.69 0.34 2.38 0 0 Z " fill="#494D83" transform="translate(68,19)"/>
<path d="M0 0 C2 3.75 2 3.75 2 6 C2.66 6.33 3.32 6.66 4 7 C4 9 4 11 4 13 C1.36 13 -1.28 13 -4 13 C-4 11.35 -4 9.7 -4 8 C-3.01 7.67 -2.02 7.34 -1 7 C-0.67 4.69 -0.34 2.38 0 0 Z " fill="#0B1058" transform="translate(178,43)"/>
<path d="M0 0 C1.32 0 2.64 0 4 0 C4 4.29 4 8.58 4 13 C2.68 13 1.36 13 0 13 C0 8.71 0 4.42 0 0 Z " fill="#4D5084" transform="translate(253,36)"/>
<path d="M0 0 C0.99 1.32 1.98 2.64 3 4 C2.67 4.66 2.34 5.32 2 6 C1.67 5.67 1.34 5.34 1 5 C-1.33297433 4.95907063 -3.66705225 4.95758277 -6 5 C-6.66 7.31 -7.32 9.62 -8 12 C-8.33 12 -8.66 12 -9 12 C-9 9.36 -9 6.72 -9 4 C-14.28 4 -19.56 4 -25 4 C-25 3.67 -25 3.34 -25 3 C-23.91460937 2.93941406 -22.82921875 2.87882812 -21.7109375 2.81640625 C-20.26561514 2.73193936 -18.82030318 2.64729449 -17.375 2.5625 C-16.66214844 2.52318359 -15.94929687 2.48386719 -15.21484375 2.44335938 C-11.94595951 2.24842591 -8.8863201 1.97750363 -5.6640625 1.33984375 C-3 1 -3 1 0 3 C0 2.01 0 1.02 0 0 Z " fill="#7779A2" transform="translate(167,15)"/>
<path d="M0 0 C0 1.65 0 3.3 0 5 C1.65 5 3.3 5 5 5 C4.67 6.32 4.34 7.64 4 9 C1.1875 9.25 1.1875 9.25 -2 9 C-3.9375 7.25 -3.9375 7.25 -5 5 C-4.875 2.8125 -4.875 2.8125 -4 1 C-1 0 -1 0 0 0 Z " fill="#606293" transform="translate(314,40)"/>
<path d="M0 0 C-0.33 0.99 -0.66 1.98 -1 3 C-1.99 3 -2.98 3 -4 3 C-4.495 3.495 -4.99 3.99 -5.5 4.5 C-5.995 4.995 -6.49 5.49 -7 6 C-7.99 6 -8.98 6 -10 6 C-10 6.66 -10 7.32 -10 8 C-10.66 8 -11.32 8 -12 8 C-12.66 5.69 -13.32 3.38 -14 1 C-9.27685687 0.22887459 -4.78478822 -0.09764874 0 0 Z " fill="#4A4E85" transform="translate(97,42)"/>
<path d="M0 0 C0.33 0 0.66 0 1 0 C1 2.97 1 5.94 1 9 C-1.97 9 -4.94 9 -8 9 C-8 7.35 -8 5.7 -8 4 C-5.36 4 -2.72 4 0 4 C0 2.68 0 1.36 0 0 Z " fill="#1E2162" transform="translate(83,26)"/>
<path d="M0 0 C2.64 0 5.28 0 8 0 C8.99 1.98 9.98 3.96 11 6 C9.68 5.67 8.36 5.34 7 5 C6.67 5.99 6.34 6.98 6 8 C5.01 7.34 4.02 6.68 3 6 C2.34 5.67 1.68 5.34 1 5 C1.99 4.01 2.98 3.02 4 2 C2.68 2.33 1.36 2.66 0 3 C0 2.01 0 1.02 0 0 Z " fill="#9D9FAC" transform="translate(18,18)"/>
<path d="M0 0 C1.98 0 3.96 0 6 0 C6 0.66 6 1.32 6 2 C5.01 2 4.02 2 3 2 C3 2.66 3 3.32 3 4 C3.66 4 4.32 4 5 4 C5 4.99 5 5.98 5 7 C4.34 7 3.68 7 3 7 C3 8.32 3 9.64 3 11 C2.01 11 1.02 11 0 11 C0 7.37 0 3.74 0 0 Z " fill="#101459" transform="translate(265,21)"/>
<path d="M0 0 C1.32 0.33 2.64 0.66 4 1 C4.125 3.875 4.125 3.875 4 7 C3.34 7.66 2.68 8.32 2 9 C-1.01305957 8.61121812 -2.39685311 7.73543126 -5 6 C-3.68 5.67 -2.36 5.34 -1 5 C-0.67 3.35 -0.34 1.7 0 0 Z " fill="#292C6A" transform="translate(283,23)"/>
<path d="M0 0 C0.99 0 1.98 0 3 0 C3 3.96 3 7.92 3 12 C1.35 12 -0.3 12 -2 12 C-1.34 8.04 -0.68 4.08 0 0 Z " fill="#333673" transform="translate(225,20)"/>
<path d="M0 0 C1.65 0 3.3 0 5 0 C4.34 3.96 3.68 7.92 3 12 C2.01 12 1.02 12 0 12 C0 8.04 0 4.08 0 0 Z " fill="#252969" transform="translate(216,20)"/>
<path d="M0 0 C0.99 0 1.98 0 3 0 C3 2.97 3 5.94 3 9 C4.32 9 5.64 9 7 9 C7 9.66 7 10.32 7 11 C4.69 11 2.38 11 0 11 C0 7.37 0 3.74 0 0 Z " fill="#191D60" transform="translate(217,37)"/>
<path d="M0 0 C1.2065625 0.0309375 1.2065625 0.0309375 2.4375 0.0625 C2.4375 0.7225 2.4375 1.3825 2.4375 2.0625 C1.4475 2.3925 0.4575 2.7225 -0.5625 3.0625 C-0.8925 4.0525 -1.2225 5.0425 -1.5625 6.0625 C0.0875 6.3925 1.7375 6.7225 3.4375 7.0625 C3.4375 7.3925 3.4375 7.7225 3.4375 8.0625 C0.4675 8.0625 -2.5025 8.0625 -5.5625 8.0625 C-5.8925 7.4025 -6.2225 6.7425 -6.5625 6.0625 C-3.35333785 0.08178873 -3.35333785 0.08178873 0 0 Z " fill="#6F729F" transform="translate(312.5625,23.9375)"/>
<path d="M0 0 C1.9453125 -0.29296875 1.9453125 -0.29296875 4.125 -0.1875 C5.40375 -0.125625 6.6825 -0.06375 8 0 C7.67 1.32 7.34 2.64 7 4 C5.68 3.67 4.36 3.34 3 3 C2.67 3.66 2.34 4.32 2 5 C1.34 5 0.68 5 0 5 C-0.33 6.65 -0.66 8.3 -1 10 C-1.33 10 -1.66 10 -2 10 C-2.25 3.375 -2.25 3.375 0 0 Z " fill="#505386" transform="translate(247,20)"/>
<path d="M0 0 C2.00948183 0.01778303 4.01668765 0.16786374 6.01953125 0.33203125 C6.34953125 1.32203125 6.67953125 2.31203125 7.01953125 3.33203125 C6.35953125 3.99203125 5.69953125 4.65203125 5.01953125 5.33203125 C1.68619792 5.33203125 -1.64713542 5.33203125 -4.98046875 5.33203125 C-3.05235036 0.51173527 -3.05235036 0.51173527 0 0 Z " fill="#999CAA" transform="translate(43.98046875,17.66796875)"/>
<path d="M0 0 C4.80821918 3.32876712 4.80821918 3.32876712 5.75 6.625 C5.8325 7.40875 5.915 8.1925 6 9 C6.33 9.66 6.66 10.32 7 11 C5.0085944 11.38133299 3.00720923 11.71325582 1 12 C-0.65606367 10.34393633 -0.39915554 8.27134998 -0.625 6 C-0.72039062 5.0925 -0.81578125 4.185 -0.9140625 3.25 C-0.94242187 2.5075 -0.97078125 1.765 -1 1 C-0.67 0.67 -0.34 0.34 0 0 Z M1 4 C1 5.65 1 7.3 1 9 C1.12375 8.360625 1.2475 7.72125 1.375 7.0625 C1.58125 6.381875 1.7875 5.70125 2 5 C2.66 4.67 3.32 4.34 4 4 C3.01 4 2.02 4 1 4 Z M3 6 C4 8 4 8 4 8 Z " fill="#5F6292" transform="translate(75,40)"/>
<path d="M0 0 C1.2065625 0.0309375 1.2065625 0.0309375 2.4375 0.0625 C2.4375 0.7225 2.4375 1.3825 2.4375 2.0625 C3.0975 2.7225 3.7575 3.3825 4.4375 4.0625 C4.4375 4.7225 4.4375 5.3825 4.4375 6.0625 C1.20958445 8.2144437 0.15349191 8.26336443 -3.5625 8.0625 C-3.60491723 5.72955225 -3.60342937 3.39547433 -3.5625 1.0625 C-2.5625 0.0625 -2.5625 0.0625 0 0 Z M-2.5625 3.0625 C-2.5625 4.3825 -2.5625 5.7025 -2.5625 7.0625 C-1.5725 6.7325 -0.5825 6.4025 0.4375 6.0625 C-0.2225 6.0625 -0.8825 6.0625 -1.5625 6.0625 C-1.8925 5.0725 -2.2225 4.0825 -2.5625 3.0625 Z " fill="#474980" transform="translate(112.5625,42.9375)"/>
<path d="M0 0 C0.99 0.495 0.99 0.495 2 1 C2 3.31 2 5.62 2 8 C3.32 8 4.64 8 6 8 C6 5.36 6 2.72 6 0 C7.65 0 9.3 0 11 0 C10.67 1.32 10.34 2.64 10 4 C10 3.01 10 2.02 10 1 C9.01 1 8.02 1 7 1 C7 3.64 7 6.28 7 9 C4.69 9.33 2.38 9.66 0 10 C0 6.7 0 3.4 0 0 Z " fill="#4D5189" transform="translate(55,30)"/>
<path d="M0 0 C4.875 2.625 4.875 2.625 6 6 C5.01 6.495 5.01 6.495 4 7 C4 6.34 4 5.68 4 5 C3.319375 5.165 2.63875 5.33 1.9375 5.5 C-1.4164822 6.07089059 -4.60389805 6.06659023 -8 6 C-8 5.34 -8 4.68 -8 4 C-7.01 4 -6.02 4 -5 4 C-4.34 3.01 -3.68 2.02 -3 1 C-2.67 1.66 -2.34 2.32 -2 3 C-1.34 2.01 -0.68 1.02 0 0 Z " fill="#1D2167" transform="translate(126,46)"/>
<path d="M0 0 C1.66832577 2.50248865 2.62381674 4.41149187 3.625 7.1875 C3.88539063 7.90292969 4.14578125 8.61835938 4.4140625 9.35546875 C4.60742188 9.89816406 4.80078125 10.44085938 5 11 C1.625 11.1875 1.625 11.1875 -2 11 C-2.66 10.01 -3.32 9.02 -4 8 C-2.68 7.67 -1.36 7.34 0 7 C-1.32 7 -2.64 7 -4 7 C-4 6.34 -4 5.68 -4 5 C-2.68 4.67 -1.36 4.34 0 4 C0 2.68 0 1.36 0 0 Z " fill="#515588" transform="translate(241,21)"/>
<path d="M0 0 C0.33 0 0.66 0 1 0 C1 2.64 1 5.28 1 8 C0.01 7.34 -0.98 6.68 -2 6 C-3.9896995 5.60986284 -5.99019869 5.26797351 -8 5 C-8.33 5.99 -8.66 6.98 -9 8 C-10.32 7.34 -11.64 6.68 -13 6 C-12.34 5.67 -11.68 5.34 -11 5 C-10.67 4.01 -10.34 3.02 -10 2 C-9.67 2.33 -9.34 2.66 -9 3 C-5.54187831 3.33338596 -5.54187831 3.33338596 -2 3 C-1.34 2.01 -0.68 1.02 0 0 Z " fill="#484B85" transform="translate(117,34)"/>
<path d="M0 0 C2.31 0 4.62 0 7 0 C7 0.99 7 1.98 7 3 C5.68 3 4.36 3 3 3 C3 5.64 3 8.28 3 11 C2.67 10.01 2.34 9.02 2 8 C1.34 8 0.68 8 0 8 C0 5.36 0 2.72 0 0 Z " fill="#222666" transform="translate(268,36)"/>
<path d="M0 0 C2.64 0 5.28 0 8 0 C8.66 1.32 9.32 2.64 10 4 C8.02 4 6.04 4 4 4 C3.34 5.32 2.68 6.64 2 8 C1.87625 7.360625 1.7525 6.72125 1.625 6.0625 C1.315625 5.0415625 1.315625 5.0415625 1 4 C0.34 3.67 -0.32 3.34 -1 3 C-0.67 2.01 -0.34 1.02 0 0 Z " fill="#4F5288" transform="translate(277,20)"/>
<path d="M0 0 C2.475 0.99 2.475 0.99 5 2 C5 4.31 5 6.62 5 9 C3.0625 9.5625 3.0625 9.5625 1 10 C0 9 0 9 -0.09765625 6.93359375 C-0.08605469 6.10988281 -0.07445312 5.28617188 -0.0625 4.4375 C-0.05347656 3.61121094 -0.04445312 2.78492188 -0.03515625 1.93359375 C-0.02355469 1.29550781 -0.01195312 0.65742187 0 0 Z M3 4 C3 5.65 3 7.3 3 9 C3.33 9 3.66 9 4 9 C4 7.35 4 5.7 4 4 C3.67 4 3.34 4 3 4 Z " fill="#6C6F9A" transform="translate(154,41)"/>
<path d="M0 0 C1.98 0 3.96 0 6 0 C6 0.66 6 1.32 6 2 C4.68 2 3.36 2 2 2 C2 2.99 2 3.98 2 5 C2.99 5 3.98 5 5 5 C5 5.66 5 6.32 5 7 C4.01 7 3.02 7 2 7 C2 8.32 2 9.64 2 11 C1.34 11 0.68 11 0 11 C0 7.37 0 3.74 0 0 Z " fill="#0D1058" transform="translate(260,37)"/>
<path d="M0 0 C0.99 0.33 1.98 0.66 3 1 C2.67 3.31 2.34 5.62 2 8 C0.0625 8.5625 0.0625 8.5625 -2 9 C-3 8 -3 8 -3.25 5.0625 C-3.1675 4.051875 -3.085 3.04125 -3 2 C-2.01 1.34 -1.02 0.68 0 0 Z " fill="#8285AC" transform="translate(176,42)"/>
<path d="M0 0 C0.33 0 0.66 0 1 0 C1.04898438 0.75925781 1.09796875 1.51851562 1.1484375 2.30078125 C1.22320312 3.29464844 1.29796875 4.28851563 1.375 5.3125 C1.44460937 6.29863281 1.51421875 7.28476562 1.5859375 8.30078125 C1.83865472 11.21528433 1.83865472 11.21528433 4 14 C0.53777385 15.06723961 -2.64039266 15.10173486 -6.25 15.0625 C-7.32765625 15.05347656 -8.4053125 15.04445313 -9.515625 15.03515625 C-10.33546875 15.02355469 -11.1553125 15.01195312 -12 15 C-12 14.67 -12 14.34 -12 14 C-8.37 14 -4.74 14 -1 14 C-0.67 9.38 -0.34 4.76 0 0 Z " fill="#8285AC" transform="translate(84,24)"/>
<path d="M0 0 C1.32 0.66 2.64 1.32 4 2 C3.34 2 2.68 2 2 2 C2 3.65 2 5.3 2 7 C-1.71599191 7.20086443 -2.77208445 7.1519437 -6 5 C-6 5.66 -6 6.32 -6 7 C-6.66 6.67 -7.32 6.34 -8 6 C-7.67 5.34 -7.34 4.68 -7 4 C-7.66 3.34 -8.32 2.68 -9 2 C-7.02 2 -5.04 2 -3 2 C-2.67 2.99 -2.34 3.98 -2 5 C-1.01 5.33 -0.02 5.66 1 6 C0.67 4.02 0.34 2.04 0 0 Z " fill="#484C83" transform="translate(185,32)"/>
<path d="M0 0 C0.99 0 1.98 0 3 0 C3.33 2.31 3.66 4.62 4 7 C2.35 7.33 0.7 7.66 -1 8 C-1.04241723 5.66705225 -1.04092937 3.33297433 -1 1 C-0.67 0.67 -0.34 0.34 0 0 Z " fill="#8184AA" transform="translate(327,24)"/>
<path d="M0 0 C0.99 0 1.98 0 3 0 C3 3.63 3 7.26 3 11 C2.01 11 1.02 11 0 11 C0 7.37 0 3.74 0 0 Z " fill="#0D105A" transform="translate(321,37)"/>
<path d="M0 0 C0.99 0 1.98 0 3 0 C3 3.96 3 7.92 3 12 C2.34 12 1.68 12 1 12 C0.03929566 9.11788698 -0.10581883 7.30149956 -0.0625 4.3125 C-0.05347656 3.50425781 -0.04445313 2.69601563 -0.03515625 1.86328125 C-0.02355469 1.24839844 -0.01195312 0.63351563 0 0 Z " fill="#181B5F" transform="translate(305,36)"/>
<path d="M0 0 C2.475 0.495 2.475 0.495 5 1 C5 2.65 5 4.3 5 6 C3.35 6.33 1.7 6.66 0 7 C0 4.69 0 2.38 0 0 Z " fill="#606294" transform="translate(123,21)"/>
<path d="M0 0 C0.99 0 1.98 0 3 0 C3.33 3.3 3.66 6.6 4 10 C2.68 10 1.36 10 0 10 C0 6.7 0 3.4 0 0 Z " fill="#0C105B" transform="translate(242,38)"/>
<path d="M0 0 C4 1 4 1 6 4 C5.01 4.33 4.02 4.66 3 5 C2.67 6.98 2.34 8.96 2 11 C1.34 11 0.68 11 0 11 C0 7.37 0 3.74 0 0 Z " fill="#0D115A" transform="translate(297,37)"/>
<path d="M0 0 C0.66 0 1.32 0 2 0 C2 0.99 2 1.98 2 3 C2.99 3 3.98 3 5 3 C5.33 2.34 5.66 1.68 6 1 C6 3.31 6 5.62 6 8 C5.34 8 4.68 8 4 8 C4 7.01 4 6.02 4 5 C3.34 5 2.68 5 2 5 C2 5.99 2 6.98 2 8 C1.34 8 0.68 8 0 8 C0 5.36 0 2.72 0 0 Z " fill="#4F5183" transform="translate(295,24)"/>
<path d="M0 0 C0.66 0.66 1.32 1.32 2 2 C-0.16826864 2 -2.33724158 1.90448274 -4.5 1.75 C-8.05600323 1.61302465 -8.05600323 1.61302465 -9.9375 4 C-10.288125 4.66 -10.63875 5.32 -11 6 C-11 4.35 -11 2.7 -11 1 C-12.98 1 -14.96 1 -17 1 C-17 0.67 -17 0.34 -17 0 C-11.35964956 -1.37197713 -5.67599947 -1.06656853 0 0 Z " fill="#626594" transform="translate(116,18)"/>
<path d="M0 0 C2.97 0.495 2.97 0.495 6 1 C5.01 1.33 4.02 1.66 3 2 C3 2.99 3 3.98 3 5 C4.32 5 5.64 5 7 5 C7 5.66 7 6.32 7 7 C4.69 7 2.38 7 0 7 C0 4.69 0 2.38 0 0 Z " fill="#0D115A" transform="translate(288,41)"/>
<path d="M0 0 C1.89213369 2.38573379 3.02391783 4.07175348 4 7 C3.01 7 2.02 7 1 7 C1 6.34 1 5.68 1 5 C-0.1446875 5.495 -0.1446875 5.495 -1.3125 6 C-4 7 -4 7 -7 7 C-6.67 5.68 -6.34 4.36 -6 3 C-4.02 3 -2.04 3 0 3 C0 2.01 0 1.02 0 0 Z " fill="#0F125D" transform="translate(232,41)"/>
<path d="M0 0 C0.33 0.99 0.66 1.98 1 3 C0.67 3.66 0.34 4.32 0 5 C-1.65 4.67 -3.3 4.34 -5 4 C-5 3.01 -5 2.02 -5 1 C-5.66 0.67 -6.32 0.34 -7 0 C-4.3333581 -1.33332095 -2.83319697 -0.67102033 0 0 Z " fill="#44487D" transform="translate(167,31)"/>
<path d="M0 0 C1.98 0 3.96 0 6 0 C6 1.98 6 3.96 6 6 C4.02 6 2.04 6 0 6 C0 4.02 0 2.04 0 0 Z " fill="#1E2260" transform="translate(257,21)"/>
<path d="M0 0 C2.9375 0.75 2.9375 0.75 6 2 C6.33 3.32 6.66 4.64 7 6 C1.06 5.01 1.06 5.01 -5 4 C-3.68 3.34 -2.36 2.68 -1 2 C-0.67 1.34 -0.34 0.68 0 0 Z " fill="#3B3E79" transform="translate(125,15)"/>
<path d="M0 0 C2.0625 0.4375 2.0625 0.4375 4 1 C4 2.65 4 4.3 4 6 C2.0625 6.5625 2.0625 6.5625 0 7 C-1 6 -1 6 -1.125 3.5 C-1 1 -1 1 0 0 Z " fill="#54578C" transform="translate(62,21)"/>
<path d="M0 0 C0.66 0 1.32 0 2 0 C3.07525194 2.65228812 4.09456151 5.28368454 5 8 C3.02 8.99 3.02 8.99 1 10 C0.855625 9.2575 0.71125 8.515 0.5625 7.75 C0.21921582 6.07172178 -0.16651881 4.40053228 -0.625 2.75 C-0.74875 2.1725 -0.8725 1.595 -1 1 C-0.67 0.67 -0.34 0.34 0 0 Z " fill="#14185E" transform="translate(27,17)"/>
<path d="M0 0 C1.65322266 0.01740234 1.65322266 0.01740234 3.33984375 0.03515625 C4.99693359 0.04869141 4.99693359 0.04869141 6.6875 0.0625 C7.54214844 0.07410156 8.39679687 0.08570313 9.27734375 0.09765625 C9.27734375 0.42765625 9.27734375 0.75765625 9.27734375 1.09765625 C4.82234375 1.59265625 4.82234375 1.59265625 0.27734375 2.09765625 C-0.05265625 3.08765625 -0.38265625 4.07765625 -0.72265625 5.09765625 C-2.04265625 5.09765625 -3.36265625 5.09765625 -4.72265625 5.09765625 C-3.60073576 0.12915121 -3.60073576 0.12915121 0 0 Z " fill="#1F2366" transform="translate(39.72265625,49.90234375)"/>
<path d="M0 0 C1.09658936 3.28976808 0.79953138 4.71303767 0 8 C-0.99 8.33 -1.98 8.66 -3 9 C-3 7.35 -3 5.7 -3 4 C-2.34 3.67 -1.68 3.34 -1 3 C-1.99 3 -2.98 3 -4 3 C-4 4.98 -4 6.96 -4 9 C-4.33 9 -4.66 9 -5 9 C-5.1875 5.625 -5.1875 5.625 -5 2 C-2 0 -2 0 0 0 Z " fill="#505384" transform="translate(62,41)"/>
<path d="M0 0 C2.95183101 2.95183101 3.08663988 5.95511947 4 10 C1.03 9.505 1.03 9.505 -2 9 C-1.34 6.03 -0.68 3.06 0 0 Z " fill="#7C7FA3" transform="translate(178,22)"/>
<path d="M0 0 C0.99 1.32 1.98 2.64 3 4 C2.67 4.66 2.34 5.32 2 6 C1.67 5.67 1.34 5.34 1 5 C-0.51928038 4.92820036 -2.04167482 4.91607993 -3.5625 4.9375 C-4.80193359 4.95103516 -4.80193359 4.95103516 -6.06640625 4.96484375 C-7.02353516 4.98224609 -7.02353516 4.98224609 -8 5 C-8.33 4.01 -8.66 3.02 -9 2 C-6.1875 1.375 -6.1875 1.375 -3 1 C-2.01 1.66 -1.02 2.32 0 3 C0 2.01 0 1.02 0 0 Z " fill="#4A4F87" transform="translate(167,15)"/>
<path d="M0 0 C0.33 1.32 0.66 2.64 1 4 C-3.29 3.67 -7.58 3.34 -12 3 C-12 2.67 -12 2.34 -12 2 C-7.8803623 0.70756464 -4.33168317 -0.26252625 0 0 Z " fill="#3F427F" transform="translate(84,16)"/>
<path d="M0 0 C1.98 0.495 1.98 0.495 4 1 C4.33 2.65 4.66 4.3 5 6 C1.25 7.125 1.25 7.125 -1 6 C-0.67 4.02 -0.34 2.04 0 0 Z " fill="#42457F" transform="translate(227,38)"/>
<path d="M0 0 C1.32 0 2.64 0 4 0 C4 1.65 4 3.3 4 5 C2.68 5.33 1.36 5.66 0 6 C-1.125 2.25 -1.125 2.25 0 0 Z " fill="#74779E" transform="translate(288,29)"/>
<path d="M0 0 C1.32 0.33 2.64 0.66 4 1 C4 2.98 4 4.96 4 7 C2.68 7 1.36 7 0 7 C0 4.69 0 2.38 0 0 Z " fill="#4D4F84" transform="translate(316,25)"/>
<path d="M0 0 C1.32 0 2.64 0 4 0 C5.75 2 5.75 2 7 4 C6.34 4 5.68 4 5 4 C4.67 4.99 4.34 5.98 4 7 C3.01 7 2.02 7 1 7 C1.020625 6.21625 1.04125 5.4325 1.0625 4.625 C1.18684063 2.01885039 1.18684063 2.01885039 0 0 Z " fill="#7C7EA4" transform="translate(183,44)"/>
<path d="M0 0 C1.98 0.495 1.98 0.495 4 1 C4 2.98 4 4.96 4 7 C2.68 7 1.36 7 0 7 C-0.93423645 3.98968256 -1.04449911 3.13349732 0 0 Z " fill="#5F6094" transform="translate(271,39)"/>
<path d="M0 0 C2.31 0.33 4.62 0.66 7 1 C7 1.99 7 2.98 7 4 C4.69 4 2.38 4 0 4 C0 2.68 0 1.36 0 0 Z " fill="#262A6A" transform="translate(208,28)"/>
<path d="M0 0 C-0.33 0.66 -0.66 1.32 -1 2 C-3.0625 2.625 -3.0625 2.625 -5 3 C-5.33 4.65 -5.66 6.3 -6 8 C-6.66 7.67 -7.32 7.34 -8 7 C-8.625 4.4375 -8.625 4.4375 -9 2 C-5.86501708 0.14223235 -3.62528568 -0.20140476 0 0 Z " fill="#181D5F" transform="translate(125,16)"/>
<path d="M0 0 C2.0625 0.4375 2.0625 0.4375 4 1 C3.34 3.31 2.68 5.62 2 8 C1.01 7.67 0.02 7.34 -1 7 C-1.04254356 5.00045254 -1.04080783 2.99958364 -1 1 C-0.67 0.67 -0.34 0.34 0 0 Z " fill="#8D90AE" transform="translate(119,43)"/>
<path d="M0 0 C0.33 0.99 0.66 1.98 1 3 C1.99 3 2.98 3 4 3 C4 4.65 4 6.3 4 8 C2.68 7.67 1.36 7.34 0 7 C0 4.69 0 2.38 0 0 Z " fill="#2D316D" transform="translate(89,28)"/>
<path d="M0 0 C0.94875 0.04125 1.8975 0.0825 2.875 0.125 C3.535 1.445 4.195 2.765 4.875 4.125 C4.215 4.785 3.555 5.445 2.875 6.125 C2.875 5.135 2.875 4.145 2.875 3.125 C0.235 2.795 -2.405 2.465 -5.125 2.125 C-3.125 0.125 -3.125 0.125 0 0 Z " fill="#585B8B" transform="translate(93.125,16.875)"/>
<path d="M0 0 C1.22589844 0.01353516 1.22589844 0.01353516 2.4765625 0.02734375 C3.41628906 0.04474609 3.41628906 0.04474609 4.375 0.0625 C4.375 0.3925 4.375 0.7225 4.375 1.0625 C1.735 1.3925 -0.905 1.7225 -3.625 2.0625 C-3.625 2.7225 -3.625 3.3825 -3.625 4.0625 C-4.285 4.0625 -4.945 4.0625 -5.625 4.0625 C-5.955 4.7225 -6.285 5.3825 -6.625 6.0625 C-6.625 4.4125 -6.625 2.7625 -6.625 1.0625 C-4.21954362 -0.14022819 -2.67503047 -0.03821472 0 0 Z " fill="#272B70" transform="translate(91.625,15.9375)"/>
<path d="M0 0 C0.66 0 1.32 0 2 0 C2.33 2.31 2.66 4.62 3 7 C1.68 7 0.36 7 -1 7 C-0.67 4.69 -0.34 2.38 0 0 Z " fill="#535686" transform="translate(334,42)"/>
<path d="M0 0 C2.31 0.33 4.62 0.66 7 1 C7 1.99 7 2.98 7 4 C5.02 4 3.04 4 1 4 C0.67 2.68 0.34 1.36 0 0 Z " fill="#404479" transform="translate(311,45)"/>
<path d="M0 0 C0.66 0.33 1.32 0.66 2 1 C1.67 3.31 1.34 5.62 1 8 C0.67 6.68 0.34 5.36 0 4 C-1.32 4.33 -2.64 4.66 -4 5 C-4 4.01 -4 3.02 -4 2 C-2.68 2 -1.36 2 0 2 C0 1.34 0 0.68 0 0 Z " fill="#656799" transform="translate(284,37)"/>
<path d="M0 0 C0.66 0 1.32 0 2 0 C2.625 3.375 2.625 3.375 3 7 C2.34 7.66 1.68 8.32 1 9 C1 7.68 1 6.36 1 5 C0.34 5 -0.32 5 -1 5 C-0.67 3.35 -0.34 1.7 0 0 Z " fill="#222660" transform="translate(41,29)"/>
<path d="M0 0 C1.5625 1.1875 1.5625 1.1875 3 3 C2.6875 5.6875 2.6875 5.6875 2 8 C1.34 8 0.68 8 0 8 C-0.79953138 4.71303767 -1.09658936 3.28976808 0 0 Z " fill="#0D1155" transform="translate(171,22)"/>
<path d="M0 0 C0.33 0.66 0.66 1.32 1 2 C3.02463255 2.65213292 3.02463255 2.65213292 5 3 C5.33 4.32 5.66 5.64 6 7 C5.67 6.34 5.34 5.68 5 5 C3.35 5 1.7 5 0 5 C-0.33 4.01 -0.66 3.02 -1 2 C-0.67 1.34 -0.34 0.68 0 0 Z " fill="#5E6194" transform="translate(258,25)"/>
<path d="M0 0 C1.98 0.495 1.98 0.495 4 1 C4 3.31 4 5.62 4 8 C3.731875 7.360625 3.46375 6.72125 3.1875 6.0625 C2.11332248 3.66868314 2.11332248 3.66868314 -1 3 C-0.67 2.01 -0.34 1.02 0 0 Z " fill="#1D2162" transform="translate(33,42)"/>
<path d="M0 0 C2 3 2 3 1.625 5.1875 C1.41875 5.785625 1.2125 6.38375 1 7 C-1.97 6.505 -1.97 6.505 -5 6 C-3.68 5.67 -2.36 5.34 -1 5 C-0.67 3.35 -0.34 1.7 0 0 Z " fill="#1E2264" transform="translate(169,45)"/>
<path d="M0 0 C1.65 0 3.3 0 5 0 C4.67 1.65 4.34 3.3 4 5 C3.01 5 2.02 5 1 5 C0.67 3.35 0.34 1.7 0 0 Z " fill="#4F5284" transform="translate(67,43)"/>
<path d="M0 0 C1.98 0 3.96 0 6 0 C6 1.32 6 2.64 6 4 C4.35 4 2.7 4 1 4 C1.66 3.67 2.32 3.34 3 3 C3 2.34 3 1.68 3 1 C2.01 0.67 1.02 0.34 0 0 Z " fill="#6A6C9B" transform="translate(313,36)"/>
<path d="M0 0 C1.98 0 3.96 0 6 0 C6 0.66 6 1.32 6 2 C4.68 2 3.36 2 2 2 C1.67 2.99 1.34 3.98 1 5 C0.67 5 0.34 5 0 5 C0 3.35 0 1.7 0 0 Z " fill="#0D1157" transform="translate(208,21)"/>
<path d="M0 0 C2 1 2 1 2 1 Z " fill="#F9FCE8" transform="translate(59,20)"/>
<path d="" fill="#F9FCE8" transform="translate(0,0)"/>
<path d="" fill="#F9FCE8" transform="translate(0,0)"/>
<path d="" fill="#F3F3ED" transform="translate(0,0)"/>
<path d="" fill="#F3F3ED" transform="translate(0,0)"/>
<path d="" fill="#F3F3ED" transform="translate(0,0)"/>
<path d="" fill="#F9FCE8" transform="translate(0,0)"/>
<path d="" fill="#F3F3ED" transform="translate(0,0)"/>
<path d="" fill="#F3F3ED" transform="translate(0,0)"/>
<path d="" fill="#EBEBE9" transform="translate(0,0)"/>
<path d="" fill="#F9FCE8" transform="translate(0,0)"/>
<path d="" fill="#F9FCE8" transform="translate(0,0)"/>
<path d="" fill="#F9FCE8" transform="translate(0,0)"/>
<path d="" fill="#F3F3ED" transform="translate(0,0)"/>
<path d="" fill="#F3F3ED" transform="translate(0,0)"/>
<path d="" fill="#F9FCE8" transform="translate(0,0)"/>
<path d="" fill="#F9FCE8" transform="translate(0,0)"/>
<path d="" fill="#F3F3ED" transform="translate(0,0)"/>
</svg>
